%TF.GenerationSoftware,KiCad,Pcbnew,7.0.5-0*%
%TF.CreationDate,2023-09-08T15:05:08-04:00*%
%TF.ProjectId,rodentdbs,726f6465-6e74-4646-9273-2e6b69636164,rev?*%
%TF.SameCoordinates,Original*%
%TF.FileFunction,Soldermask,Top*%
%TF.FilePolarity,Negative*%
%FSLAX46Y46*%
G04 Gerber Fmt 4.6, Leading zero omitted, Abs format (unit mm)*
G04 Created by KiCad (PCBNEW 7.0.5-0) date 2023-09-08 15:05:08*
%MOMM*%
%LPD*%
G01*
G04 APERTURE LIST*
G04 Aperture macros list*
%AMRoundRect*
0 Rectangle with rounded corners*
0 $1 Rounding radius*
0 $2 $3 $4 $5 $6 $7 $8 $9 X,Y pos of 4 corners*
0 Add a 4 corners polygon primitive as box body*
4,1,4,$2,$3,$4,$5,$6,$7,$8,$9,$2,$3,0*
0 Add four circle primitives for the rounded corners*
1,1,$1+$1,$2,$3*
1,1,$1+$1,$4,$5*
1,1,$1+$1,$6,$7*
1,1,$1+$1,$8,$9*
0 Add four rect primitives between the rounded corners*
20,1,$1+$1,$2,$3,$4,$5,0*
20,1,$1+$1,$4,$5,$6,$7,0*
20,1,$1+$1,$6,$7,$8,$9,0*
20,1,$1+$1,$8,$9,$2,$3,0*%
%AMHorizOval*
0 Thick line with rounded ends*
0 $1 width*
0 $2 $3 position (X,Y) of the first rounded end (center of the circle)*
0 $4 $5 position (X,Y) of the second rounded end (center of the circle)*
0 Add line between two ends*
20,1,$1,$2,$3,$4,$5,0*
0 Add two circle primitives to create the rounded ends*
1,1,$1,$2,$3*
1,1,$1,$4,$5*%
%AMRotRect*
0 Rectangle, with rotation*
0 The origin of the aperture is its center*
0 $1 length*
0 $2 width*
0 $3 Rotation angle, in degrees counterclockwise*
0 Add horizontal line*
21,1,$1,$2,0,0,$3*%
G04 Aperture macros list end*
%ADD10R,0.550000X1.050000*%
%ADD11RotRect,1.000000X1.000000X243.440000*%
%ADD12HorizOval,1.000000X0.000000X0.000000X0.000000X0.000000X0*%
%ADD13RotRect,1.000000X1.000000X40.000000*%
%ADD14HorizOval,1.000000X0.000000X0.000000X0.000000X0.000000X0*%
%ADD15RotRect,1.700000X1.700000X300.000000*%
%ADD16HorizOval,1.700000X0.000000X0.000000X0.000000X0.000000X0*%
%ADD17RoundRect,0.250000X-0.375000X-1.075000X0.375000X-1.075000X0.375000X1.075000X-0.375000X1.075000X0*%
%ADD18RoundRect,0.140000X0.170000X-0.140000X0.170000X0.140000X-0.170000X0.140000X-0.170000X-0.140000X0*%
%ADD19RoundRect,0.225000X0.225000X0.250000X-0.225000X0.250000X-0.225000X-0.250000X0.225000X-0.250000X0*%
%ADD20RotRect,1.700000X1.700000X120.000000*%
%ADD21HorizOval,1.700000X0.000000X0.000000X0.000000X0.000000X0*%
%ADD22RoundRect,0.225000X-0.250000X0.225000X-0.250000X-0.225000X0.250000X-0.225000X0.250000X0.225000X0*%
%ADD23RoundRect,0.147500X-0.147500X-0.172500X0.147500X-0.172500X0.147500X0.172500X-0.147500X0.172500X0*%
%ADD24RoundRect,0.147500X0.209080X0.088307X-0.054765X0.220257X-0.209080X-0.088307X0.054765X-0.220257X0*%
%ADD25RoundRect,0.147500X0.147500X0.172500X-0.147500X0.172500X-0.147500X-0.172500X0.147500X-0.172500X0*%
%ADD26RoundRect,0.140000X-0.201254X-0.089425X0.049175X-0.214667X0.201254X0.089425X-0.049175X0.214667X0*%
%ADD27RoundRect,0.140000X0.089425X-0.201254X0.214667X0.049175X-0.089425X0.201254X-0.214667X-0.049175X0*%
%ADD28RoundRect,0.140000X-0.140000X-0.170000X0.140000X-0.170000X0.140000X0.170000X-0.140000X0.170000X0*%
%ADD29RoundRect,0.140000X-0.170000X0.140000X-0.170000X-0.140000X0.170000X-0.140000X0.170000X0.140000X0*%
%ADD30RoundRect,0.038100X-0.650000X-0.550000X0.650000X-0.550000X0.650000X0.550000X-0.650000X0.550000X0*%
%ADD31RoundRect,0.038100X-0.550000X-0.950000X0.550000X-0.950000X0.550000X0.950000X-0.550000X0.950000X0*%
%ADD32RoundRect,0.050000X0.387500X0.050000X-0.387500X0.050000X-0.387500X-0.050000X0.387500X-0.050000X0*%
%ADD33RoundRect,0.050000X0.050000X0.387500X-0.050000X0.387500X-0.050000X-0.387500X0.050000X-0.387500X0*%
%ADD34R,5.600000X5.600000*%
%ADD35RoundRect,0.038100X-0.894368X-0.670899X0.000099X-1.118034X0.894368X0.670899X-0.000099X1.118034X0*%
%ADD36RoundRect,0.038100X-1.408750X0.312925X1.095756X-0.939052X1.408750X-0.312925X-1.095756X0.939052X0*%
G04 APERTURE END LIST*
D10*
%TO.C,IC1*%
X156375000Y-125770000D03*
X155425000Y-125770000D03*
X154475000Y-125770000D03*
X154475000Y-128270000D03*
X156375000Y-128270000D03*
%TD*%
D11*
%TO.C,J6*%
X150235890Y-123060193D03*
D12*
X149099917Y-122492332D03*
X147963945Y-121924471D03*
X146827972Y-121356610D03*
X145692000Y-120788749D03*
%TD*%
D13*
%TO.C,J2*%
X135255000Y-134620000D03*
D14*
X136071340Y-135592876D03*
%TD*%
D15*
%TO.C,J3*%
X152229852Y-137795000D03*
D16*
X150030148Y-139065000D03*
%TD*%
D17*
%TO.C,L1*%
X154045000Y-132080000D03*
X156845000Y-132080000D03*
%TD*%
D18*
%TO.C,C16*%
X152270000Y-126070000D03*
X152270000Y-125110000D03*
%TD*%
D19*
%TO.C,C13*%
X158115000Y-123190000D03*
X156565000Y-123190000D03*
%TD*%
D20*
%TO.C,J4*%
X138972122Y-117103026D03*
D21*
X141171826Y-115833026D03*
%TD*%
D22*
%TO.C,C17*%
X151765000Y-128625000D03*
X151765000Y-130175000D03*
%TD*%
D18*
%TO.C,C7*%
X159385000Y-125095000D03*
X159385000Y-126055000D03*
%TD*%
D23*
%TO.C,FB2*%
X149225000Y-132715000D03*
X148255000Y-132715000D03*
%TD*%
%TO.C,FB1*%
X149225000Y-134620000D03*
X148255000Y-134620000D03*
%TD*%
D24*
%TO.C,L2*%
X143912444Y-115136128D03*
X144780000Y-115570000D03*
%TD*%
D25*
%TO.C,D2*%
X144930000Y-140970000D03*
X145900000Y-140970000D03*
%TD*%
%TO.C,D1*%
X142725000Y-139700000D03*
X141755000Y-139700000D03*
%TD*%
D26*
%TO.C,C15*%
X145504287Y-114300000D03*
X144645673Y-113870600D03*
%TD*%
D27*
%TO.C,C14*%
X145990300Y-115999307D03*
X146419700Y-115140693D03*
%TD*%
D28*
%TO.C,C11*%
X139855000Y-137160000D03*
X140815000Y-137160000D03*
%TD*%
D29*
%TO.C,C10*%
X144780000Y-135255000D03*
X144780000Y-136215000D03*
%TD*%
D30*
%TO.C,Y2*%
X134466724Y-120012381D03*
X136766724Y-120012381D03*
X136766724Y-121812381D03*
X134466724Y-121812381D03*
%TD*%
D31*
%TO.C,Y1*%
X142835000Y-134620000D03*
X140335000Y-134620000D03*
%TD*%
D32*
%TO.C,U2*%
X140467500Y-130550000D03*
X140467500Y-130150000D03*
X140467500Y-129750000D03*
X140467500Y-129350000D03*
X140467500Y-128950000D03*
X140467500Y-128550000D03*
X140467500Y-128150000D03*
X140467500Y-127750000D03*
X140467500Y-127350000D03*
X140467500Y-126950000D03*
X140467500Y-126550000D03*
X140467500Y-126150000D03*
X140467500Y-125750000D03*
X140467500Y-125350000D03*
D33*
X139630000Y-124512500D03*
X139230000Y-124512500D03*
X138830000Y-124512500D03*
X138430000Y-124512500D03*
X138030000Y-124512500D03*
X137630000Y-124512500D03*
X137230000Y-124512500D03*
X136830000Y-124512500D03*
X136430000Y-124512500D03*
X136030000Y-124512500D03*
X135630000Y-124512500D03*
X135230000Y-124512500D03*
X134830000Y-124512500D03*
X134430000Y-124512500D03*
D32*
X133592500Y-125350000D03*
X133592500Y-125750000D03*
X133592500Y-126150000D03*
X133592500Y-126550000D03*
X133592500Y-126950000D03*
X133592500Y-127350000D03*
X133592500Y-127750000D03*
X133592500Y-128150000D03*
X133592500Y-128550000D03*
X133592500Y-128950000D03*
X133592500Y-129350000D03*
X133592500Y-129750000D03*
X133592500Y-130150000D03*
X133592500Y-130550000D03*
D33*
X134430000Y-131387500D03*
X134830000Y-131387500D03*
X135230000Y-131387500D03*
X135630000Y-131387500D03*
X136030000Y-131387500D03*
X136430000Y-131387500D03*
X136830000Y-131387500D03*
X137230000Y-131387500D03*
X137630000Y-131387500D03*
X138030000Y-131387500D03*
X138430000Y-131387500D03*
X138830000Y-131387500D03*
X139230000Y-131387500D03*
X139630000Y-131387500D03*
D34*
X137030000Y-127950000D03*
%TD*%
D35*
%TO.C,AE1*%
X150209669Y-114870170D03*
X154860895Y-117195270D03*
D36*
X152155217Y-116793017D03*
X152915347Y-115272423D03*
%TD*%
M02*
