M48
INCH
T1C0.0118
T2C0.0256
T3C0.0394
%
G90
G05
T1
X5.2Y-5.075
X5.2125Y-5.0375
X5.2135Y-5.1527
X5.2138Y-5.1148
X5.25Y-4.875
X5.275Y-4.85
X5.3Y-4.65
X5.3Y-4.95
X5.3Y-5.2131
X5.325Y-5.05
X5.325Y-5.1
X5.3305Y-5.2256
X5.35Y-4.8598
X5.425Y-4.8
X5.425Y-4.8598
X5.425Y-4.95
X5.425Y-5.05
X5.425Y-5.425
X5.475Y-5.225
X5.525Y-4.8598
X5.55Y-5.475
X5.575Y-4.725
X5.575Y-4.8
X5.575Y-4.875
X5.575Y-5.0098
X5.575Y-5.0848
X5.575Y-5.1598
X5.6Y-4.675
X5.625Y-4.45
X5.625Y-4.75
X5.625Y-4.8
X5.625Y-4.875
X5.65Y-4.625
X5.65Y-4.7
X5.675Y-5.525
X5.7Y-4.65
X5.725Y-4.425
X5.75Y-4.625
X5.775Y-4.425
X5.775Y-4.675
X5.8Y-4.5
X5.8Y-5.225
X5.8Y-5.3
X5.825Y-4.45
X5.825Y-4.65
X5.825Y-5.4
X5.85Y-4.7
X5.875Y-4.675
X5.9Y-4.725
X5.925Y-4.7
X5.95Y-4.75
X5.95Y-5.225
X5.975Y-4.725
X5.975Y-5.025
X6.0Y-4.775
X6.025Y-4.75
X6.05Y-4.8
X6.075Y-4.775
X6.075Y-4.9
X6.075Y-5.325
X6.1Y-4.825
X6.125Y-4.8
X6.15Y-4.775
X6.175Y-4.725
X6.2Y-4.675
X6.225Y-4.75
T2
X5.325Y-5.3
X5.3571Y-5.3383
X5.7359Y-4.7555
X5.7806Y-4.7778
X5.8254Y-4.8002
X5.8701Y-4.8225
X5.9148Y-4.8449
T3
X5.4713Y-4.6104
X5.5579Y-4.5604
X5.9067Y-5.475
X5.9933Y-5.425
T0
M30
