%TF.GenerationSoftware,KiCad,Pcbnew,7.0.5-0*%
%TF.CreationDate,2023-09-08T15:05:08-04:00*%
%TF.ProjectId,rodentdbs,726f6465-6e74-4646-9273-2e6b69636164,rev?*%
%TF.SameCoordinates,Original*%
%TF.FileFunction,Legend,Top*%
%TF.FilePolarity,Positive*%
%FSLAX46Y46*%
G04 Gerber Fmt 4.6, Leading zero omitted, Abs format (unit mm)*
G04 Created by KiCad (PCBNEW 7.0.5-0) date 2023-09-08 15:05:08*
%MOMM*%
%LPD*%
G01*
G04 APERTURE LIST*
G04 Aperture macros list*
%AMRoundRect*
0 Rectangle with rounded corners*
0 $1 Rounding radius*
0 $2 $3 $4 $5 $6 $7 $8 $9 X,Y pos of 4 corners*
0 Add a 4 corners polygon primitive as box body*
4,1,4,$2,$3,$4,$5,$6,$7,$8,$9,$2,$3,0*
0 Add four circle primitives for the rounded corners*
1,1,$1+$1,$2,$3*
1,1,$1+$1,$4,$5*
1,1,$1+$1,$6,$7*
1,1,$1+$1,$8,$9*
0 Add four rect primitives between the rounded corners*
20,1,$1+$1,$2,$3,$4,$5,0*
20,1,$1+$1,$4,$5,$6,$7,0*
20,1,$1+$1,$6,$7,$8,$9,0*
20,1,$1+$1,$8,$9,$2,$3,0*%
%AMHorizOval*
0 Thick line with rounded ends*
0 $1 width*
0 $2 $3 position (X,Y) of the first rounded end (center of the circle)*
0 $4 $5 position (X,Y) of the second rounded end (center of the circle)*
0 Add line between two ends*
20,1,$1,$2,$3,$4,$5,0*
0 Add two circle primitives to create the rounded ends*
1,1,$1,$2,$3*
1,1,$1,$4,$5*%
%AMRotRect*
0 Rectangle, with rotation*
0 The origin of the aperture is its center*
0 $1 length*
0 $2 width*
0 $3 Rotation angle, in degrees counterclockwise*
0 Add horizontal line*
21,1,$1,$2,0,0,$3*%
G04 Aperture macros list end*
%ADD10C,0.254000*%
%ADD11C,0.150000*%
%ADD12C,0.048868*%
%ADD13C,0.040121*%
%ADD14C,0.101683*%
%ADD15C,0.200000*%
%ADD16C,0.120000*%
%ADD17C,0.100000*%
%ADD18C,0.127000*%
%ADD19R,0.550000X1.050000*%
%ADD20RotRect,1.000000X1.000000X243.440000*%
%ADD21HorizOval,1.000000X0.000000X0.000000X0.000000X0.000000X0*%
%ADD22RotRect,1.000000X1.000000X40.000000*%
%ADD23HorizOval,1.000000X0.000000X0.000000X0.000000X0.000000X0*%
%ADD24RotRect,1.700000X1.700000X300.000000*%
%ADD25HorizOval,1.700000X0.000000X0.000000X0.000000X0.000000X0*%
%ADD26RoundRect,0.250000X-0.375000X-1.075000X0.375000X-1.075000X0.375000X1.075000X-0.375000X1.075000X0*%
%ADD27RoundRect,0.140000X0.170000X-0.140000X0.170000X0.140000X-0.170000X0.140000X-0.170000X-0.140000X0*%
%ADD28RoundRect,0.225000X0.225000X0.250000X-0.225000X0.250000X-0.225000X-0.250000X0.225000X-0.250000X0*%
%ADD29RotRect,1.700000X1.700000X120.000000*%
%ADD30HorizOval,1.700000X0.000000X0.000000X0.000000X0.000000X0*%
%ADD31RoundRect,0.225000X-0.250000X0.225000X-0.250000X-0.225000X0.250000X-0.225000X0.250000X0.225000X0*%
%ADD32RoundRect,0.147500X-0.147500X-0.172500X0.147500X-0.172500X0.147500X0.172500X-0.147500X0.172500X0*%
%ADD33RoundRect,0.147500X0.209080X0.088307X-0.054765X0.220257X-0.209080X-0.088307X0.054765X-0.220257X0*%
%ADD34RoundRect,0.147500X0.147500X0.172500X-0.147500X0.172500X-0.147500X-0.172500X0.147500X-0.172500X0*%
%ADD35RoundRect,0.140000X-0.201254X-0.089425X0.049175X-0.214667X0.201254X0.089425X-0.049175X0.214667X0*%
%ADD36RoundRect,0.140000X0.089425X-0.201254X0.214667X0.049175X-0.089425X0.201254X-0.214667X-0.049175X0*%
%ADD37RoundRect,0.140000X-0.140000X-0.170000X0.140000X-0.170000X0.140000X0.170000X-0.140000X0.170000X0*%
%ADD38RoundRect,0.140000X-0.170000X0.140000X-0.170000X-0.140000X0.170000X-0.140000X0.170000X0.140000X0*%
%ADD39RoundRect,0.038100X-0.650000X-0.550000X0.650000X-0.550000X0.650000X0.550000X-0.650000X0.550000X0*%
%ADD40RoundRect,0.038100X-0.550000X-0.950000X0.550000X-0.950000X0.550000X0.950000X-0.550000X0.950000X0*%
%ADD41RoundRect,0.050000X0.387500X0.050000X-0.387500X0.050000X-0.387500X-0.050000X0.387500X-0.050000X0*%
%ADD42RoundRect,0.050000X0.050000X0.387500X-0.050000X0.387500X-0.050000X-0.387500X0.050000X-0.387500X0*%
%ADD43R,5.600000X5.600000*%
%ADD44RoundRect,0.038100X-0.894368X-0.670899X0.000099X-1.118034X0.894368X0.670899X-0.000099X1.118034X0*%
%ADD45RoundRect,0.038100X-1.408750X0.312925X1.095756X-0.939052X1.408750X-0.312925X-1.095756X0.939052X0*%
G04 APERTURE END LIST*
D10*
%TO.C,IC1*%
X155999318Y-128259762D02*
X154729318Y-128259762D01*
X155878365Y-126929285D02*
X155938842Y-126989761D01*
X155938842Y-126989761D02*
X155999318Y-127171190D01*
X155999318Y-127171190D02*
X155999318Y-127292142D01*
X155999318Y-127292142D02*
X155938842Y-127473571D01*
X155938842Y-127473571D02*
X155817889Y-127594523D01*
X155817889Y-127594523D02*
X155696937Y-127655000D01*
X155696937Y-127655000D02*
X155455032Y-127715476D01*
X155455032Y-127715476D02*
X155273603Y-127715476D01*
X155273603Y-127715476D02*
X155031699Y-127655000D01*
X155031699Y-127655000D02*
X154910746Y-127594523D01*
X154910746Y-127594523D02*
X154789794Y-127473571D01*
X154789794Y-127473571D02*
X154729318Y-127292142D01*
X154729318Y-127292142D02*
X154729318Y-127171190D01*
X154729318Y-127171190D02*
X154789794Y-126989761D01*
X154789794Y-126989761D02*
X154850270Y-126929285D01*
X155999318Y-125719761D02*
X155999318Y-126445476D01*
X155999318Y-126082619D02*
X154729318Y-126082619D01*
X154729318Y-126082619D02*
X154910746Y-126203571D01*
X154910746Y-126203571D02*
X155031699Y-126324523D01*
X155031699Y-126324523D02*
X155092175Y-126445476D01*
D11*
%TO.C,J6*%
X151763308Y-123244386D02*
X152402213Y-123563768D01*
X152402213Y-123563768D02*
X152508702Y-123670238D01*
X152508702Y-123670238D02*
X152551305Y-123798009D01*
X152551305Y-123798009D02*
X152530022Y-123947082D01*
X152530022Y-123947082D02*
X152487438Y-124032270D01*
X152167859Y-122435106D02*
X152082690Y-122605481D01*
X152082690Y-122605481D02*
X152082700Y-122711960D01*
X152082700Y-122711960D02*
X152104001Y-122775846D01*
X152104001Y-122775846D02*
X152189198Y-122924910D01*
X152189198Y-122924910D02*
X152338280Y-123052672D01*
X152338280Y-123052672D02*
X152679030Y-123223009D01*
X152679030Y-123223009D02*
X152785509Y-123223000D01*
X152785509Y-123223000D02*
X152849395Y-123201698D01*
X152849395Y-123201698D02*
X152934573Y-123137803D01*
X152934573Y-123137803D02*
X153019741Y-122967428D01*
X153019741Y-122967428D02*
X153019732Y-122860949D01*
X153019732Y-122860949D02*
X152998430Y-122797063D01*
X152998430Y-122797063D02*
X152934535Y-122711885D01*
X152934535Y-122711885D02*
X152721567Y-122605425D01*
X152721567Y-122605425D02*
X152615088Y-122605434D01*
X152615088Y-122605434D02*
X152551202Y-122626735D01*
X152551202Y-122626735D02*
X152466024Y-122690631D01*
X152466024Y-122690631D02*
X152380855Y-122861005D01*
X152380855Y-122861005D02*
X152380865Y-122967485D01*
X152380865Y-122967485D02*
X152402166Y-123031370D01*
X152402166Y-123031370D02*
X152466061Y-123116548D01*
%TO.C,J2*%
X133559691Y-133118184D02*
X134018825Y-133665359D01*
X134018825Y-133665359D02*
X134074173Y-133805403D01*
X134074173Y-133805403D02*
X134062434Y-133939577D01*
X134062434Y-133939577D02*
X133983608Y-134067882D01*
X133983608Y-134067882D02*
X133910652Y-134129100D01*
X133949213Y-132915660D02*
X133955083Y-132848573D01*
X133955083Y-132848573D02*
X133997431Y-132750877D01*
X133997431Y-132750877D02*
X134179822Y-132597832D01*
X134179822Y-132597832D02*
X134283388Y-132573093D01*
X134283388Y-132573093D02*
X134350475Y-132578962D01*
X134350475Y-132578962D02*
X134448171Y-132621310D01*
X134448171Y-132621310D02*
X134509389Y-132694266D01*
X134509389Y-132694266D02*
X134564737Y-132834310D01*
X134564737Y-132834310D02*
X134494305Y-133639357D01*
X134494305Y-133639357D02*
X134968523Y-133241441D01*
%TO.C,L1*%
X155278333Y-135074819D02*
X154802143Y-135074819D01*
X154802143Y-135074819D02*
X154802143Y-134074819D01*
X156135476Y-135074819D02*
X155564048Y-135074819D01*
X155849762Y-135074819D02*
X155849762Y-134074819D01*
X155849762Y-134074819D02*
X155754524Y-134217676D01*
X155754524Y-134217676D02*
X155659286Y-134312914D01*
X155659286Y-134312914D02*
X155564048Y-134360533D01*
%TO.C,C16*%
X151239916Y-126758458D02*
X151287536Y-126806077D01*
X151287536Y-126806077D02*
X151335155Y-126948934D01*
X151335155Y-126948934D02*
X151335155Y-127044172D01*
X151335155Y-127044172D02*
X151287536Y-127187029D01*
X151287536Y-127187029D02*
X151192297Y-127282267D01*
X151192297Y-127282267D02*
X151097059Y-127329886D01*
X151097059Y-127329886D02*
X150906583Y-127377505D01*
X150906583Y-127377505D02*
X150763726Y-127377505D01*
X150763726Y-127377505D02*
X150573250Y-127329886D01*
X150573250Y-127329886D02*
X150478012Y-127282267D01*
X150478012Y-127282267D02*
X150382774Y-127187029D01*
X150382774Y-127187029D02*
X150335155Y-127044172D01*
X150335155Y-127044172D02*
X150335155Y-126948934D01*
X150335155Y-126948934D02*
X150382774Y-126806077D01*
X150382774Y-126806077D02*
X150430393Y-126758458D01*
X151335155Y-125806077D02*
X151335155Y-126377505D01*
X151335155Y-126091791D02*
X150335155Y-126091791D01*
X150335155Y-126091791D02*
X150478012Y-126187029D01*
X150478012Y-126187029D02*
X150573250Y-126282267D01*
X150573250Y-126282267D02*
X150620869Y-126377505D01*
X150335155Y-124948934D02*
X150335155Y-125139410D01*
X150335155Y-125139410D02*
X150382774Y-125234648D01*
X150382774Y-125234648D02*
X150430393Y-125282267D01*
X150430393Y-125282267D02*
X150573250Y-125377505D01*
X150573250Y-125377505D02*
X150763726Y-125425124D01*
X150763726Y-125425124D02*
X151144678Y-125425124D01*
X151144678Y-125425124D02*
X151239916Y-125377505D01*
X151239916Y-125377505D02*
X151287536Y-125329886D01*
X151287536Y-125329886D02*
X151335155Y-125234648D01*
X151335155Y-125234648D02*
X151335155Y-125044172D01*
X151335155Y-125044172D02*
X151287536Y-124948934D01*
X151287536Y-124948934D02*
X151239916Y-124901315D01*
X151239916Y-124901315D02*
X151144678Y-124853696D01*
X151144678Y-124853696D02*
X150906583Y-124853696D01*
X150906583Y-124853696D02*
X150811345Y-124901315D01*
X150811345Y-124901315D02*
X150763726Y-124948934D01*
X150763726Y-124948934D02*
X150716107Y-125044172D01*
X150716107Y-125044172D02*
X150716107Y-125234648D01*
X150716107Y-125234648D02*
X150763726Y-125329886D01*
X150763726Y-125329886D02*
X150811345Y-125377505D01*
X150811345Y-125377505D02*
X150906583Y-125425124D01*
%TO.C,C13*%
X156749142Y-122002245D02*
X156701523Y-122049865D01*
X156701523Y-122049865D02*
X156558666Y-122097484D01*
X156558666Y-122097484D02*
X156463428Y-122097484D01*
X156463428Y-122097484D02*
X156320571Y-122049865D01*
X156320571Y-122049865D02*
X156225333Y-121954626D01*
X156225333Y-121954626D02*
X156177714Y-121859388D01*
X156177714Y-121859388D02*
X156130095Y-121668912D01*
X156130095Y-121668912D02*
X156130095Y-121526055D01*
X156130095Y-121526055D02*
X156177714Y-121335579D01*
X156177714Y-121335579D02*
X156225333Y-121240341D01*
X156225333Y-121240341D02*
X156320571Y-121145103D01*
X156320571Y-121145103D02*
X156463428Y-121097484D01*
X156463428Y-121097484D02*
X156558666Y-121097484D01*
X156558666Y-121097484D02*
X156701523Y-121145103D01*
X156701523Y-121145103D02*
X156749142Y-121192722D01*
X157701523Y-122097484D02*
X157130095Y-122097484D01*
X157415809Y-122097484D02*
X157415809Y-121097484D01*
X157415809Y-121097484D02*
X157320571Y-121240341D01*
X157320571Y-121240341D02*
X157225333Y-121335579D01*
X157225333Y-121335579D02*
X157130095Y-121383198D01*
X158034857Y-121097484D02*
X158653904Y-121097484D01*
X158653904Y-121097484D02*
X158320571Y-121478436D01*
X158320571Y-121478436D02*
X158463428Y-121478436D01*
X158463428Y-121478436D02*
X158558666Y-121526055D01*
X158558666Y-121526055D02*
X158606285Y-121573674D01*
X158606285Y-121573674D02*
X158653904Y-121668912D01*
X158653904Y-121668912D02*
X158653904Y-121907007D01*
X158653904Y-121907007D02*
X158606285Y-122002245D01*
X158606285Y-122002245D02*
X158558666Y-122049865D01*
X158558666Y-122049865D02*
X158463428Y-122097484D01*
X158463428Y-122097484D02*
X158177714Y-122097484D01*
X158177714Y-122097484D02*
X158082476Y-122049865D01*
X158082476Y-122049865D02*
X158034857Y-122002245D01*
%TO.C,J4*%
X137259756Y-117706760D02*
X136641167Y-118063903D01*
X136641167Y-118063903D02*
X136493639Y-118094092D01*
X136493639Y-118094092D02*
X136363542Y-118059232D01*
X136363542Y-118059232D02*
X136250874Y-117959324D01*
X136250874Y-117959324D02*
X136203255Y-117876845D01*
X137423462Y-118656973D02*
X136846112Y-118990307D01*
X137634329Y-118260301D02*
X136896692Y-118411247D01*
X136896692Y-118411247D02*
X137206216Y-118947358D01*
%TO.C,C17*%
X153554580Y-130042857D02*
X153602200Y-130090476D01*
X153602200Y-130090476D02*
X153649819Y-130233333D01*
X153649819Y-130233333D02*
X153649819Y-130328571D01*
X153649819Y-130328571D02*
X153602200Y-130471428D01*
X153602200Y-130471428D02*
X153506961Y-130566666D01*
X153506961Y-130566666D02*
X153411723Y-130614285D01*
X153411723Y-130614285D02*
X153221247Y-130661904D01*
X153221247Y-130661904D02*
X153078390Y-130661904D01*
X153078390Y-130661904D02*
X152887914Y-130614285D01*
X152887914Y-130614285D02*
X152792676Y-130566666D01*
X152792676Y-130566666D02*
X152697438Y-130471428D01*
X152697438Y-130471428D02*
X152649819Y-130328571D01*
X152649819Y-130328571D02*
X152649819Y-130233333D01*
X152649819Y-130233333D02*
X152697438Y-130090476D01*
X152697438Y-130090476D02*
X152745057Y-130042857D01*
X153649819Y-129090476D02*
X153649819Y-129661904D01*
X153649819Y-129376190D02*
X152649819Y-129376190D01*
X152649819Y-129376190D02*
X152792676Y-129471428D01*
X152792676Y-129471428D02*
X152887914Y-129566666D01*
X152887914Y-129566666D02*
X152935533Y-129661904D01*
X152649819Y-128757142D02*
X152649819Y-128090476D01*
X152649819Y-128090476D02*
X153649819Y-128519047D01*
%TO.C,C7*%
X159744580Y-127801666D02*
X159792200Y-127849285D01*
X159792200Y-127849285D02*
X159839819Y-127992142D01*
X159839819Y-127992142D02*
X159839819Y-128087380D01*
X159839819Y-128087380D02*
X159792200Y-128230237D01*
X159792200Y-128230237D02*
X159696961Y-128325475D01*
X159696961Y-128325475D02*
X159601723Y-128373094D01*
X159601723Y-128373094D02*
X159411247Y-128420713D01*
X159411247Y-128420713D02*
X159268390Y-128420713D01*
X159268390Y-128420713D02*
X159077914Y-128373094D01*
X159077914Y-128373094D02*
X158982676Y-128325475D01*
X158982676Y-128325475D02*
X158887438Y-128230237D01*
X158887438Y-128230237D02*
X158839819Y-128087380D01*
X158839819Y-128087380D02*
X158839819Y-127992142D01*
X158839819Y-127992142D02*
X158887438Y-127849285D01*
X158887438Y-127849285D02*
X158935057Y-127801666D01*
X158839819Y-127468332D02*
X158839819Y-126801666D01*
X158839819Y-126801666D02*
X159839819Y-127230237D01*
%TO.C,FB2*%
X150296666Y-132646009D02*
X149963333Y-132646009D01*
X149963333Y-133169819D02*
X149963333Y-132169819D01*
X149963333Y-132169819D02*
X150439523Y-132169819D01*
X151153809Y-132646009D02*
X151296666Y-132693628D01*
X151296666Y-132693628D02*
X151344285Y-132741247D01*
X151344285Y-132741247D02*
X151391904Y-132836485D01*
X151391904Y-132836485D02*
X151391904Y-132979342D01*
X151391904Y-132979342D02*
X151344285Y-133074580D01*
X151344285Y-133074580D02*
X151296666Y-133122200D01*
X151296666Y-133122200D02*
X151201428Y-133169819D01*
X151201428Y-133169819D02*
X150820476Y-133169819D01*
X150820476Y-133169819D02*
X150820476Y-132169819D01*
X150820476Y-132169819D02*
X151153809Y-132169819D01*
X151153809Y-132169819D02*
X151249047Y-132217438D01*
X151249047Y-132217438D02*
X151296666Y-132265057D01*
X151296666Y-132265057D02*
X151344285Y-132360295D01*
X151344285Y-132360295D02*
X151344285Y-132455533D01*
X151344285Y-132455533D02*
X151296666Y-132550771D01*
X151296666Y-132550771D02*
X151249047Y-132598390D01*
X151249047Y-132598390D02*
X151153809Y-132646009D01*
X151153809Y-132646009D02*
X150820476Y-132646009D01*
X151772857Y-132265057D02*
X151820476Y-132217438D01*
X151820476Y-132217438D02*
X151915714Y-132169819D01*
X151915714Y-132169819D02*
X152153809Y-132169819D01*
X152153809Y-132169819D02*
X152249047Y-132217438D01*
X152249047Y-132217438D02*
X152296666Y-132265057D01*
X152296666Y-132265057D02*
X152344285Y-132360295D01*
X152344285Y-132360295D02*
X152344285Y-132455533D01*
X152344285Y-132455533D02*
X152296666Y-132598390D01*
X152296666Y-132598390D02*
X151725238Y-133169819D01*
X151725238Y-133169819D02*
X152344285Y-133169819D01*
%TO.C,FB1*%
X150296666Y-134551009D02*
X149963333Y-134551009D01*
X149963333Y-135074819D02*
X149963333Y-134074819D01*
X149963333Y-134074819D02*
X150439523Y-134074819D01*
X151153809Y-134551009D02*
X151296666Y-134598628D01*
X151296666Y-134598628D02*
X151344285Y-134646247D01*
X151344285Y-134646247D02*
X151391904Y-134741485D01*
X151391904Y-134741485D02*
X151391904Y-134884342D01*
X151391904Y-134884342D02*
X151344285Y-134979580D01*
X151344285Y-134979580D02*
X151296666Y-135027200D01*
X151296666Y-135027200D02*
X151201428Y-135074819D01*
X151201428Y-135074819D02*
X150820476Y-135074819D01*
X150820476Y-135074819D02*
X150820476Y-134074819D01*
X150820476Y-134074819D02*
X151153809Y-134074819D01*
X151153809Y-134074819D02*
X151249047Y-134122438D01*
X151249047Y-134122438D02*
X151296666Y-134170057D01*
X151296666Y-134170057D02*
X151344285Y-134265295D01*
X151344285Y-134265295D02*
X151344285Y-134360533D01*
X151344285Y-134360533D02*
X151296666Y-134455771D01*
X151296666Y-134455771D02*
X151249047Y-134503390D01*
X151249047Y-134503390D02*
X151153809Y-134551009D01*
X151153809Y-134551009D02*
X150820476Y-134551009D01*
X152344285Y-135074819D02*
X151772857Y-135074819D01*
X152058571Y-135074819D02*
X152058571Y-134074819D01*
X152058571Y-134074819D02*
X151963333Y-134217676D01*
X151963333Y-134217676D02*
X151868095Y-134312914D01*
X151868095Y-134312914D02*
X151772857Y-134360533D01*
%TO.C,L2*%
X143470391Y-116731735D02*
X143044491Y-116518740D01*
X143044491Y-116518740D02*
X143491782Y-115624351D01*
X144130622Y-116050324D02*
X144194512Y-116029034D01*
X144194512Y-116029034D02*
X144300991Y-116029043D01*
X144300991Y-116029043D02*
X144513941Y-116135541D01*
X144513941Y-116135541D02*
X144577821Y-116220730D01*
X144577821Y-116220730D02*
X144599111Y-116284619D01*
X144599111Y-116284619D02*
X144599102Y-116391099D01*
X144599102Y-116391099D02*
X144556503Y-116476278D01*
X144556503Y-116476278D02*
X144450014Y-116582749D01*
X144450014Y-116582749D02*
X143683341Y-116838233D01*
X143683341Y-116838233D02*
X144237010Y-117115127D01*
%TO.C,D2*%
X144676905Y-140154819D02*
X144676905Y-139154819D01*
X144676905Y-139154819D02*
X144915000Y-139154819D01*
X144915000Y-139154819D02*
X145057857Y-139202438D01*
X145057857Y-139202438D02*
X145153095Y-139297676D01*
X145153095Y-139297676D02*
X145200714Y-139392914D01*
X145200714Y-139392914D02*
X145248333Y-139583390D01*
X145248333Y-139583390D02*
X145248333Y-139726247D01*
X145248333Y-139726247D02*
X145200714Y-139916723D01*
X145200714Y-139916723D02*
X145153095Y-140011961D01*
X145153095Y-140011961D02*
X145057857Y-140107200D01*
X145057857Y-140107200D02*
X144915000Y-140154819D01*
X144915000Y-140154819D02*
X144676905Y-140154819D01*
X145629286Y-139250057D02*
X145676905Y-139202438D01*
X145676905Y-139202438D02*
X145772143Y-139154819D01*
X145772143Y-139154819D02*
X146010238Y-139154819D01*
X146010238Y-139154819D02*
X146105476Y-139202438D01*
X146105476Y-139202438D02*
X146153095Y-139250057D01*
X146153095Y-139250057D02*
X146200714Y-139345295D01*
X146200714Y-139345295D02*
X146200714Y-139440533D01*
X146200714Y-139440533D02*
X146153095Y-139583390D01*
X146153095Y-139583390D02*
X145581667Y-140154819D01*
X145581667Y-140154819D02*
X146200714Y-140154819D01*
%TO.C,D1*%
X141501905Y-138884819D02*
X141501905Y-137884819D01*
X141501905Y-137884819D02*
X141740000Y-137884819D01*
X141740000Y-137884819D02*
X141882857Y-137932438D01*
X141882857Y-137932438D02*
X141978095Y-138027676D01*
X141978095Y-138027676D02*
X142025714Y-138122914D01*
X142025714Y-138122914D02*
X142073333Y-138313390D01*
X142073333Y-138313390D02*
X142073333Y-138456247D01*
X142073333Y-138456247D02*
X142025714Y-138646723D01*
X142025714Y-138646723D02*
X141978095Y-138741961D01*
X141978095Y-138741961D02*
X141882857Y-138837200D01*
X141882857Y-138837200D02*
X141740000Y-138884819D01*
X141740000Y-138884819D02*
X141501905Y-138884819D01*
X143025714Y-138884819D02*
X142454286Y-138884819D01*
X142740000Y-138884819D02*
X142740000Y-137884819D01*
X142740000Y-137884819D02*
X142644762Y-138027676D01*
X142644762Y-138027676D02*
X142549524Y-138122914D01*
X142549524Y-138122914D02*
X142454286Y-138170533D01*
%TO.C,C15*%
X144858035Y-113081869D02*
X144794146Y-113103160D01*
X144794146Y-113103160D02*
X144645076Y-113081851D01*
X144645076Y-113081851D02*
X144559896Y-113039252D01*
X144559896Y-113039252D02*
X144453426Y-112932763D01*
X144453426Y-112932763D02*
X144410845Y-112804984D01*
X144410845Y-112804984D02*
X144410855Y-112698505D01*
X144410855Y-112698505D02*
X144453463Y-112506846D01*
X144453463Y-112506846D02*
X144517362Y-112379076D01*
X144517362Y-112379076D02*
X144645150Y-112230016D01*
X144645150Y-112230016D02*
X144730339Y-112166135D01*
X144730339Y-112166135D02*
X144858118Y-112123555D01*
X144858118Y-112123555D02*
X145007187Y-112144863D01*
X145007187Y-112144863D02*
X145092367Y-112187462D01*
X145092367Y-112187462D02*
X145198837Y-112293951D01*
X145198837Y-112293951D02*
X145220128Y-112357841D01*
X145667235Y-113593041D02*
X145156155Y-113337446D01*
X145411695Y-113465243D02*
X145858986Y-112570855D01*
X145858986Y-112570855D02*
X145709907Y-112656025D01*
X145709907Y-112656025D02*
X145582128Y-112698606D01*
X145582128Y-112698606D02*
X145475649Y-112698597D01*
X146923734Y-113103344D02*
X146497835Y-112890348D01*
X146497835Y-112890348D02*
X146242249Y-113294948D01*
X146242249Y-113294948D02*
X146306139Y-113273658D01*
X146306139Y-113273658D02*
X146412618Y-113273667D01*
X146412618Y-113273667D02*
X146625568Y-113380165D01*
X146625568Y-113380165D02*
X146689448Y-113465354D01*
X146689448Y-113465354D02*
X146710739Y-113529243D01*
X146710739Y-113529243D02*
X146710729Y-113635723D01*
X146710729Y-113635723D02*
X146604232Y-113848672D01*
X146604232Y-113848672D02*
X146519042Y-113912552D01*
X146519042Y-113912552D02*
X146455153Y-113933843D01*
X146455153Y-113933843D02*
X146348674Y-113933834D01*
X146348674Y-113933834D02*
X146135724Y-113827336D01*
X146135724Y-113827336D02*
X146071844Y-113742147D01*
X146071844Y-113742147D02*
X146050553Y-113678257D01*
%TO.C,C14*%
X145201569Y-115786944D02*
X145222860Y-115850833D01*
X145222860Y-115850833D02*
X145201551Y-115999903D01*
X145201551Y-115999903D02*
X145158952Y-116085083D01*
X145158952Y-116085083D02*
X145052463Y-116191553D01*
X145052463Y-116191553D02*
X144924684Y-116234134D01*
X144924684Y-116234134D02*
X144818205Y-116234124D01*
X144818205Y-116234124D02*
X144626546Y-116191516D01*
X144626546Y-116191516D02*
X144498776Y-116127617D01*
X144498776Y-116127617D02*
X144349716Y-115999829D01*
X144349716Y-115999829D02*
X144285835Y-115914640D01*
X144285835Y-115914640D02*
X144243255Y-115786861D01*
X144243255Y-115786861D02*
X144264563Y-115637792D01*
X144264563Y-115637792D02*
X144307162Y-115552612D01*
X144307162Y-115552612D02*
X144413651Y-115446142D01*
X144413651Y-115446142D02*
X144477541Y-115424851D01*
X145712741Y-114977744D02*
X145457146Y-115488824D01*
X145584943Y-115233284D02*
X144690555Y-114785993D01*
X144690555Y-114785993D02*
X144775725Y-114935072D01*
X144775725Y-114935072D02*
X144818306Y-115062851D01*
X144818306Y-115062851D02*
X144818297Y-115169330D01*
X145499874Y-113912932D02*
X146096133Y-114211126D01*
X145052656Y-113955485D02*
X145585008Y-114487928D01*
X145585008Y-114487928D02*
X145861902Y-113934259D01*
%TO.C,C11*%
X142232142Y-137519580D02*
X142184523Y-137567200D01*
X142184523Y-137567200D02*
X142041666Y-137614819D01*
X142041666Y-137614819D02*
X141946428Y-137614819D01*
X141946428Y-137614819D02*
X141803571Y-137567200D01*
X141803571Y-137567200D02*
X141708333Y-137471961D01*
X141708333Y-137471961D02*
X141660714Y-137376723D01*
X141660714Y-137376723D02*
X141613095Y-137186247D01*
X141613095Y-137186247D02*
X141613095Y-137043390D01*
X141613095Y-137043390D02*
X141660714Y-136852914D01*
X141660714Y-136852914D02*
X141708333Y-136757676D01*
X141708333Y-136757676D02*
X141803571Y-136662438D01*
X141803571Y-136662438D02*
X141946428Y-136614819D01*
X141946428Y-136614819D02*
X142041666Y-136614819D01*
X142041666Y-136614819D02*
X142184523Y-136662438D01*
X142184523Y-136662438D02*
X142232142Y-136710057D01*
X143184523Y-137614819D02*
X142613095Y-137614819D01*
X142898809Y-137614819D02*
X142898809Y-136614819D01*
X142898809Y-136614819D02*
X142803571Y-136757676D01*
X142803571Y-136757676D02*
X142708333Y-136852914D01*
X142708333Y-136852914D02*
X142613095Y-136900533D01*
X144136904Y-137614819D02*
X143565476Y-137614819D01*
X143851190Y-137614819D02*
X143851190Y-136614819D01*
X143851190Y-136614819D02*
X143755952Y-136757676D01*
X143755952Y-136757676D02*
X143660714Y-136852914D01*
X143660714Y-136852914D02*
X143565476Y-136900533D01*
%TO.C,C10*%
X146299580Y-136377857D02*
X146347200Y-136425476D01*
X146347200Y-136425476D02*
X146394819Y-136568333D01*
X146394819Y-136568333D02*
X146394819Y-136663571D01*
X146394819Y-136663571D02*
X146347200Y-136806428D01*
X146347200Y-136806428D02*
X146251961Y-136901666D01*
X146251961Y-136901666D02*
X146156723Y-136949285D01*
X146156723Y-136949285D02*
X145966247Y-136996904D01*
X145966247Y-136996904D02*
X145823390Y-136996904D01*
X145823390Y-136996904D02*
X145632914Y-136949285D01*
X145632914Y-136949285D02*
X145537676Y-136901666D01*
X145537676Y-136901666D02*
X145442438Y-136806428D01*
X145442438Y-136806428D02*
X145394819Y-136663571D01*
X145394819Y-136663571D02*
X145394819Y-136568333D01*
X145394819Y-136568333D02*
X145442438Y-136425476D01*
X145442438Y-136425476D02*
X145490057Y-136377857D01*
X146394819Y-135425476D02*
X146394819Y-135996904D01*
X146394819Y-135711190D02*
X145394819Y-135711190D01*
X145394819Y-135711190D02*
X145537676Y-135806428D01*
X145537676Y-135806428D02*
X145632914Y-135901666D01*
X145632914Y-135901666D02*
X145680533Y-135996904D01*
X145394819Y-134806428D02*
X145394819Y-134711190D01*
X145394819Y-134711190D02*
X145442438Y-134615952D01*
X145442438Y-134615952D02*
X145490057Y-134568333D01*
X145490057Y-134568333D02*
X145585295Y-134520714D01*
X145585295Y-134520714D02*
X145775771Y-134473095D01*
X145775771Y-134473095D02*
X146013866Y-134473095D01*
X146013866Y-134473095D02*
X146204342Y-134520714D01*
X146204342Y-134520714D02*
X146299580Y-134568333D01*
X146299580Y-134568333D02*
X146347200Y-134615952D01*
X146347200Y-134615952D02*
X146394819Y-134711190D01*
X146394819Y-134711190D02*
X146394819Y-134806428D01*
X146394819Y-134806428D02*
X146347200Y-134901666D01*
X146347200Y-134901666D02*
X146299580Y-134949285D01*
X146299580Y-134949285D02*
X146204342Y-134996904D01*
X146204342Y-134996904D02*
X146013866Y-135044523D01*
X146013866Y-135044523D02*
X145775771Y-135044523D01*
X145775771Y-135044523D02*
X145585295Y-134996904D01*
X145585295Y-134996904D02*
X145490057Y-134949285D01*
X145490057Y-134949285D02*
X145442438Y-134901666D01*
X145442438Y-134901666D02*
X145394819Y-134806428D01*
D12*
%TO.C,Y2*%
X133835506Y-118769751D02*
X133835506Y-119037363D01*
X133648178Y-118475378D02*
X133835506Y-118769751D01*
X133835506Y-118769751D02*
X134022835Y-118475378D01*
X134183401Y-118528900D02*
X134210162Y-118502139D01*
X134210162Y-118502139D02*
X134263685Y-118475378D01*
X134263685Y-118475378D02*
X134397491Y-118475378D01*
X134397491Y-118475378D02*
X134451013Y-118502139D01*
X134451013Y-118502139D02*
X134477774Y-118528900D01*
X134477774Y-118528900D02*
X134504536Y-118582422D01*
X134504536Y-118582422D02*
X134504536Y-118635945D01*
X134504536Y-118635945D02*
X134477774Y-118716228D01*
X134477774Y-118716228D02*
X134156640Y-119037363D01*
X134156640Y-119037363D02*
X134504536Y-119037363D01*
D13*
%TO.C,Y1*%
X142704809Y-135799121D02*
X142704809Y-136018829D01*
X142551013Y-135557441D02*
X142704809Y-135799121D01*
X142704809Y-135799121D02*
X142858605Y-135557441D01*
X143254080Y-136018829D02*
X142990430Y-136018829D01*
X143122255Y-136018829D02*
X143122255Y-135557441D01*
X143122255Y-135557441D02*
X143078313Y-135623354D01*
X143078313Y-135623354D02*
X143034372Y-135667296D01*
X143034372Y-135667296D02*
X142990430Y-135689267D01*
D11*
%TO.C,U2*%
X136268095Y-132224819D02*
X136268095Y-133034342D01*
X136268095Y-133034342D02*
X136315714Y-133129580D01*
X136315714Y-133129580D02*
X136363333Y-133177200D01*
X136363333Y-133177200D02*
X136458571Y-133224819D01*
X136458571Y-133224819D02*
X136649047Y-133224819D01*
X136649047Y-133224819D02*
X136744285Y-133177200D01*
X136744285Y-133177200D02*
X136791904Y-133129580D01*
X136791904Y-133129580D02*
X136839523Y-133034342D01*
X136839523Y-133034342D02*
X136839523Y-132224819D01*
X137268095Y-132320057D02*
X137315714Y-132272438D01*
X137315714Y-132272438D02*
X137410952Y-132224819D01*
X137410952Y-132224819D02*
X137649047Y-132224819D01*
X137649047Y-132224819D02*
X137744285Y-132272438D01*
X137744285Y-132272438D02*
X137791904Y-132320057D01*
X137791904Y-132320057D02*
X137839523Y-132415295D01*
X137839523Y-132415295D02*
X137839523Y-132510533D01*
X137839523Y-132510533D02*
X137791904Y-132653390D01*
X137791904Y-132653390D02*
X137220476Y-133224819D01*
X137220476Y-133224819D02*
X137839523Y-133224819D01*
D14*
%TO.C,AE1*%
X147813274Y-111566348D02*
X148311345Y-111815329D01*
X147564271Y-111815395D02*
X148435781Y-110943731D01*
X148435781Y-110943731D02*
X148261571Y-112163968D01*
X148884100Y-111790376D02*
X149232751Y-111964662D01*
X149108293Y-112587236D02*
X148610221Y-112338255D01*
X148610221Y-112338255D02*
X149133082Y-111292304D01*
X149133082Y-111292304D02*
X149631153Y-111541285D01*
X150104437Y-113085198D02*
X149506751Y-112786421D01*
X149805594Y-112935809D02*
X150328454Y-111889859D01*
X150328454Y-111889859D02*
X150154145Y-111989484D01*
X150154145Y-111989484D02*
X150004735Y-112039302D01*
X150004735Y-112039302D02*
X149880222Y-112039313D01*
D15*
%TO.C,IC1*%
X156900000Y-125245000D02*
X156900000Y-126295000D01*
X156875000Y-126645000D02*
X156875000Y-127395000D01*
X153975000Y-126645000D02*
X156875000Y-126645000D01*
X156875000Y-127395000D02*
X153975000Y-127395000D01*
X153975000Y-127395000D02*
X153975000Y-126645000D01*
D16*
%TO.C,J6*%
X144932838Y-120753065D02*
X144574026Y-121470848D01*
X151412004Y-122407157D02*
X150915685Y-123400015D01*
X150732210Y-122067335D02*
X151412004Y-122407157D01*
X150052415Y-121727513D02*
X145566665Y-119485132D01*
X145566665Y-119485132D02*
X145207853Y-120202915D01*
X149304148Y-123224377D02*
X149059776Y-123713229D01*
X150052415Y-121727513D02*
X149808043Y-122216365D01*
X149059776Y-123713229D02*
X144574026Y-121470848D01*
%TO.C,J2*%
X136175162Y-134840002D02*
X136593828Y-134488700D01*
X134893209Y-135915688D02*
X135311875Y-135564386D01*
X133916172Y-134751300D02*
X134766481Y-134037806D01*
X134893209Y-135915688D02*
X135667768Y-136838772D01*
X135667768Y-136838772D02*
X136282496Y-136322954D01*
X134404691Y-135333494D02*
X133916172Y-134751300D01*
X136593828Y-134488700D02*
X137368387Y-135411783D01*
X136753659Y-135927601D02*
X137368387Y-135411783D01*
%TO.C,J3*%
X151564852Y-136643186D02*
X152716666Y-135978186D01*
X148213334Y-138578186D02*
X149543334Y-140881814D01*
X150465000Y-137278186D02*
X148213334Y-138578186D01*
X150465000Y-137278186D02*
X151795000Y-139581814D01*
X152716666Y-135978186D02*
X153381666Y-137130000D01*
X151795000Y-139581814D02*
X149543334Y-140881814D01*
%TO.C,L1*%
X154842936Y-133440000D02*
X156047064Y-133440000D01*
X154842936Y-130720000D02*
X156047064Y-130720000D01*
%TO.C,C16*%
X152630000Y-125697836D02*
X152630000Y-125482164D01*
X151910000Y-125697836D02*
X151910000Y-125482164D01*
%TO.C,C13*%
X157480580Y-122680000D02*
X157199420Y-122680000D01*
X157480580Y-123700000D02*
X157199420Y-123700000D01*
%TO.C,J4*%
X139637122Y-118254840D02*
X138485308Y-118919840D01*
X142988640Y-116319840D02*
X141658640Y-114016212D01*
X140736974Y-117619840D02*
X142988640Y-116319840D01*
X140736974Y-117619840D02*
X139406974Y-115316212D01*
X138485308Y-118919840D02*
X137820308Y-117768026D01*
X139406974Y-115316212D02*
X141658640Y-114016212D01*
%TO.C,C17*%
X151255000Y-129259420D02*
X151255000Y-129540580D01*
X152275000Y-129259420D02*
X152275000Y-129540580D01*
%TO.C,C7*%
X159025000Y-125682836D02*
X159025000Y-125467164D01*
X159745000Y-125682836D02*
X159745000Y-125467164D01*
D17*
%TO.C,D2*%
X146555000Y-140970000D02*
G75*
G03*
X146555000Y-140970000I-50000J0D01*
G01*
%TO.C,D1*%
X143380000Y-139700000D02*
G75*
G03*
X143380000Y-139700000I-50000J0D01*
G01*
D16*
%TO.C,C15*%
X145139557Y-113715086D02*
X145332452Y-113811554D01*
X144817508Y-114359046D02*
X145010403Y-114455514D01*
%TO.C,C14*%
X146478746Y-115827472D02*
X146575214Y-115634577D01*
X145834786Y-115505423D02*
X145931254Y-115312528D01*
%TO.C,C11*%
X140227164Y-137520000D02*
X140442836Y-137520000D01*
X140227164Y-136800000D02*
X140442836Y-136800000D01*
%TO.C,C10*%
X144420000Y-135627164D02*
X144420000Y-135842836D01*
X145140000Y-135627164D02*
X145140000Y-135842836D01*
D15*
%TO.C,Y2*%
X133366724Y-121882381D02*
G75*
G03*
X133366724Y-121882381I-100000J0D01*
G01*
D18*
X135886724Y-119662381D02*
X135346724Y-119662381D01*
X135346724Y-122162381D02*
X135886724Y-122162381D01*
%TO.C,Y1*%
X142025000Y-135370000D02*
X141145000Y-135370000D01*
X142025000Y-133870000D02*
X141145000Y-133870000D01*
D16*
%TO.C,U2*%
X133420000Y-131560000D02*
X133420000Y-130910000D01*
X134070000Y-131560000D02*
X133420000Y-131560000D01*
X140640000Y-124340000D02*
X140640000Y-124990000D01*
X139990000Y-124340000D02*
X140640000Y-124340000D01*
X139990000Y-131560000D02*
X140640000Y-131560000D01*
X134070000Y-124340000D02*
X133420000Y-124340000D01*
X133420000Y-124340000D02*
X133420000Y-124990000D01*
%TO.C,AE1*%
G36*
X151998582Y-115540832D02*
G01*
X151819576Y-115898923D01*
X150832907Y-115405697D01*
X151011913Y-115047607D01*
X151998582Y-115540832D01*
G37*
%TD*%
%LPC*%
D19*
%TO.C,IC1*%
X156375000Y-125770000D03*
X155425000Y-125770000D03*
X154475000Y-125770000D03*
X154475000Y-128270000D03*
X156375000Y-128270000D03*
%TD*%
D20*
%TO.C,J6*%
X150235890Y-123060193D03*
D21*
X149099917Y-122492332D03*
X147963945Y-121924471D03*
X146827972Y-121356610D03*
X145692000Y-120788749D03*
%TD*%
D22*
%TO.C,J2*%
X135255000Y-134620000D03*
D23*
X136071340Y-135592876D03*
%TD*%
D24*
%TO.C,J3*%
X152229852Y-137795000D03*
D25*
X150030148Y-139065000D03*
%TD*%
D26*
%TO.C,L1*%
X154045000Y-132080000D03*
X156845000Y-132080000D03*
%TD*%
D27*
%TO.C,C16*%
X152270000Y-126070000D03*
X152270000Y-125110000D03*
%TD*%
D28*
%TO.C,C13*%
X158115000Y-123190000D03*
X156565000Y-123190000D03*
%TD*%
D29*
%TO.C,J4*%
X138972122Y-117103026D03*
D30*
X141171826Y-115833026D03*
%TD*%
D31*
%TO.C,C17*%
X151765000Y-128625000D03*
X151765000Y-130175000D03*
%TD*%
D27*
%TO.C,C7*%
X159385000Y-125095000D03*
X159385000Y-126055000D03*
%TD*%
D32*
%TO.C,FB2*%
X149225000Y-132715000D03*
X148255000Y-132715000D03*
%TD*%
%TO.C,FB1*%
X149225000Y-134620000D03*
X148255000Y-134620000D03*
%TD*%
D33*
%TO.C,L2*%
X143912444Y-115136128D03*
X144780000Y-115570000D03*
%TD*%
D34*
%TO.C,D2*%
X144930000Y-140970000D03*
X145900000Y-140970000D03*
%TD*%
%TO.C,D1*%
X142725000Y-139700000D03*
X141755000Y-139700000D03*
%TD*%
D35*
%TO.C,C15*%
X145504287Y-114300000D03*
X144645673Y-113870600D03*
%TD*%
D36*
%TO.C,C14*%
X145990300Y-115999307D03*
X146419700Y-115140693D03*
%TD*%
D37*
%TO.C,C11*%
X139855000Y-137160000D03*
X140815000Y-137160000D03*
%TD*%
D38*
%TO.C,C10*%
X144780000Y-135255000D03*
X144780000Y-136215000D03*
%TD*%
D39*
%TO.C,Y2*%
X134466724Y-120012381D03*
X136766724Y-120012381D03*
X136766724Y-121812381D03*
X134466724Y-121812381D03*
%TD*%
D40*
%TO.C,Y1*%
X142835000Y-134620000D03*
X140335000Y-134620000D03*
%TD*%
D41*
%TO.C,U2*%
X140467500Y-130550000D03*
X140467500Y-130150000D03*
X140467500Y-129750000D03*
X140467500Y-129350000D03*
X140467500Y-128950000D03*
X140467500Y-128550000D03*
X140467500Y-128150000D03*
X140467500Y-127750000D03*
X140467500Y-127350000D03*
X140467500Y-126950000D03*
X140467500Y-126550000D03*
X140467500Y-126150000D03*
X140467500Y-125750000D03*
X140467500Y-125350000D03*
D42*
X139630000Y-124512500D03*
X139230000Y-124512500D03*
X138830000Y-124512500D03*
X138430000Y-124512500D03*
X138030000Y-124512500D03*
X137630000Y-124512500D03*
X137230000Y-124512500D03*
X136830000Y-124512500D03*
X136430000Y-124512500D03*
X136030000Y-124512500D03*
X135630000Y-124512500D03*
X135230000Y-124512500D03*
X134830000Y-124512500D03*
X134430000Y-124512500D03*
D41*
X133592500Y-125350000D03*
X133592500Y-125750000D03*
X133592500Y-126150000D03*
X133592500Y-126550000D03*
X133592500Y-126950000D03*
X133592500Y-127350000D03*
X133592500Y-127750000D03*
X133592500Y-128150000D03*
X133592500Y-128550000D03*
X133592500Y-128950000D03*
X133592500Y-129350000D03*
X133592500Y-129750000D03*
X133592500Y-130150000D03*
X133592500Y-130550000D03*
D42*
X134430000Y-131387500D03*
X134830000Y-131387500D03*
X135230000Y-131387500D03*
X135630000Y-131387500D03*
X136030000Y-131387500D03*
X136430000Y-131387500D03*
X136830000Y-131387500D03*
X137230000Y-131387500D03*
X137630000Y-131387500D03*
X138030000Y-131387500D03*
X138430000Y-131387500D03*
X138830000Y-131387500D03*
X139230000Y-131387500D03*
X139630000Y-131387500D03*
D43*
X137030000Y-127950000D03*
%TD*%
D44*
%TO.C,AE1*%
X150209669Y-114870170D03*
X154860895Y-117195270D03*
D45*
X152155217Y-116793017D03*
X152915347Y-115272423D03*
%TD*%
%LPD*%
M02*
