%TF.GenerationSoftware,KiCad,Pcbnew,7.0.5-0*%
%TF.CreationDate,2023-09-08T15:05:08-04:00*%
%TF.ProjectId,rodentdbs,726f6465-6e74-4646-9273-2e6b69636164,rev?*%
%TF.SameCoordinates,Original*%
%TF.FileFunction,Legend,Bot*%
%TF.FilePolarity,Positive*%
%FSLAX46Y46*%
G04 Gerber Fmt 4.6, Leading zero omitted, Abs format (unit mm)*
G04 Created by KiCad (PCBNEW 7.0.5-0) date 2023-09-08 15:05:08*
%MOMM*%
%LPD*%
G01*
G04 APERTURE LIST*
G04 Aperture macros list*
%AMRoundRect*
0 Rectangle with rounded corners*
0 $1 Rounding radius*
0 $2 $3 $4 $5 $6 $7 $8 $9 X,Y pos of 4 corners*
0 Add a 4 corners polygon primitive as box body*
4,1,4,$2,$3,$4,$5,$6,$7,$8,$9,$2,$3,0*
0 Add four circle primitives for the rounded corners*
1,1,$1+$1,$2,$3*
1,1,$1+$1,$4,$5*
1,1,$1+$1,$6,$7*
1,1,$1+$1,$8,$9*
0 Add four rect primitives between the rounded corners*
20,1,$1+$1,$2,$3,$4,$5,0*
20,1,$1+$1,$4,$5,$6,$7,0*
20,1,$1+$1,$6,$7,$8,$9,0*
20,1,$1+$1,$8,$9,$2,$3,0*%
%AMHorizOval*
0 Thick line with rounded ends*
0 $1 width*
0 $2 $3 position (X,Y) of the first rounded end (center of the circle)*
0 $4 $5 position (X,Y) of the second rounded end (center of the circle)*
0 Add line between two ends*
20,1,$1,$2,$3,$4,$5,0*
0 Add two circle primitives to create the rounded ends*
1,1,$1,$2,$3*
1,1,$1,$4,$5*%
%AMRotRect*
0 Rectangle, with rotation*
0 The origin of the aperture is its center*
0 $1 length*
0 $2 width*
0 $3 Rotation angle, in degrees counterclockwise*
0 Add horizontal line*
21,1,$1,$2,0,0,$3*%
G04 Aperture macros list end*
%ADD10C,0.150000*%
%ADD11C,0.120000*%
%ADD12RotRect,1.000000X1.000000X243.440000*%
%ADD13HorizOval,1.000000X0.000000X0.000000X0.000000X0.000000X0*%
%ADD14RotRect,1.000000X1.000000X40.000000*%
%ADD15HorizOval,1.000000X0.000000X0.000000X0.000000X0.000000X0*%
%ADD16RotRect,1.700000X1.700000X300.000000*%
%ADD17HorizOval,1.700000X0.000000X0.000000X0.000000X0.000000X0*%
%ADD18RotRect,1.700000X1.700000X120.000000*%
%ADD19HorizOval,1.700000X0.000000X0.000000X0.000000X0.000000X0*%
%ADD20RoundRect,0.135000X0.185000X-0.135000X0.185000X0.135000X-0.185000X0.135000X-0.185000X-0.135000X0*%
%ADD21RoundRect,0.135000X0.135000X0.185000X-0.135000X0.185000X-0.135000X-0.185000X0.135000X-0.185000X0*%
%ADD22RoundRect,0.140000X0.140000X0.170000X-0.140000X0.170000X-0.140000X-0.170000X0.140000X-0.170000X0*%
%ADD23RoundRect,0.140000X0.170000X-0.140000X0.170000X0.140000X-0.170000X0.140000X-0.170000X-0.140000X0*%
%ADD24RoundRect,0.140000X-0.140000X-0.170000X0.140000X-0.170000X0.140000X0.170000X-0.140000X0.170000X0*%
%ADD25RoundRect,0.140000X-0.170000X0.140000X-0.170000X-0.140000X0.170000X-0.140000X0.170000X0.140000X0*%
G04 APERTURE END LIST*
D10*
%TO.C,R3*%
X144499819Y-131403333D02*
X144023628Y-131070000D01*
X144499819Y-130831905D02*
X143499819Y-130831905D01*
X143499819Y-130831905D02*
X143499819Y-131212857D01*
X143499819Y-131212857D02*
X143547438Y-131308095D01*
X143547438Y-131308095D02*
X143595057Y-131355714D01*
X143595057Y-131355714D02*
X143690295Y-131403333D01*
X143690295Y-131403333D02*
X143833152Y-131403333D01*
X143833152Y-131403333D02*
X143928390Y-131355714D01*
X143928390Y-131355714D02*
X143976009Y-131308095D01*
X143976009Y-131308095D02*
X144023628Y-131212857D01*
X144023628Y-131212857D02*
X144023628Y-130831905D01*
X143499819Y-131736667D02*
X143499819Y-132355714D01*
X143499819Y-132355714D02*
X143880771Y-132022381D01*
X143880771Y-132022381D02*
X143880771Y-132165238D01*
X143880771Y-132165238D02*
X143928390Y-132260476D01*
X143928390Y-132260476D02*
X143976009Y-132308095D01*
X143976009Y-132308095D02*
X144071247Y-132355714D01*
X144071247Y-132355714D02*
X144309342Y-132355714D01*
X144309342Y-132355714D02*
X144404580Y-132308095D01*
X144404580Y-132308095D02*
X144452200Y-132260476D01*
X144452200Y-132260476D02*
X144499819Y-132165238D01*
X144499819Y-132165238D02*
X144499819Y-131879524D01*
X144499819Y-131879524D02*
X144452200Y-131784286D01*
X144452200Y-131784286D02*
X144404580Y-131736667D01*
%TO.C,R2*%
X145581666Y-138984819D02*
X145914999Y-138508628D01*
X146153094Y-138984819D02*
X146153094Y-137984819D01*
X146153094Y-137984819D02*
X145772142Y-137984819D01*
X145772142Y-137984819D02*
X145676904Y-138032438D01*
X145676904Y-138032438D02*
X145629285Y-138080057D01*
X145629285Y-138080057D02*
X145581666Y-138175295D01*
X145581666Y-138175295D02*
X145581666Y-138318152D01*
X145581666Y-138318152D02*
X145629285Y-138413390D01*
X145629285Y-138413390D02*
X145676904Y-138461009D01*
X145676904Y-138461009D02*
X145772142Y-138508628D01*
X145772142Y-138508628D02*
X146153094Y-138508628D01*
X145200713Y-138080057D02*
X145153094Y-138032438D01*
X145153094Y-138032438D02*
X145057856Y-137984819D01*
X145057856Y-137984819D02*
X144819761Y-137984819D01*
X144819761Y-137984819D02*
X144724523Y-138032438D01*
X144724523Y-138032438D02*
X144676904Y-138080057D01*
X144676904Y-138080057D02*
X144629285Y-138175295D01*
X144629285Y-138175295D02*
X144629285Y-138270533D01*
X144629285Y-138270533D02*
X144676904Y-138413390D01*
X144676904Y-138413390D02*
X145248332Y-138984819D01*
X145248332Y-138984819D02*
X144629285Y-138984819D01*
%TO.C,R1*%
X142406666Y-137714819D02*
X142739999Y-137238628D01*
X142978094Y-137714819D02*
X142978094Y-136714819D01*
X142978094Y-136714819D02*
X142597142Y-136714819D01*
X142597142Y-136714819D02*
X142501904Y-136762438D01*
X142501904Y-136762438D02*
X142454285Y-136810057D01*
X142454285Y-136810057D02*
X142406666Y-136905295D01*
X142406666Y-136905295D02*
X142406666Y-137048152D01*
X142406666Y-137048152D02*
X142454285Y-137143390D01*
X142454285Y-137143390D02*
X142501904Y-137191009D01*
X142501904Y-137191009D02*
X142597142Y-137238628D01*
X142597142Y-137238628D02*
X142978094Y-137238628D01*
X141454285Y-137714819D02*
X142025713Y-137714819D01*
X141739999Y-137714819D02*
X141739999Y-136714819D01*
X141739999Y-136714819D02*
X141835237Y-136857676D01*
X141835237Y-136857676D02*
X141930475Y-136952914D01*
X141930475Y-136952914D02*
X142025713Y-137000533D01*
%TO.C,C12*%
X138143027Y-128713817D02*
X138190646Y-128761437D01*
X138190646Y-128761437D02*
X138333503Y-128809056D01*
X138333503Y-128809056D02*
X138428741Y-128809056D01*
X138428741Y-128809056D02*
X138571598Y-128761437D01*
X138571598Y-128761437D02*
X138666836Y-128666198D01*
X138666836Y-128666198D02*
X138714455Y-128570960D01*
X138714455Y-128570960D02*
X138762074Y-128380484D01*
X138762074Y-128380484D02*
X138762074Y-128237627D01*
X138762074Y-128237627D02*
X138714455Y-128047151D01*
X138714455Y-128047151D02*
X138666836Y-127951913D01*
X138666836Y-127951913D02*
X138571598Y-127856675D01*
X138571598Y-127856675D02*
X138428741Y-127809056D01*
X138428741Y-127809056D02*
X138333503Y-127809056D01*
X138333503Y-127809056D02*
X138190646Y-127856675D01*
X138190646Y-127856675D02*
X138143027Y-127904294D01*
X137190646Y-128809056D02*
X137762074Y-128809056D01*
X137476360Y-128809056D02*
X137476360Y-127809056D01*
X137476360Y-127809056D02*
X137571598Y-127951913D01*
X137571598Y-127951913D02*
X137666836Y-128047151D01*
X137666836Y-128047151D02*
X137762074Y-128094770D01*
X136809693Y-127904294D02*
X136762074Y-127856675D01*
X136762074Y-127856675D02*
X136666836Y-127809056D01*
X136666836Y-127809056D02*
X136428741Y-127809056D01*
X136428741Y-127809056D02*
X136333503Y-127856675D01*
X136333503Y-127856675D02*
X136285884Y-127904294D01*
X136285884Y-127904294D02*
X136238265Y-127999532D01*
X136238265Y-127999532D02*
X136238265Y-128094770D01*
X136238265Y-128094770D02*
X136285884Y-128237627D01*
X136285884Y-128237627D02*
X136857312Y-128809056D01*
X136857312Y-128809056D02*
X136238265Y-128809056D01*
%TO.C,C9*%
X133849790Y-130884426D02*
X133897410Y-130836807D01*
X133897410Y-130836807D02*
X133945029Y-130693950D01*
X133945029Y-130693950D02*
X133945029Y-130598712D01*
X133945029Y-130598712D02*
X133897410Y-130455855D01*
X133897410Y-130455855D02*
X133802171Y-130360617D01*
X133802171Y-130360617D02*
X133706933Y-130312998D01*
X133706933Y-130312998D02*
X133516457Y-130265379D01*
X133516457Y-130265379D02*
X133373600Y-130265379D01*
X133373600Y-130265379D02*
X133183124Y-130312998D01*
X133183124Y-130312998D02*
X133087886Y-130360617D01*
X133087886Y-130360617D02*
X132992648Y-130455855D01*
X132992648Y-130455855D02*
X132945029Y-130598712D01*
X132945029Y-130598712D02*
X132945029Y-130693950D01*
X132945029Y-130693950D02*
X132992648Y-130836807D01*
X132992648Y-130836807D02*
X133040267Y-130884426D01*
X133945029Y-131360617D02*
X133945029Y-131551093D01*
X133945029Y-131551093D02*
X133897410Y-131646331D01*
X133897410Y-131646331D02*
X133849790Y-131693950D01*
X133849790Y-131693950D02*
X133706933Y-131789188D01*
X133706933Y-131789188D02*
X133516457Y-131836807D01*
X133516457Y-131836807D02*
X133135505Y-131836807D01*
X133135505Y-131836807D02*
X133040267Y-131789188D01*
X133040267Y-131789188D02*
X132992648Y-131741569D01*
X132992648Y-131741569D02*
X132945029Y-131646331D01*
X132945029Y-131646331D02*
X132945029Y-131455855D01*
X132945029Y-131455855D02*
X132992648Y-131360617D01*
X132992648Y-131360617D02*
X133040267Y-131312998D01*
X133040267Y-131312998D02*
X133135505Y-131265379D01*
X133135505Y-131265379D02*
X133373600Y-131265379D01*
X133373600Y-131265379D02*
X133468838Y-131312998D01*
X133468838Y-131312998D02*
X133516457Y-131360617D01*
X133516457Y-131360617D02*
X133564076Y-131455855D01*
X133564076Y-131455855D02*
X133564076Y-131646331D01*
X133564076Y-131646331D02*
X133516457Y-131741569D01*
X133516457Y-131741569D02*
X133468838Y-131789188D01*
X133468838Y-131789188D02*
X133373600Y-131836807D01*
%TO.C,C8*%
X140584580Y-131373333D02*
X140632200Y-131325714D01*
X140632200Y-131325714D02*
X140679819Y-131182857D01*
X140679819Y-131182857D02*
X140679819Y-131087619D01*
X140679819Y-131087619D02*
X140632200Y-130944762D01*
X140632200Y-130944762D02*
X140536961Y-130849524D01*
X140536961Y-130849524D02*
X140441723Y-130801905D01*
X140441723Y-130801905D02*
X140251247Y-130754286D01*
X140251247Y-130754286D02*
X140108390Y-130754286D01*
X140108390Y-130754286D02*
X139917914Y-130801905D01*
X139917914Y-130801905D02*
X139822676Y-130849524D01*
X139822676Y-130849524D02*
X139727438Y-130944762D01*
X139727438Y-130944762D02*
X139679819Y-131087619D01*
X139679819Y-131087619D02*
X139679819Y-131182857D01*
X139679819Y-131182857D02*
X139727438Y-131325714D01*
X139727438Y-131325714D02*
X139775057Y-131373333D01*
X140108390Y-131944762D02*
X140060771Y-131849524D01*
X140060771Y-131849524D02*
X140013152Y-131801905D01*
X140013152Y-131801905D02*
X139917914Y-131754286D01*
X139917914Y-131754286D02*
X139870295Y-131754286D01*
X139870295Y-131754286D02*
X139775057Y-131801905D01*
X139775057Y-131801905D02*
X139727438Y-131849524D01*
X139727438Y-131849524D02*
X139679819Y-131944762D01*
X139679819Y-131944762D02*
X139679819Y-132135238D01*
X139679819Y-132135238D02*
X139727438Y-132230476D01*
X139727438Y-132230476D02*
X139775057Y-132278095D01*
X139775057Y-132278095D02*
X139870295Y-132325714D01*
X139870295Y-132325714D02*
X139917914Y-132325714D01*
X139917914Y-132325714D02*
X140013152Y-132278095D01*
X140013152Y-132278095D02*
X140060771Y-132230476D01*
X140060771Y-132230476D02*
X140108390Y-132135238D01*
X140108390Y-132135238D02*
X140108390Y-131944762D01*
X140108390Y-131944762D02*
X140156009Y-131849524D01*
X140156009Y-131849524D02*
X140203628Y-131801905D01*
X140203628Y-131801905D02*
X140298866Y-131754286D01*
X140298866Y-131754286D02*
X140489342Y-131754286D01*
X140489342Y-131754286D02*
X140584580Y-131801905D01*
X140584580Y-131801905D02*
X140632200Y-131849524D01*
X140632200Y-131849524D02*
X140679819Y-131944762D01*
X140679819Y-131944762D02*
X140679819Y-132135238D01*
X140679819Y-132135238D02*
X140632200Y-132230476D01*
X140632200Y-132230476D02*
X140584580Y-132278095D01*
X140584580Y-132278095D02*
X140489342Y-132325714D01*
X140489342Y-132325714D02*
X140298866Y-132325714D01*
X140298866Y-132325714D02*
X140203628Y-132278095D01*
X140203628Y-132278095D02*
X140156009Y-132230476D01*
X140156009Y-132230476D02*
X140108390Y-132135238D01*
%TO.C,C6*%
X138130140Y-127085234D02*
X138177759Y-127132854D01*
X138177759Y-127132854D02*
X138320616Y-127180473D01*
X138320616Y-127180473D02*
X138415854Y-127180473D01*
X138415854Y-127180473D02*
X138558711Y-127132854D01*
X138558711Y-127132854D02*
X138653949Y-127037615D01*
X138653949Y-127037615D02*
X138701568Y-126942377D01*
X138701568Y-126942377D02*
X138749187Y-126751901D01*
X138749187Y-126751901D02*
X138749187Y-126609044D01*
X138749187Y-126609044D02*
X138701568Y-126418568D01*
X138701568Y-126418568D02*
X138653949Y-126323330D01*
X138653949Y-126323330D02*
X138558711Y-126228092D01*
X138558711Y-126228092D02*
X138415854Y-126180473D01*
X138415854Y-126180473D02*
X138320616Y-126180473D01*
X138320616Y-126180473D02*
X138177759Y-126228092D01*
X138177759Y-126228092D02*
X138130140Y-126275711D01*
X137272997Y-126180473D02*
X137463473Y-126180473D01*
X137463473Y-126180473D02*
X137558711Y-126228092D01*
X137558711Y-126228092D02*
X137606330Y-126275711D01*
X137606330Y-126275711D02*
X137701568Y-126418568D01*
X137701568Y-126418568D02*
X137749187Y-126609044D01*
X137749187Y-126609044D02*
X137749187Y-126989996D01*
X137749187Y-126989996D02*
X137701568Y-127085234D01*
X137701568Y-127085234D02*
X137653949Y-127132854D01*
X137653949Y-127132854D02*
X137558711Y-127180473D01*
X137558711Y-127180473D02*
X137368235Y-127180473D01*
X137368235Y-127180473D02*
X137272997Y-127132854D01*
X137272997Y-127132854D02*
X137225378Y-127085234D01*
X137225378Y-127085234D02*
X137177759Y-126989996D01*
X137177759Y-126989996D02*
X137177759Y-126751901D01*
X137177759Y-126751901D02*
X137225378Y-126656663D01*
X137225378Y-126656663D02*
X137272997Y-126609044D01*
X137272997Y-126609044D02*
X137368235Y-126561425D01*
X137368235Y-126561425D02*
X137558711Y-126561425D01*
X137558711Y-126561425D02*
X137653949Y-126609044D01*
X137653949Y-126609044D02*
X137701568Y-126656663D01*
X137701568Y-126656663D02*
X137749187Y-126751901D01*
%TO.C,C5*%
X140021666Y-124347080D02*
X140069285Y-124394700D01*
X140069285Y-124394700D02*
X140212142Y-124442319D01*
X140212142Y-124442319D02*
X140307380Y-124442319D01*
X140307380Y-124442319D02*
X140450237Y-124394700D01*
X140450237Y-124394700D02*
X140545475Y-124299461D01*
X140545475Y-124299461D02*
X140593094Y-124204223D01*
X140593094Y-124204223D02*
X140640713Y-124013747D01*
X140640713Y-124013747D02*
X140640713Y-123870890D01*
X140640713Y-123870890D02*
X140593094Y-123680414D01*
X140593094Y-123680414D02*
X140545475Y-123585176D01*
X140545475Y-123585176D02*
X140450237Y-123489938D01*
X140450237Y-123489938D02*
X140307380Y-123442319D01*
X140307380Y-123442319D02*
X140212142Y-123442319D01*
X140212142Y-123442319D02*
X140069285Y-123489938D01*
X140069285Y-123489938D02*
X140021666Y-123537557D01*
X139116904Y-123442319D02*
X139593094Y-123442319D01*
X139593094Y-123442319D02*
X139640713Y-123918509D01*
X139640713Y-123918509D02*
X139593094Y-123870890D01*
X139593094Y-123870890D02*
X139497856Y-123823271D01*
X139497856Y-123823271D02*
X139259761Y-123823271D01*
X139259761Y-123823271D02*
X139164523Y-123870890D01*
X139164523Y-123870890D02*
X139116904Y-123918509D01*
X139116904Y-123918509D02*
X139069285Y-124013747D01*
X139069285Y-124013747D02*
X139069285Y-124251842D01*
X139069285Y-124251842D02*
X139116904Y-124347080D01*
X139116904Y-124347080D02*
X139164523Y-124394700D01*
X139164523Y-124394700D02*
X139259761Y-124442319D01*
X139259761Y-124442319D02*
X139497856Y-124442319D01*
X139497856Y-124442319D02*
X139593094Y-124394700D01*
X139593094Y-124394700D02*
X139640713Y-124347080D01*
%TO.C,C4*%
X137409580Y-130850833D02*
X137457200Y-130803214D01*
X137457200Y-130803214D02*
X137504819Y-130660357D01*
X137504819Y-130660357D02*
X137504819Y-130565119D01*
X137504819Y-130565119D02*
X137457200Y-130422262D01*
X137457200Y-130422262D02*
X137361961Y-130327024D01*
X137361961Y-130327024D02*
X137266723Y-130279405D01*
X137266723Y-130279405D02*
X137076247Y-130231786D01*
X137076247Y-130231786D02*
X136933390Y-130231786D01*
X136933390Y-130231786D02*
X136742914Y-130279405D01*
X136742914Y-130279405D02*
X136647676Y-130327024D01*
X136647676Y-130327024D02*
X136552438Y-130422262D01*
X136552438Y-130422262D02*
X136504819Y-130565119D01*
X136504819Y-130565119D02*
X136504819Y-130660357D01*
X136504819Y-130660357D02*
X136552438Y-130803214D01*
X136552438Y-130803214D02*
X136600057Y-130850833D01*
X136838152Y-131707976D02*
X137504819Y-131707976D01*
X136457200Y-131469881D02*
X137171485Y-131231786D01*
X137171485Y-131231786D02*
X137171485Y-131850833D01*
%TO.C,C3*%
X134094669Y-127498777D02*
X134142288Y-127546397D01*
X134142288Y-127546397D02*
X134285145Y-127594016D01*
X134285145Y-127594016D02*
X134380383Y-127594016D01*
X134380383Y-127594016D02*
X134523240Y-127546397D01*
X134523240Y-127546397D02*
X134618478Y-127451158D01*
X134618478Y-127451158D02*
X134666097Y-127355920D01*
X134666097Y-127355920D02*
X134713716Y-127165444D01*
X134713716Y-127165444D02*
X134713716Y-127022587D01*
X134713716Y-127022587D02*
X134666097Y-126832111D01*
X134666097Y-126832111D02*
X134618478Y-126736873D01*
X134618478Y-126736873D02*
X134523240Y-126641635D01*
X134523240Y-126641635D02*
X134380383Y-126594016D01*
X134380383Y-126594016D02*
X134285145Y-126594016D01*
X134285145Y-126594016D02*
X134142288Y-126641635D01*
X134142288Y-126641635D02*
X134094669Y-126689254D01*
X133761335Y-126594016D02*
X133142288Y-126594016D01*
X133142288Y-126594016D02*
X133475621Y-126974968D01*
X133475621Y-126974968D02*
X133332764Y-126974968D01*
X133332764Y-126974968D02*
X133237526Y-127022587D01*
X133237526Y-127022587D02*
X133189907Y-127070206D01*
X133189907Y-127070206D02*
X133142288Y-127165444D01*
X133142288Y-127165444D02*
X133142288Y-127403539D01*
X133142288Y-127403539D02*
X133189907Y-127498777D01*
X133189907Y-127498777D02*
X133237526Y-127546397D01*
X133237526Y-127546397D02*
X133332764Y-127594016D01*
X133332764Y-127594016D02*
X133618478Y-127594016D01*
X133618478Y-127594016D02*
X133713716Y-127546397D01*
X133713716Y-127546397D02*
X133761335Y-127498777D01*
%TO.C,C2*%
X135089580Y-124825833D02*
X135137200Y-124778214D01*
X135137200Y-124778214D02*
X135184819Y-124635357D01*
X135184819Y-124635357D02*
X135184819Y-124540119D01*
X135184819Y-124540119D02*
X135137200Y-124397262D01*
X135137200Y-124397262D02*
X135041961Y-124302024D01*
X135041961Y-124302024D02*
X134946723Y-124254405D01*
X134946723Y-124254405D02*
X134756247Y-124206786D01*
X134756247Y-124206786D02*
X134613390Y-124206786D01*
X134613390Y-124206786D02*
X134422914Y-124254405D01*
X134422914Y-124254405D02*
X134327676Y-124302024D01*
X134327676Y-124302024D02*
X134232438Y-124397262D01*
X134232438Y-124397262D02*
X134184819Y-124540119D01*
X134184819Y-124540119D02*
X134184819Y-124635357D01*
X134184819Y-124635357D02*
X134232438Y-124778214D01*
X134232438Y-124778214D02*
X134280057Y-124825833D01*
X134280057Y-125206786D02*
X134232438Y-125254405D01*
X134232438Y-125254405D02*
X134184819Y-125349643D01*
X134184819Y-125349643D02*
X134184819Y-125587738D01*
X134184819Y-125587738D02*
X134232438Y-125682976D01*
X134232438Y-125682976D02*
X134280057Y-125730595D01*
X134280057Y-125730595D02*
X134375295Y-125778214D01*
X134375295Y-125778214D02*
X134470533Y-125778214D01*
X134470533Y-125778214D02*
X134613390Y-125730595D01*
X134613390Y-125730595D02*
X135184819Y-125159167D01*
X135184819Y-125159167D02*
X135184819Y-125778214D01*
%TO.C,C1*%
X141771666Y-129899580D02*
X141819285Y-129947200D01*
X141819285Y-129947200D02*
X141962142Y-129994819D01*
X141962142Y-129994819D02*
X142057380Y-129994819D01*
X142057380Y-129994819D02*
X142200237Y-129947200D01*
X142200237Y-129947200D02*
X142295475Y-129851961D01*
X142295475Y-129851961D02*
X142343094Y-129756723D01*
X142343094Y-129756723D02*
X142390713Y-129566247D01*
X142390713Y-129566247D02*
X142390713Y-129423390D01*
X142390713Y-129423390D02*
X142343094Y-129232914D01*
X142343094Y-129232914D02*
X142295475Y-129137676D01*
X142295475Y-129137676D02*
X142200237Y-129042438D01*
X142200237Y-129042438D02*
X142057380Y-128994819D01*
X142057380Y-128994819D02*
X141962142Y-128994819D01*
X141962142Y-128994819D02*
X141819285Y-129042438D01*
X141819285Y-129042438D02*
X141771666Y-129090057D01*
X140819285Y-129994819D02*
X141390713Y-129994819D01*
X141104999Y-129994819D02*
X141104999Y-128994819D01*
X141104999Y-128994819D02*
X141200237Y-129137676D01*
X141200237Y-129137676D02*
X141295475Y-129232914D01*
X141295475Y-129232914D02*
X141390713Y-129280533D01*
D11*
%TO.C,R3*%
X142495000Y-131723641D02*
X142495000Y-131416359D01*
X143255000Y-131723641D02*
X143255000Y-131416359D01*
%TO.C,R2*%
X145568641Y-140080000D02*
X145261359Y-140080000D01*
X145568641Y-139320000D02*
X145261359Y-139320000D01*
%TO.C,R1*%
X142393641Y-138810000D02*
X142086359Y-138810000D01*
X142393641Y-138050000D02*
X142086359Y-138050000D01*
%TO.C,C12*%
X139962836Y-128682500D02*
X139747164Y-128682500D01*
X139962836Y-127962500D02*
X139747164Y-127962500D01*
%TO.C,C9*%
X134260000Y-131125336D02*
X134260000Y-130909664D01*
X134980000Y-131125336D02*
X134980000Y-130909664D01*
%TO.C,C8*%
X138705000Y-131647836D02*
X138705000Y-131432164D01*
X139425000Y-131647836D02*
X139425000Y-131432164D01*
%TO.C,C6*%
X139962836Y-126975000D02*
X139747164Y-126975000D01*
X139962836Y-126255000D02*
X139747164Y-126255000D01*
%TO.C,C5*%
X139962836Y-125507500D02*
X139747164Y-125507500D01*
X139962836Y-124787500D02*
X139747164Y-124787500D01*
%TO.C,C4*%
X135530000Y-131125336D02*
X135530000Y-130909664D01*
X136250000Y-131125336D02*
X136250000Y-130909664D01*
%TO.C,C3*%
X133722164Y-128682500D02*
X133937836Y-128682500D01*
X133722164Y-127962500D02*
X133937836Y-127962500D01*
%TO.C,C2*%
X136250000Y-124884664D02*
X136250000Y-125100336D01*
X135530000Y-124884664D02*
X135530000Y-125100336D01*
%TO.C,C1*%
X139962836Y-129232500D02*
X139747164Y-129232500D01*
X139962836Y-129952500D02*
X139747164Y-129952500D01*
%TD*%
%LPC*%
D12*
%TO.C,J6*%
X150235890Y-123060193D03*
D13*
X149099917Y-122492332D03*
X147963945Y-121924471D03*
X146827972Y-121356610D03*
X145692000Y-120788749D03*
%TD*%
D14*
%TO.C,J2*%
X135255000Y-134620000D03*
D15*
X136071340Y-135592876D03*
%TD*%
D16*
%TO.C,J3*%
X152229852Y-137795000D03*
D17*
X150030148Y-139065000D03*
%TD*%
D18*
%TO.C,J4*%
X138972122Y-117103026D03*
D19*
X141171826Y-115833026D03*
%TD*%
D20*
%TO.C,R3*%
X142875000Y-131060000D03*
X142875000Y-132080000D03*
%TD*%
D21*
%TO.C,R2*%
X144905000Y-139700000D03*
X145925000Y-139700000D03*
%TD*%
%TO.C,R1*%
X141730000Y-138430000D03*
X142750000Y-138430000D03*
%TD*%
D22*
%TO.C,C12*%
X140335000Y-128322500D03*
X139375000Y-128322500D03*
%TD*%
D23*
%TO.C,C9*%
X134620000Y-131497500D03*
X134620000Y-130537500D03*
%TD*%
%TO.C,C8*%
X139065000Y-132020000D03*
X139065000Y-131060000D03*
%TD*%
D22*
%TO.C,C6*%
X140335000Y-126615000D03*
X139375000Y-126615000D03*
%TD*%
%TO.C,C5*%
X140335000Y-125147500D03*
X139375000Y-125147500D03*
%TD*%
D23*
%TO.C,C4*%
X135890000Y-131497500D03*
X135890000Y-130537500D03*
%TD*%
D24*
%TO.C,C3*%
X134310000Y-128322500D03*
X133350000Y-128322500D03*
%TD*%
D25*
%TO.C,C2*%
X135890000Y-124512500D03*
X135890000Y-125472500D03*
%TD*%
D22*
%TO.C,C1*%
X139375000Y-129592500D03*
X140335000Y-129592500D03*
%TD*%
%LPD*%
M02*
