G04 #@! TF.GenerationSoftware,KiCad,Pcbnew,7.0.5-0*
G04 #@! TF.CreationDate,2023-10-10T23:47:46-04:00*
G04 #@! TF.ProjectId,batterymodule,62617474-6572-4796-9d6f-64756c652e6b,rev?*
G04 #@! TF.SameCoordinates,Original*
G04 #@! TF.FileFunction,Copper,L1,Top*
G04 #@! TF.FilePolarity,Positive*
%FSLAX46Y46*%
G04 Gerber Fmt 4.6, Leading zero omitted, Abs format (unit mm)*
G04 Created by KiCad (PCBNEW 7.0.5-0) date 2023-10-10 23:47:46*
%MOMM*%
%LPD*%
G01*
G04 APERTURE LIST*
G04 Aperture macros list*
%AMHorizOval*
0 Thick line with rounded ends*
0 $1 width*
0 $2 $3 position (X,Y) of the first rounded end (center of the circle)*
0 $4 $5 position (X,Y) of the second rounded end (center of the circle)*
0 Add line between two ends*
20,1,$1,$2,$3,$4,$5,0*
0 Add two circle primitives to create the rounded ends*
1,1,$1,$2,$3*
1,1,$1,$4,$5*%
%AMRotRect*
0 Rectangle, with rotation*
0 The origin of the aperture is its center*
0 $1 length*
0 $2 width*
0 $3 Rotation angle, in degrees counterclockwise*
0 Add horizontal line*
21,1,$1,$2,0,0,$3*%
G04 Aperture macros list end*
G04 #@! TA.AperFunction,ComponentPad*
%ADD10C,1.650000*%
G04 #@! TD*
G04 #@! TA.AperFunction,ComponentPad*
%ADD11RotRect,1.700000X1.700000X120.000000*%
G04 #@! TD*
G04 #@! TA.AperFunction,ComponentPad*
%ADD12HorizOval,1.700000X0.000000X0.000000X0.000000X0.000000X0*%
G04 #@! TD*
G04 #@! TA.AperFunction,ComponentPad*
%ADD13RotRect,1.700000X1.700000X300.000000*%
G04 #@! TD*
G04 #@! TA.AperFunction,ComponentPad*
%ADD14HorizOval,1.700000X0.000000X0.000000X0.000000X0.000000X0*%
G04 #@! TD*
G04 #@! TA.AperFunction,ViaPad*
%ADD15C,0.600000*%
G04 #@! TD*
G04 APERTURE END LIST*
D10*
X132500000Y-125750000D03*
X132500000Y-128250000D03*
X159600000Y-127000000D03*
D11*
X138972122Y-117103026D03*
D12*
X141171826Y-115833026D03*
D13*
X152229852Y-137795000D03*
D14*
X150030148Y-139065000D03*
D15*
X142875000Y-131445000D03*
X153670000Y-128270000D03*
X135890000Y-121285000D03*
X139065000Y-135890000D03*
X149225000Y-121285000D03*
G04 #@! TA.AperFunction,Conductor*
G36*
X146819028Y-111804988D02*
G01*
X146822163Y-111805147D01*
X147060054Y-111823263D01*
X147587676Y-111863443D01*
X147590769Y-111863757D01*
X148352353Y-111960752D01*
X148355437Y-111961224D01*
X148897981Y-112058465D01*
X148960494Y-112089667D01*
X148996216Y-112149714D01*
X148993803Y-112219542D01*
X148987012Y-112235973D01*
X146684999Y-116839999D01*
X146685000Y-116839999D01*
X146685000Y-116840000D01*
X155575000Y-121285000D01*
X157557016Y-117320965D01*
X157604602Y-117269808D01*
X157672294Y-117252498D01*
X157738598Y-117274533D01*
X157764024Y-117298058D01*
X157886544Y-117448317D01*
X158080269Y-117685903D01*
X158082192Y-117688387D01*
X158536578Y-118307178D01*
X158538372Y-118309756D01*
X158960838Y-118950772D01*
X158962485Y-118953415D01*
X159351948Y-119615017D01*
X159353472Y-119617764D01*
X159708927Y-120298247D01*
X159710302Y-120301050D01*
X160021355Y-120978028D01*
X160030823Y-120998634D01*
X160032062Y-121001521D01*
X160316848Y-121714467D01*
X160317939Y-121717413D01*
X160566241Y-122443846D01*
X160567182Y-122446844D01*
X160778380Y-123184949D01*
X160779167Y-123187991D01*
X160952701Y-123935806D01*
X160953334Y-123938884D01*
X161088774Y-124694561D01*
X161089250Y-124697667D01*
X161186239Y-125459207D01*
X161186557Y-125462333D01*
X161244852Y-126227836D01*
X161245011Y-126230973D01*
X161264460Y-126998430D01*
X161264460Y-127001570D01*
X161245011Y-127769026D01*
X161244852Y-127772163D01*
X161186557Y-128537666D01*
X161186239Y-128540792D01*
X161089250Y-129302332D01*
X161088774Y-129305438D01*
X160953334Y-130061115D01*
X160952701Y-130064193D01*
X160779167Y-130812008D01*
X160778380Y-130815050D01*
X160567182Y-131553155D01*
X160566241Y-131556153D01*
X160317939Y-132282586D01*
X160316848Y-132285532D01*
X160032062Y-132998478D01*
X160030823Y-133001365D01*
X159710311Y-133698932D01*
X159708927Y-133701752D01*
X159353472Y-134382235D01*
X159351948Y-134384982D01*
X158962485Y-135046584D01*
X158960823Y-135049251D01*
X158538373Y-135690242D01*
X158536578Y-135692821D01*
X158082192Y-136311612D01*
X158080269Y-136314096D01*
X157595120Y-136909084D01*
X157593074Y-136911468D01*
X157078403Y-137481131D01*
X157076238Y-137483408D01*
X156533408Y-138026238D01*
X156531131Y-138028403D01*
X155961468Y-138543074D01*
X155959084Y-138545120D01*
X155364096Y-139030269D01*
X155361612Y-139032192D01*
X154742821Y-139486578D01*
X154740242Y-139488373D01*
X154459532Y-139673377D01*
X154248724Y-139812312D01*
X154099251Y-139910823D01*
X154096584Y-139912485D01*
X153434982Y-140301948D01*
X153432235Y-140303472D01*
X152751752Y-140658927D01*
X152748932Y-140660311D01*
X152051365Y-140980823D01*
X152048478Y-140982062D01*
X151335532Y-141266848D01*
X151332586Y-141267939D01*
X150606153Y-141516241D01*
X150603155Y-141517182D01*
X149865050Y-141728380D01*
X149862008Y-141729167D01*
X149114193Y-141902701D01*
X149111115Y-141903334D01*
X148355438Y-142038774D01*
X148352332Y-142039250D01*
X147590792Y-142136239D01*
X147587666Y-142136557D01*
X146822163Y-142194852D01*
X146819026Y-142195011D01*
X146051571Y-142214460D01*
X146048429Y-142214460D01*
X145280973Y-142195011D01*
X145277836Y-142194852D01*
X144512333Y-142136557D01*
X144509207Y-142136239D01*
X143747667Y-142039250D01*
X143744561Y-142038774D01*
X142988884Y-141903334D01*
X142985806Y-141902701D01*
X142237991Y-141729167D01*
X142234949Y-141728380D01*
X141496844Y-141517182D01*
X141493846Y-141516241D01*
X140767413Y-141267939D01*
X140764467Y-141266848D01*
X140051521Y-140982062D01*
X140048634Y-140980823D01*
X139351050Y-140660302D01*
X139348247Y-140658927D01*
X138667764Y-140303472D01*
X138665017Y-140301948D01*
X138003415Y-139912485D01*
X138000772Y-139910838D01*
X137359756Y-139488372D01*
X137357178Y-139486578D01*
X136783066Y-139065000D01*
X148825007Y-139065000D01*
X148845526Y-139286439D01*
X148906386Y-139500345D01*
X148909673Y-139506945D01*
X149533116Y-139146999D01*
X149570655Y-139274844D01*
X149648387Y-139395798D01*
X149713886Y-139452552D01*
X149090765Y-139812312D01*
X149139536Y-139876896D01*
X149139538Y-139876899D01*
X149303886Y-140026721D01*
X149492968Y-140143797D01*
X149492970Y-140143798D01*
X149700343Y-140224134D01*
X149918955Y-140265000D01*
X150141341Y-140265000D01*
X150359954Y-140224134D01*
X150469837Y-140181565D01*
X150110187Y-139558633D01*
X150172463Y-139549680D01*
X150303248Y-139489952D01*
X150411909Y-139395798D01*
X150419381Y-139384170D01*
X150778651Y-140006445D01*
X150920756Y-139876899D01*
X151054779Y-139699425D01*
X151156465Y-139495215D01*
X151158271Y-139496114D01*
X151195337Y-139447855D01*
X151261098Y-139424249D01*
X151329182Y-139439943D01*
X151350850Y-139455402D01*
X151354269Y-139458445D01*
X151354271Y-139458447D01*
X151485331Y-139575080D01*
X151639755Y-139658346D01*
X151809218Y-139703753D01*
X151984586Y-139708855D01*
X151984586Y-139708854D01*
X151984588Y-139708855D01*
X152034803Y-139698485D01*
X152156404Y-139673378D01*
X152250671Y-139631078D01*
X153809531Y-138731069D01*
X153893299Y-138670581D01*
X154009932Y-138539521D01*
X154093198Y-138385097D01*
X154138605Y-138215634D01*
X154143707Y-138040266D01*
X154143706Y-138040265D01*
X154143707Y-138040263D01*
X154128153Y-137964939D01*
X154108230Y-137868448D01*
X154065930Y-137774181D01*
X153165926Y-136215330D01*
X153165925Y-136215327D01*
X153165921Y-136215321D01*
X153105433Y-136131553D01*
X152974373Y-136014920D01*
X152819949Y-135931654D01*
X152819946Y-135931653D01*
X152819944Y-135931652D01*
X152650485Y-135886246D01*
X152475115Y-135881144D01*
X152303299Y-135916622D01*
X152209045Y-135958916D01*
X152209027Y-135958925D01*
X150650184Y-136858924D01*
X150650179Y-136858926D01*
X150566406Y-136919418D01*
X150566404Y-136919419D01*
X150449772Y-137050478D01*
X150366504Y-137204907D01*
X150321098Y-137374366D01*
X150315996Y-137549736D01*
X150352843Y-137728182D01*
X150350525Y-137728660D01*
X150352120Y-137787544D01*
X150315951Y-137847323D01*
X150253204Y-137878058D01*
X150209457Y-137877732D01*
X150141342Y-137865000D01*
X149918955Y-137865000D01*
X149700340Y-137905865D01*
X149590458Y-137948433D01*
X149590457Y-137948434D01*
X149950108Y-138571366D01*
X149887833Y-138580320D01*
X149757048Y-138640048D01*
X149648387Y-138734202D01*
X149640914Y-138745830D01*
X149281643Y-138123554D01*
X149139537Y-138253102D01*
X149005516Y-138430574D01*
X148906388Y-138629649D01*
X148845526Y-138843560D01*
X148825007Y-139064999D01*
X148825007Y-139065000D01*
X136783066Y-139065000D01*
X136738387Y-139032192D01*
X136735903Y-139030269D01*
X136140915Y-138545120D01*
X136138531Y-138543074D01*
X135568868Y-138028403D01*
X135566591Y-138026238D01*
X135023761Y-137483408D01*
X135021596Y-137481131D01*
X134506925Y-136911468D01*
X134504879Y-136909084D01*
X134019730Y-136314096D01*
X134017807Y-136311612D01*
X133947107Y-136215332D01*
X133563421Y-135692821D01*
X133561626Y-135690242D01*
X133139154Y-135049216D01*
X133137514Y-135046584D01*
X132748051Y-134384982D01*
X132746527Y-134382235D01*
X132391072Y-133701752D01*
X132389704Y-133698965D01*
X132069165Y-133001341D01*
X132067937Y-132998478D01*
X131783143Y-132285511D01*
X131782069Y-132282610D01*
X131533754Y-131556141D01*
X131532817Y-131553155D01*
X131321619Y-130815050D01*
X131320832Y-130812008D01*
X131147292Y-130064167D01*
X131146671Y-130061145D01*
X131011224Y-129305437D01*
X131010753Y-129302365D01*
X131007831Y-129279420D01*
X131018887Y-129210434D01*
X131065486Y-129158374D01*
X131132833Y-129139771D01*
X131199547Y-129160532D01*
X131225127Y-129183223D01*
X131248368Y-129210434D01*
X131382508Y-129367492D01*
X131503213Y-129470583D01*
X131571078Y-129528546D01*
X131571083Y-129528549D01*
X131782525Y-129658122D01*
X132011637Y-129753023D01*
X132218567Y-129802702D01*
X132252775Y-129810915D01*
X132500000Y-129830372D01*
X132747225Y-129810915D01*
X132988362Y-129753023D01*
X133217474Y-129658122D01*
X133428919Y-129528548D01*
X133617492Y-129367492D01*
X133778548Y-129178919D01*
X133908122Y-128967474D01*
X134003023Y-128738362D01*
X134060915Y-128497225D01*
X134080372Y-128250000D01*
X134060915Y-128002775D01*
X134003023Y-127761638D01*
X133991573Y-127733993D01*
X133908122Y-127532525D01*
X133778549Y-127321083D01*
X133778546Y-127321078D01*
X133718713Y-127251023D01*
X133617492Y-127132508D01*
X133572743Y-127094289D01*
X133534550Y-127035782D01*
X133534295Y-127000000D01*
X142519662Y-127000000D01*
X142539002Y-127369022D01*
X142590770Y-127695874D01*
X142596808Y-127733999D01*
X142683174Y-128056321D01*
X142692451Y-128090941D01*
X142824877Y-128435921D01*
X142992640Y-128765173D01*
X143193891Y-129075073D01*
X143193895Y-129075078D01*
X143193897Y-129075081D01*
X143426448Y-129362257D01*
X143687743Y-129623552D01*
X143974919Y-129856103D01*
X143974923Y-129856105D01*
X143974926Y-129856108D01*
X144284826Y-130057359D01*
X144284831Y-130057362D01*
X144614082Y-130225124D01*
X144959066Y-130357551D01*
X145316001Y-130453192D01*
X145680979Y-130510998D01*
X146029589Y-130529268D01*
X146049999Y-130530338D01*
X146050000Y-130530338D01*
X146050001Y-130530338D01*
X146069340Y-130529324D01*
X146419021Y-130510998D01*
X146783999Y-130453192D01*
X147140934Y-130357551D01*
X147485918Y-130225124D01*
X147815169Y-130057362D01*
X148125081Y-129856103D01*
X148412257Y-129623552D01*
X148673552Y-129362257D01*
X148906103Y-129075081D01*
X149107362Y-128765169D01*
X149275124Y-128435918D01*
X149407551Y-128090934D01*
X149503192Y-127733999D01*
X149560998Y-127369021D01*
X149580338Y-127000000D01*
X158419966Y-127000000D01*
X158440057Y-127216830D01*
X158499650Y-127426274D01*
X158499655Y-127426287D01*
X158596715Y-127621208D01*
X158653101Y-127695875D01*
X159106297Y-127242679D01*
X159146442Y-127320156D01*
X159249638Y-127430652D01*
X159355806Y-127495215D01*
X158901509Y-127949511D01*
X159074012Y-128056322D01*
X159074014Y-128056323D01*
X159277060Y-128134983D01*
X159277070Y-128134986D01*
X159491122Y-128175000D01*
X159708878Y-128175000D01*
X159922929Y-128134986D01*
X159922939Y-128134983D01*
X160125985Y-128056323D01*
X160125989Y-128056321D01*
X160298488Y-127949512D01*
X160298488Y-127949511D01*
X159843050Y-127494072D01*
X159888458Y-127474349D01*
X160005739Y-127378934D01*
X160092928Y-127255415D01*
X160096470Y-127245447D01*
X160546897Y-127695874D01*
X160603284Y-127621207D01*
X160603290Y-127621198D01*
X160700344Y-127426287D01*
X160700349Y-127426274D01*
X160759942Y-127216830D01*
X160780034Y-127000000D01*
X160780034Y-126999999D01*
X160759942Y-126783169D01*
X160700349Y-126573725D01*
X160700344Y-126573712D01*
X160603284Y-126378791D01*
X160546897Y-126304123D01*
X160093702Y-126757319D01*
X160053558Y-126679844D01*
X159950362Y-126569348D01*
X159844192Y-126504784D01*
X160298489Y-126050487D01*
X160125987Y-125943677D01*
X160125985Y-125943676D01*
X159922939Y-125865016D01*
X159922929Y-125865013D01*
X159708878Y-125825000D01*
X159491122Y-125825000D01*
X159277070Y-125865013D01*
X159277069Y-125865013D01*
X159074016Y-125943676D01*
X159074015Y-125943676D01*
X158901509Y-126050487D01*
X159356950Y-126505927D01*
X159311542Y-126525651D01*
X159194261Y-126621066D01*
X159107072Y-126744585D01*
X159103529Y-126754551D01*
X158653101Y-126304123D01*
X158596716Y-126378791D01*
X158596711Y-126378798D01*
X158499655Y-126573712D01*
X158499650Y-126573725D01*
X158440057Y-126783169D01*
X158419966Y-126999999D01*
X158419966Y-127000000D01*
X149580338Y-127000000D01*
X149560998Y-126630979D01*
X149503192Y-126266001D01*
X149407551Y-125909066D01*
X149275124Y-125564082D01*
X149107362Y-125234831D01*
X148975983Y-125032525D01*
X148906108Y-124924926D01*
X148906105Y-124924923D01*
X148906103Y-124924919D01*
X148673552Y-124637743D01*
X148412257Y-124376448D01*
X148125081Y-124143897D01*
X148125078Y-124143895D01*
X148125073Y-124143891D01*
X147815173Y-123942640D01*
X147485921Y-123774877D01*
X147140941Y-123642451D01*
X147140934Y-123642449D01*
X146783999Y-123546808D01*
X146783995Y-123546807D01*
X146783994Y-123546807D01*
X146419022Y-123489002D01*
X146050001Y-123469662D01*
X146049999Y-123469662D01*
X145680977Y-123489002D01*
X145316006Y-123546807D01*
X145316004Y-123546807D01*
X144959058Y-123642451D01*
X144614078Y-123774877D01*
X144284826Y-123942640D01*
X143974926Y-124143891D01*
X143687747Y-124376444D01*
X143687739Y-124376451D01*
X143426451Y-124637739D01*
X143426444Y-124637747D01*
X143193891Y-124924926D01*
X142992640Y-125234826D01*
X142824877Y-125564078D01*
X142692451Y-125909058D01*
X142596807Y-126266004D01*
X142596807Y-126266006D01*
X142539002Y-126630977D01*
X142519662Y-126999999D01*
X142519662Y-127000000D01*
X133534295Y-127000000D01*
X133534052Y-126965914D01*
X133571405Y-126906868D01*
X133572559Y-126905867D01*
X133617492Y-126867492D01*
X133778548Y-126678919D01*
X133908122Y-126467474D01*
X134003023Y-126238362D01*
X134060915Y-125997225D01*
X134080372Y-125750000D01*
X134060915Y-125502775D01*
X134003023Y-125261638D01*
X133991920Y-125234831D01*
X133908122Y-125032525D01*
X133778549Y-124821083D01*
X133778546Y-124821078D01*
X133692708Y-124720575D01*
X133617492Y-124632508D01*
X133514399Y-124544458D01*
X133428921Y-124471453D01*
X133428916Y-124471450D01*
X133217474Y-124341877D01*
X132988362Y-124246976D01*
X132747228Y-124189085D01*
X132500000Y-124169628D01*
X132252771Y-124189085D01*
X132011637Y-124246976D01*
X131782525Y-124341877D01*
X131571083Y-124471450D01*
X131571078Y-124471453D01*
X131382508Y-124632508D01*
X131225127Y-124816776D01*
X131166620Y-124854969D01*
X131096752Y-124855467D01*
X131037706Y-124818113D01*
X131008228Y-124754766D01*
X131007831Y-124720583D01*
X131010754Y-124697628D01*
X131011225Y-124694561D01*
X131021408Y-124637747D01*
X131146672Y-123938846D01*
X131147290Y-123935840D01*
X131320838Y-123187964D01*
X131321613Y-123184972D01*
X131532824Y-122446820D01*
X131533750Y-122443869D01*
X131782073Y-121717376D01*
X131783138Y-121714501D01*
X132067945Y-121001500D01*
X132069159Y-120998672D01*
X132389711Y-120301018D01*
X132391072Y-120298247D01*
X132746527Y-119617764D01*
X132748051Y-119615017D01*
X133137514Y-118953415D01*
X133139143Y-118950800D01*
X133561645Y-118309729D01*
X133563408Y-118307196D01*
X134017830Y-117688356D01*
X134019730Y-117685903D01*
X134087308Y-117603026D01*
X134457197Y-117149392D01*
X134504879Y-117090915D01*
X134506925Y-117088531D01*
X134738997Y-116831662D01*
X134805788Y-116757734D01*
X137457810Y-116757734D01*
X137465851Y-116874262D01*
X137465851Y-116874264D01*
X137491283Y-116938138D01*
X137844140Y-117549304D01*
X137844141Y-117549304D01*
X138475090Y-117185025D01*
X138512629Y-117312870D01*
X138590361Y-117433824D01*
X138655860Y-117490578D01*
X138021641Y-117856744D01*
X138021641Y-117856745D01*
X138374497Y-118467909D01*
X138374496Y-118467909D01*
X138417098Y-118521874D01*
X138514000Y-118587106D01*
X138626828Y-118617337D01*
X138743358Y-118609296D01*
X138743360Y-118609296D01*
X138807234Y-118583864D01*
X139418400Y-118231006D01*
X139418400Y-118231005D01*
X139052161Y-117596659D01*
X139114437Y-117587706D01*
X139245222Y-117527978D01*
X139353883Y-117433824D01*
X139361355Y-117422197D01*
X139725840Y-118053505D01*
X139725841Y-118053505D01*
X140337005Y-117700650D01*
X140390970Y-117658049D01*
X140456202Y-117561147D01*
X140486433Y-117448321D01*
X140486433Y-117448317D01*
X140478392Y-117331789D01*
X140478392Y-117331787D01*
X140452960Y-117267913D01*
X140278413Y-116965589D01*
X140261940Y-116897689D01*
X140284792Y-116831662D01*
X140339714Y-116788471D01*
X140409267Y-116781830D01*
X140451078Y-116798162D01*
X140634646Y-116911823D01*
X140634648Y-116911824D01*
X140842021Y-116992160D01*
X141060633Y-117033026D01*
X141283019Y-117033026D01*
X141501632Y-116992160D01*
X141611515Y-116949591D01*
X141251865Y-116326659D01*
X141314141Y-116317706D01*
X141444926Y-116257978D01*
X141553587Y-116163824D01*
X141561059Y-116152196D01*
X141920329Y-116774471D01*
X142062434Y-116644925D01*
X142196457Y-116467451D01*
X142295585Y-116268376D01*
X142356447Y-116054465D01*
X142376967Y-115833026D01*
X142376967Y-115833025D01*
X142356447Y-115611586D01*
X142295585Y-115397675D01*
X142292300Y-115391079D01*
X142292299Y-115391079D01*
X141668856Y-115751023D01*
X141631319Y-115623182D01*
X141553587Y-115502228D01*
X141488085Y-115445471D01*
X142111207Y-115085713D01*
X142062434Y-115021125D01*
X141898087Y-114871304D01*
X141709005Y-114754228D01*
X141709003Y-114754227D01*
X141501630Y-114673891D01*
X141283019Y-114633026D01*
X141060633Y-114633026D01*
X140842018Y-114673891D01*
X140732136Y-114716459D01*
X140732135Y-114716460D01*
X141091785Y-115339392D01*
X141029511Y-115348346D01*
X140898726Y-115408074D01*
X140790065Y-115502228D01*
X140782592Y-115513855D01*
X140423321Y-114891580D01*
X140281215Y-115021128D01*
X140147194Y-115198600D01*
X140048066Y-115397675D01*
X139987204Y-115611586D01*
X139966685Y-115833025D01*
X139966685Y-115833026D01*
X139979857Y-115975175D01*
X139966442Y-116043744D01*
X139918085Y-116094176D01*
X139850139Y-116110459D01*
X139784176Y-116087422D01*
X139748999Y-116048616D01*
X139569746Y-115738142D01*
X139569747Y-115738142D01*
X139527145Y-115684177D01*
X139430243Y-115618945D01*
X139317415Y-115588714D01*
X139200885Y-115596755D01*
X139200883Y-115596755D01*
X139137009Y-115622187D01*
X138525842Y-115975044D01*
X138525842Y-115975045D01*
X138892082Y-116609392D01*
X138829807Y-116618346D01*
X138699022Y-116678074D01*
X138590361Y-116772228D01*
X138582888Y-116783855D01*
X138218402Y-116152545D01*
X138218401Y-116152545D01*
X137607238Y-116505401D01*
X137553273Y-116548002D01*
X137488041Y-116644904D01*
X137457810Y-116757730D01*
X137457810Y-116757734D01*
X134805788Y-116757734D01*
X135021605Y-116518857D01*
X135023741Y-116516611D01*
X135566611Y-115973741D01*
X135568857Y-115971605D01*
X136138531Y-115456925D01*
X136140915Y-115454879D01*
X136593661Y-115085713D01*
X136735913Y-114969721D01*
X136738356Y-114967830D01*
X137357196Y-114513408D01*
X137359729Y-114511645D01*
X138000800Y-114089143D01*
X138003404Y-114087520D01*
X138665023Y-113698047D01*
X138667764Y-113696527D01*
X139348247Y-113341072D01*
X139351018Y-113339711D01*
X140048672Y-113019159D01*
X140051500Y-113017945D01*
X140764501Y-112733138D01*
X140767376Y-112732073D01*
X141493869Y-112483750D01*
X141496820Y-112482824D01*
X142234972Y-112271613D01*
X142237964Y-112270838D01*
X142985840Y-112097290D01*
X142988846Y-112096672D01*
X143744568Y-111961223D01*
X143747640Y-111960753D01*
X144509234Y-111863757D01*
X144512319Y-111863443D01*
X145184804Y-111812231D01*
X145277836Y-111805147D01*
X145280969Y-111804988D01*
X146048461Y-111785539D01*
X146051539Y-111785539D01*
X146819028Y-111804988D01*
G37*
G04 #@! TD.AperFunction*
M02*
