G04 #@! TF.GenerationSoftware,KiCad,Pcbnew,7.0.5-0*
G04 #@! TF.CreationDate,2023-10-10T23:47:46-04:00*
G04 #@! TF.ProjectId,batterymodule,62617474-6572-4796-9d6f-64756c652e6b,rev?*
G04 #@! TF.SameCoordinates,Original*
G04 #@! TF.FileFunction,Legend,Bot*
G04 #@! TF.FilePolarity,Positive*
%FSLAX46Y46*%
G04 Gerber Fmt 4.6, Leading zero omitted, Abs format (unit mm)*
G04 Created by KiCad (PCBNEW 7.0.5-0) date 2023-10-10 23:47:46*
%MOMM*%
%LPD*%
G01*
G04 APERTURE LIST*
G04 Aperture macros list*
%AMRoundRect*
0 Rectangle with rounded corners*
0 $1 Rounding radius*
0 $2 $3 $4 $5 $6 $7 $8 $9 X,Y pos of 4 corners*
0 Add a 4 corners polygon primitive as box body*
4,1,4,$2,$3,$4,$5,$6,$7,$8,$9,$2,$3,0*
0 Add four circle primitives for the rounded corners*
1,1,$1+$1,$2,$3*
1,1,$1+$1,$4,$5*
1,1,$1+$1,$6,$7*
1,1,$1+$1,$8,$9*
0 Add four rect primitives between the rounded corners*
20,1,$1+$1,$2,$3,$4,$5,0*
20,1,$1+$1,$4,$5,$6,$7,0*
20,1,$1+$1,$6,$7,$8,$9,0*
20,1,$1+$1,$8,$9,$2,$3,0*%
%AMHorizOval*
0 Thick line with rounded ends*
0 $1 width*
0 $2 $3 position (X,Y) of the first rounded end (center of the circle)*
0 $4 $5 position (X,Y) of the second rounded end (center of the circle)*
0 Add line between two ends*
20,1,$1,$2,$3,$4,$5,0*
0 Add two circle primitives to create the rounded ends*
1,1,$1,$2,$3*
1,1,$1,$4,$5*%
%AMRotRect*
0 Rectangle, with rotation*
0 The origin of the aperture is its center*
0 $1 length*
0 $2 width*
0 $3 Rotation angle, in degrees counterclockwise*
0 Add horizontal line*
21,1,$1,$2,0,0,$3*%
G04 Aperture macros list end*
%ADD10C,0.150000*%
%ADD11C,0.120000*%
%ADD12RoundRect,0.140000X0.170000X-0.140000X0.170000X0.140000X-0.170000X0.140000X-0.170000X-0.140000X0*%
%ADD13RoundRect,0.225000X0.250000X-0.225000X0.250000X0.225000X-0.250000X0.225000X-0.250000X-0.225000X0*%
%ADD14C,1.854000*%
%ADD15RotRect,1.700000X1.700000X120.000000*%
%ADD16HorizOval,1.700000X0.000000X0.000000X0.000000X0.000000X0*%
%ADD17RotRect,1.700000X1.700000X300.000000*%
%ADD18HorizOval,1.700000X0.000000X0.000000X0.000000X0.000000X0*%
G04 APERTURE END LIST*
D10*
X153284580Y-133338333D02*
X153332200Y-133290714D01*
X153332200Y-133290714D02*
X153379819Y-133147857D01*
X153379819Y-133147857D02*
X153379819Y-133052619D01*
X153379819Y-133052619D02*
X153332200Y-132909762D01*
X153332200Y-132909762D02*
X153236961Y-132814524D01*
X153236961Y-132814524D02*
X153141723Y-132766905D01*
X153141723Y-132766905D02*
X152951247Y-132719286D01*
X152951247Y-132719286D02*
X152808390Y-132719286D01*
X152808390Y-132719286D02*
X152617914Y-132766905D01*
X152617914Y-132766905D02*
X152522676Y-132814524D01*
X152522676Y-132814524D02*
X152427438Y-132909762D01*
X152427438Y-132909762D02*
X152379819Y-133052619D01*
X152379819Y-133052619D02*
X152379819Y-133147857D01*
X152379819Y-133147857D02*
X152427438Y-133290714D01*
X152427438Y-133290714D02*
X152475057Y-133338333D01*
X152475057Y-133719286D02*
X152427438Y-133766905D01*
X152427438Y-133766905D02*
X152379819Y-133862143D01*
X152379819Y-133862143D02*
X152379819Y-134100238D01*
X152379819Y-134100238D02*
X152427438Y-134195476D01*
X152427438Y-134195476D02*
X152475057Y-134243095D01*
X152475057Y-134243095D02*
X152570295Y-134290714D01*
X152570295Y-134290714D02*
X152665533Y-134290714D01*
X152665533Y-134290714D02*
X152808390Y-134243095D01*
X152808390Y-134243095D02*
X153379819Y-133671667D01*
X153379819Y-133671667D02*
X153379819Y-134290714D01*
X156729580Y-133978333D02*
X156777200Y-133930714D01*
X156777200Y-133930714D02*
X156824819Y-133787857D01*
X156824819Y-133787857D02*
X156824819Y-133692619D01*
X156824819Y-133692619D02*
X156777200Y-133549762D01*
X156777200Y-133549762D02*
X156681961Y-133454524D01*
X156681961Y-133454524D02*
X156586723Y-133406905D01*
X156586723Y-133406905D02*
X156396247Y-133359286D01*
X156396247Y-133359286D02*
X156253390Y-133359286D01*
X156253390Y-133359286D02*
X156062914Y-133406905D01*
X156062914Y-133406905D02*
X155967676Y-133454524D01*
X155967676Y-133454524D02*
X155872438Y-133549762D01*
X155872438Y-133549762D02*
X155824819Y-133692619D01*
X155824819Y-133692619D02*
X155824819Y-133787857D01*
X155824819Y-133787857D02*
X155872438Y-133930714D01*
X155872438Y-133930714D02*
X155920057Y-133978333D01*
X156824819Y-134930714D02*
X156824819Y-134359286D01*
X156824819Y-134645000D02*
X155824819Y-134645000D01*
X155824819Y-134645000D02*
X155967676Y-134549762D01*
X155967676Y-134549762D02*
X156062914Y-134454524D01*
X156062914Y-134454524D02*
X156110533Y-134359286D01*
D11*
X151405000Y-133612836D02*
X151405000Y-133397164D01*
X152125000Y-133612836D02*
X152125000Y-133397164D01*
X154430000Y-134285580D02*
X154430000Y-134004420D01*
X155450000Y-134285580D02*
X155450000Y-134004420D01*
%LPC*%
D12*
X151765000Y-133985000D03*
X151765000Y-133025000D03*
D13*
X154940000Y-134920000D03*
X154940000Y-133370000D03*
D14*
X132500000Y-125750000D03*
X132500000Y-128250000D03*
X159600000Y-127000000D03*
D15*
X138972122Y-117103026D03*
D16*
X141171826Y-115833026D03*
D17*
X152229852Y-137795000D03*
D18*
X150030148Y-139065000D03*
%LPD*%
M02*
