%TF.GenerationSoftware,KiCad,Pcbnew,7.0.5-0*%
%TF.CreationDate,2023-10-10T23:50:18-04:00*%
%TF.ProjectId,batterymodule,62617474-6572-4796-9d6f-64756c652e6b,rev?*%
%TF.SameCoordinates,Original*%
%TF.FileFunction,Drillmap*%
%TF.FilePolarity,Positive*%
%FSLAX45Y45*%
G04 Gerber Fmt 4.5, Leading zero omitted, Abs format (unit mm)*
G04 Created by KiCad (PCBNEW 7.0.5-0) date 2023-10-10 23:50:18*
%MOMM*%
%LPD*%
G01*
G04 APERTURE LIST*
%ADD10C,0.200000*%
G04 APERTURE END LIST*
D10*
X14955000Y-12700000D02*
G75*
G03*
X14955000Y-12700000I-350000J0D01*
G01*
X16129000Y-12700000D02*
G75*
G03*
X16129000Y-12700000I-1524000J0D01*
G01*
X13331777Y-14545484D02*
X13331777Y-14345484D01*
X13331777Y-14345484D02*
X13379396Y-14345484D01*
X13379396Y-14345484D02*
X13407967Y-14355008D01*
X13407967Y-14355008D02*
X13427015Y-14374055D01*
X13427015Y-14374055D02*
X13436539Y-14393103D01*
X13436539Y-14393103D02*
X13446062Y-14431198D01*
X13446062Y-14431198D02*
X13446062Y-14459769D01*
X13446062Y-14459769D02*
X13436539Y-14497865D01*
X13436539Y-14497865D02*
X13427015Y-14516912D01*
X13427015Y-14516912D02*
X13407967Y-14535960D01*
X13407967Y-14535960D02*
X13379396Y-14545484D01*
X13379396Y-14545484D02*
X13331777Y-14545484D01*
X13531777Y-14545484D02*
X13531777Y-14412150D01*
X13531777Y-14450246D02*
X13541301Y-14431198D01*
X13541301Y-14431198D02*
X13550824Y-14421674D01*
X13550824Y-14421674D02*
X13569872Y-14412150D01*
X13569872Y-14412150D02*
X13588920Y-14412150D01*
X13655586Y-14545484D02*
X13655586Y-14412150D01*
X13655586Y-14345484D02*
X13646062Y-14355008D01*
X13646062Y-14355008D02*
X13655586Y-14364531D01*
X13655586Y-14364531D02*
X13665110Y-14355008D01*
X13665110Y-14355008D02*
X13655586Y-14345484D01*
X13655586Y-14345484D02*
X13655586Y-14364531D01*
X13779396Y-14545484D02*
X13760348Y-14535960D01*
X13760348Y-14535960D02*
X13750824Y-14516912D01*
X13750824Y-14516912D02*
X13750824Y-14345484D01*
X13884158Y-14545484D02*
X13865110Y-14535960D01*
X13865110Y-14535960D02*
X13855586Y-14516912D01*
X13855586Y-14516912D02*
X13855586Y-14345484D01*
X14112729Y-14545484D02*
X14112729Y-14345484D01*
X14112729Y-14345484D02*
X14179396Y-14488341D01*
X14179396Y-14488341D02*
X14246062Y-14345484D01*
X14246062Y-14345484D02*
X14246062Y-14545484D01*
X14427015Y-14545484D02*
X14427015Y-14440722D01*
X14427015Y-14440722D02*
X14417491Y-14421674D01*
X14417491Y-14421674D02*
X14398443Y-14412150D01*
X14398443Y-14412150D02*
X14360348Y-14412150D01*
X14360348Y-14412150D02*
X14341301Y-14421674D01*
X14427015Y-14535960D02*
X14407967Y-14545484D01*
X14407967Y-14545484D02*
X14360348Y-14545484D01*
X14360348Y-14545484D02*
X14341301Y-14535960D01*
X14341301Y-14535960D02*
X14331777Y-14516912D01*
X14331777Y-14516912D02*
X14331777Y-14497865D01*
X14331777Y-14497865D02*
X14341301Y-14478817D01*
X14341301Y-14478817D02*
X14360348Y-14469293D01*
X14360348Y-14469293D02*
X14407967Y-14469293D01*
X14407967Y-14469293D02*
X14427015Y-14459769D01*
X14522253Y-14412150D02*
X14522253Y-14612150D01*
X14522253Y-14421674D02*
X14541301Y-14412150D01*
X14541301Y-14412150D02*
X14579396Y-14412150D01*
X14579396Y-14412150D02*
X14598443Y-14421674D01*
X14598443Y-14421674D02*
X14607967Y-14431198D01*
X14607967Y-14431198D02*
X14617491Y-14450246D01*
X14617491Y-14450246D02*
X14617491Y-14507388D01*
X14617491Y-14507388D02*
X14607967Y-14526436D01*
X14607967Y-14526436D02*
X14598443Y-14535960D01*
X14598443Y-14535960D02*
X14579396Y-14545484D01*
X14579396Y-14545484D02*
X14541301Y-14545484D01*
X14541301Y-14545484D02*
X14522253Y-14535960D01*
X14703205Y-14526436D02*
X14712729Y-14535960D01*
X14712729Y-14535960D02*
X14703205Y-14545484D01*
X14703205Y-14545484D02*
X14693682Y-14535960D01*
X14693682Y-14535960D02*
X14703205Y-14526436D01*
X14703205Y-14526436D02*
X14703205Y-14545484D01*
X14703205Y-14421674D02*
X14712729Y-14431198D01*
X14712729Y-14431198D02*
X14703205Y-14440722D01*
X14703205Y-14440722D02*
X14693682Y-14431198D01*
X14693682Y-14431198D02*
X14703205Y-14421674D01*
X14703205Y-14421674D02*
X14703205Y-14440722D01*
M02*
