%TF.GenerationSoftware,KiCad,Pcbnew,7.0.5-0*%
%TF.CreationDate,2023-09-08T15:05:08-04:00*%
%TF.ProjectId,rodentdbs,726f6465-6e74-4646-9273-2e6b69636164,rev?*%
%TF.SameCoordinates,Original*%
%TF.FileFunction,Copper,L1,Top*%
%TF.FilePolarity,Positive*%
%FSLAX46Y46*%
G04 Gerber Fmt 4.6, Leading zero omitted, Abs format (unit mm)*
G04 Created by KiCad (PCBNEW 7.0.5-0) date 2023-09-08 15:05:08*
%MOMM*%
%LPD*%
G01*
G04 APERTURE LIST*
G04 Aperture macros list*
%AMRoundRect*
0 Rectangle with rounded corners*
0 $1 Rounding radius*
0 $2 $3 $4 $5 $6 $7 $8 $9 X,Y pos of 4 corners*
0 Add a 4 corners polygon primitive as box body*
4,1,4,$2,$3,$4,$5,$6,$7,$8,$9,$2,$3,0*
0 Add four circle primitives for the rounded corners*
1,1,$1+$1,$2,$3*
1,1,$1+$1,$4,$5*
1,1,$1+$1,$6,$7*
1,1,$1+$1,$8,$9*
0 Add four rect primitives between the rounded corners*
20,1,$1+$1,$2,$3,$4,$5,0*
20,1,$1+$1,$4,$5,$6,$7,0*
20,1,$1+$1,$6,$7,$8,$9,0*
20,1,$1+$1,$8,$9,$2,$3,0*%
%AMHorizOval*
0 Thick line with rounded ends*
0 $1 width*
0 $2 $3 position (X,Y) of the first rounded end (center of the circle)*
0 $4 $5 position (X,Y) of the second rounded end (center of the circle)*
0 Add line between two ends*
20,1,$1,$2,$3,$4,$5,0*
0 Add two circle primitives to create the rounded ends*
1,1,$1,$2,$3*
1,1,$1,$4,$5*%
%AMRotRect*
0 Rectangle, with rotation*
0 The origin of the aperture is its center*
0 $1 length*
0 $2 width*
0 $3 Rotation angle, in degrees counterclockwise*
0 Add horizontal line*
21,1,$1,$2,0,0,$3*%
G04 Aperture macros list end*
%TA.AperFunction,SMDPad,CuDef*%
%ADD10R,0.550000X1.050000*%
%TD*%
%TA.AperFunction,ComponentPad*%
%ADD11RotRect,1.000000X1.000000X243.440000*%
%TD*%
%TA.AperFunction,ComponentPad*%
%ADD12HorizOval,1.000000X0.000000X0.000000X0.000000X0.000000X0*%
%TD*%
%TA.AperFunction,ComponentPad*%
%ADD13RotRect,1.000000X1.000000X40.000000*%
%TD*%
%TA.AperFunction,ComponentPad*%
%ADD14HorizOval,1.000000X0.000000X0.000000X0.000000X0.000000X0*%
%TD*%
%TA.AperFunction,ComponentPad*%
%ADD15RotRect,1.700000X1.700000X300.000000*%
%TD*%
%TA.AperFunction,ComponentPad*%
%ADD16HorizOval,1.700000X0.000000X0.000000X0.000000X0.000000X0*%
%TD*%
%TA.AperFunction,SMDPad,CuDef*%
%ADD17RoundRect,0.250000X-0.375000X-1.075000X0.375000X-1.075000X0.375000X1.075000X-0.375000X1.075000X0*%
%TD*%
%TA.AperFunction,SMDPad,CuDef*%
%ADD18RoundRect,0.140000X0.170000X-0.140000X0.170000X0.140000X-0.170000X0.140000X-0.170000X-0.140000X0*%
%TD*%
%TA.AperFunction,SMDPad,CuDef*%
%ADD19RoundRect,0.225000X0.225000X0.250000X-0.225000X0.250000X-0.225000X-0.250000X0.225000X-0.250000X0*%
%TD*%
%TA.AperFunction,ComponentPad*%
%ADD20RotRect,1.700000X1.700000X120.000000*%
%TD*%
%TA.AperFunction,ComponentPad*%
%ADD21HorizOval,1.700000X0.000000X0.000000X0.000000X0.000000X0*%
%TD*%
%TA.AperFunction,SMDPad,CuDef*%
%ADD22RoundRect,0.225000X-0.250000X0.225000X-0.250000X-0.225000X0.250000X-0.225000X0.250000X0.225000X0*%
%TD*%
%TA.AperFunction,SMDPad,CuDef*%
%ADD23RoundRect,0.147500X-0.147500X-0.172500X0.147500X-0.172500X0.147500X0.172500X-0.147500X0.172500X0*%
%TD*%
%TA.AperFunction,SMDPad,CuDef*%
%ADD24RoundRect,0.147500X0.209080X0.088307X-0.054765X0.220257X-0.209080X-0.088307X0.054765X-0.220257X0*%
%TD*%
%TA.AperFunction,SMDPad,CuDef*%
%ADD25RoundRect,0.147500X0.147500X0.172500X-0.147500X0.172500X-0.147500X-0.172500X0.147500X-0.172500X0*%
%TD*%
%TA.AperFunction,SMDPad,CuDef*%
%ADD26RoundRect,0.140000X-0.201254X-0.089425X0.049175X-0.214667X0.201254X0.089425X-0.049175X0.214667X0*%
%TD*%
%TA.AperFunction,SMDPad,CuDef*%
%ADD27RoundRect,0.140000X0.089425X-0.201254X0.214667X0.049175X-0.089425X0.201254X-0.214667X-0.049175X0*%
%TD*%
%TA.AperFunction,SMDPad,CuDef*%
%ADD28RoundRect,0.140000X-0.140000X-0.170000X0.140000X-0.170000X0.140000X0.170000X-0.140000X0.170000X0*%
%TD*%
%TA.AperFunction,SMDPad,CuDef*%
%ADD29RoundRect,0.140000X-0.170000X0.140000X-0.170000X-0.140000X0.170000X-0.140000X0.170000X0.140000X0*%
%TD*%
%TA.AperFunction,SMDPad,CuDef*%
%ADD30R,1.300000X1.100000*%
%TD*%
%TA.AperFunction,SMDPad,CuDef*%
%ADD31R,1.100000X1.900000*%
%TD*%
%TA.AperFunction,SMDPad,CuDef*%
%ADD32RoundRect,0.050000X0.387500X0.050000X-0.387500X0.050000X-0.387500X-0.050000X0.387500X-0.050000X0*%
%TD*%
%TA.AperFunction,SMDPad,CuDef*%
%ADD33RoundRect,0.050000X0.050000X0.387500X-0.050000X0.387500X-0.050000X-0.387500X0.050000X-0.387500X0*%
%TD*%
%TA.AperFunction,SMDPad,CuDef*%
%ADD34R,5.600000X5.600000*%
%TD*%
%TA.AperFunction,SMDPad,CuDef*%
%ADD35RotRect,1.000000X2.000000X333.440000*%
%TD*%
%TA.AperFunction,SMDPad,CuDef*%
%ADD36RotRect,2.800000X0.700000X333.440000*%
%TD*%
%TA.AperFunction,ViaPad*%
%ADD37C,0.600000*%
%TD*%
%TA.AperFunction,Conductor*%
%ADD38C,0.200000*%
%TD*%
%TA.AperFunction,Conductor*%
%ADD39C,0.300000*%
%TD*%
G04 APERTURE END LIST*
D10*
%TO.P,IC1,1,BATT*%
%TO.N,VCC*%
X156375000Y-125770000D03*
%TO.P,IC1,2,GND*%
%TO.N,GND*%
X155425000Y-125770000D03*
%TO.P,IC1,3,~{SHDN}*%
%TO.N,/rodentdbs_1/{slash}SHDN-BOOST*%
X154475000Y-125770000D03*
%TO.P,IC1,4,OUT*%
%TO.N,/rodentdbs_1/VDDA*%
X154475000Y-128270000D03*
%TO.P,IC1,5,LX*%
%TO.N,Net-(IC1-LX)*%
X156375000Y-128270000D03*
%TD*%
D11*
%TO.P,J6,1,Pin_1*%
%TO.N,VCC*%
X150235890Y-123060193D03*
D12*
%TO.P,J6,2,Pin_2*%
%TO.N,GND*%
X149099917Y-122492332D03*
%TO.P,J6,3,Pin_3*%
%TO.N,/rodentdbs_1/{slash}XRES*%
X147963945Y-121924471D03*
%TO.P,J6,4,Pin_4*%
%TO.N,/rodentdbs_1/SWDCLK*%
X146827972Y-121356610D03*
%TO.P,J6,5,Pin_5*%
%TO.N,/rodentdbs_1/SWDIO*%
X145692000Y-120788749D03*
%TD*%
D13*
%TO.P,J2,1,Pin_1*%
%TO.N,/rodentdbs_1/STIMA*%
X135255000Y-134620000D03*
D14*
%TO.P,J2,2,Pin_2*%
%TO.N,/rodentdbs_1/STIMB*%
X136071340Y-135592876D03*
%TD*%
D15*
%TO.P,J3,1,Pin_1*%
%TO.N,VCC*%
X152229852Y-137795000D03*
D16*
%TO.P,J3,2,Pin_2*%
%TO.N,GND*%
X150030148Y-139065000D03*
%TD*%
D17*
%TO.P,L1,1,1*%
%TO.N,/rodentdbs_1/VDDA*%
X154045000Y-132080000D03*
%TO.P,L1,2,2*%
%TO.N,Net-(IC1-LX)*%
X156845000Y-132080000D03*
%TD*%
D18*
%TO.P,C16,1*%
%TO.N,/rodentdbs_1/VDDA*%
X152270000Y-126070000D03*
%TO.P,C16,2*%
%TO.N,GND*%
X152270000Y-125110000D03*
%TD*%
D19*
%TO.P,C13,1*%
%TO.N,VCC*%
X158115000Y-123190000D03*
%TO.P,C13,2*%
%TO.N,GND*%
X156565000Y-123190000D03*
%TD*%
D20*
%TO.P,J4,1,Pin_1*%
%TO.N,GND*%
X138972122Y-117103026D03*
D21*
%TO.P,J4,2,Pin_2*%
X141171826Y-115833026D03*
%TD*%
D22*
%TO.P,C17,1*%
%TO.N,/rodentdbs_1/VDDA*%
X151765000Y-128625000D03*
%TO.P,C17,2*%
%TO.N,GND*%
X151765000Y-130175000D03*
%TD*%
D18*
%TO.P,C7,2*%
%TO.N,GND*%
X159385000Y-125095000D03*
%TO.P,C7,1*%
%TO.N,VCC*%
X159385000Y-126055000D03*
%TD*%
D23*
%TO.P,FB2,2*%
%TO.N,VCC*%
X149225000Y-132715000D03*
%TO.P,FB2,1*%
%TO.N,/rodentdbs_1/VDDR*%
X148255000Y-132715000D03*
%TD*%
%TO.P,FB1,2*%
%TO.N,VCC*%
X149225000Y-134620000D03*
%TO.P,FB1,1*%
%TO.N,/rodentdbs_1/VDDD*%
X148255000Y-134620000D03*
%TD*%
D24*
%TO.P,L2,2,2*%
%TO.N,GND*%
X143912444Y-115136128D03*
%TO.P,L2,1,1*%
%TO.N,/rodentdbs_1/ANT*%
X144780000Y-115570000D03*
%TD*%
D25*
%TO.P,D2,2,A*%
%TO.N,Net-(D2-A)*%
X144930000Y-140970000D03*
%TO.P,D2,1,K*%
%TO.N,GND*%
X145900000Y-140970000D03*
%TD*%
%TO.P,D1,1,K*%
%TO.N,GND*%
X142725000Y-139700000D03*
%TO.P,D1,2,A*%
%TO.N,Net-(D1-A)*%
X141755000Y-139700000D03*
%TD*%
D26*
%TO.P,C15,2*%
%TO.N,Net-(AE1-FEED)*%
X145504287Y-114300000D03*
%TO.P,C15,1*%
%TO.N,GND*%
X144645673Y-113870600D03*
%TD*%
D27*
%TO.P,C14,1*%
%TO.N,/rodentdbs_1/ANT*%
X145990300Y-115999307D03*
%TO.P,C14,2*%
%TO.N,Net-(AE1-FEED)*%
X146419700Y-115140693D03*
%TD*%
D28*
%TO.P,C11,1*%
%TO.N,/rodentdbs_1/XTAL32I*%
X139855000Y-137160000D03*
%TO.P,C11,2*%
%TO.N,GND*%
X140815000Y-137160000D03*
%TD*%
D29*
%TO.P,C10,1*%
%TO.N,/rodentdbs_1/XTAL32O*%
X144780000Y-135255000D03*
%TO.P,C10,2*%
%TO.N,GND*%
X144780000Y-136215000D03*
%TD*%
D30*
%TO.P,Y2,4,GND*%
%TO.N,GND*%
X134466724Y-120012381D03*
%TO.P,Y2,3,OUT/IN*%
%TO.N,/rodentdbs_1/XTAL24I*%
X136766724Y-120012381D03*
%TO.P,Y2,2,GND*%
%TO.N,GND*%
X136766724Y-121812381D03*
%TO.P,Y2,1,IN/OUT*%
%TO.N,/rodentdbs_1/XTAL24O*%
X134466724Y-121812381D03*
%TD*%
D31*
%TO.P,Y1,1,1*%
%TO.N,/rodentdbs_1/XTAL32O*%
X142835000Y-134620000D03*
%TO.P,Y1,2,2*%
%TO.N,/rodentdbs_1/XTAL32I*%
X140335000Y-134620000D03*
%TD*%
D32*
%TO.P,U2,1,VDDD*%
%TO.N,/rodentdbs_1/VDDD*%
X140467500Y-130550000D03*
%TO.P,U2,2,XTAL32O/P6.0*%
%TO.N,/rodentdbs_1/XTAL32I*%
X140467500Y-130150000D03*
%TO.P,U2,3,XTAL32I/P6.1*%
%TO.N,/rodentdbs_1/XTAL32O*%
X140467500Y-129750000D03*
%TO.P,U2,4,XRES*%
%TO.N,/rodentdbs_1/{slash}XRES*%
X140467500Y-129350000D03*
%TO.P,U2,5,P4.0*%
%TO.N,unconnected-(U2-P4.0-Pad5)*%
X140467500Y-128950000D03*
%TO.P,U2,6,P4.1*%
%TO.N,unconnected-(U2-P4.1-Pad6)*%
X140467500Y-128550000D03*
%TO.P,U2,7,P5.0*%
%TO.N,unconnected-(U2-P5.0-Pad7)*%
X140467500Y-128150000D03*
%TO.P,U2,8,P5.1*%
%TO.N,unconnected-(U2-P5.1-Pad8)*%
X140467500Y-127750000D03*
%TO.P,U2,9,VSSD*%
%TO.N,GND*%
X140467500Y-127350000D03*
%TO.P,U2,10,VDDR*%
%TO.N,/rodentdbs_1/VDDR*%
X140467500Y-126950000D03*
%TO.P,U2,11,GANT1*%
%TO.N,GND*%
X140467500Y-126550000D03*
%TO.P,U2,12,ANT*%
%TO.N,/rodentdbs_1/ANT*%
X140467500Y-126150000D03*
%TO.P,U2,13,GANT2*%
%TO.N,GND*%
X140467500Y-125750000D03*
%TO.P,U2,14,VDDR*%
%TO.N,/rodentdbs_1/VDDR*%
X140467500Y-125350000D03*
D33*
%TO.P,U2,15,VDDR*%
X139630000Y-124512500D03*
%TO.P,U2,16,XTAL24I*%
%TO.N,/rodentdbs_1/XTAL24I*%
X139230000Y-124512500D03*
%TO.P,U2,17,XTAL24O*%
%TO.N,/rodentdbs_1/XTAL24O*%
X138830000Y-124512500D03*
%TO.P,U2,18,VDDR*%
%TO.N,/rodentdbs_1/VDDR*%
X138430000Y-124512500D03*
%TO.P,U2,19,P0.0*%
%TO.N,unconnected-(U2-P0.0-Pad19)*%
X138030000Y-124512500D03*
%TO.P,U2,20,P0.1*%
%TO.N,unconnected-(U2-P0.1-Pad20)*%
X137630000Y-124512500D03*
%TO.P,U2,21,P0.2*%
%TO.N,unconnected-(U2-P0.2-Pad21)*%
X137230000Y-124512500D03*
%TO.P,U2,22,P0.3*%
%TO.N,unconnected-(U2-P0.3-Pad22)*%
X136830000Y-124512500D03*
%TO.P,U2,23,VDDD*%
%TO.N,/rodentdbs_1/VDDD*%
X136430000Y-124512500D03*
%TO.P,U2,24,P0.4*%
%TO.N,unconnected-(U2-P0.4-Pad24)*%
X136030000Y-124512500D03*
%TO.P,U2,25,P0.5*%
%TO.N,unconnected-(U2-P0.5-Pad25)*%
X135630000Y-124512500D03*
%TO.P,U2,26,P0.6*%
%TO.N,/rodentdbs_1/SWDIO*%
X135230000Y-124512500D03*
%TO.P,U2,27,P0.7*%
%TO.N,/rodentdbs_1/SWDCLK*%
X134830000Y-124512500D03*
%TO.P,U2,28,P1.0*%
%TO.N,unconnected-(U2-P1.0-Pad28)*%
X134430000Y-124512500D03*
D32*
%TO.P,U2,29,P1.1*%
%TO.N,unconnected-(U2-P1.1-Pad29)*%
X133592500Y-125350000D03*
%TO.P,U2,30,P1.2*%
%TO.N,unconnected-(U2-P1.2-Pad30)*%
X133592500Y-125750000D03*
%TO.P,U2,31,P1.3*%
%TO.N,unconnected-(U2-P1.3-Pad31)*%
X133592500Y-126150000D03*
%TO.P,U2,32,P1.4*%
%TO.N,unconnected-(U2-P1.4-Pad32)*%
X133592500Y-126550000D03*
%TO.P,U2,33,P1.5*%
%TO.N,unconnected-(U2-P1.5-Pad33)*%
X133592500Y-126950000D03*
%TO.P,U2,34,P1.6*%
%TO.N,unconnected-(U2-P1.6-Pad34)*%
X133592500Y-127350000D03*
%TO.P,U2,35,P1.7*%
%TO.N,unconnected-(U2-P1.7-Pad35)*%
X133592500Y-127750000D03*
%TO.P,U2,36,VDDA*%
%TO.N,/rodentdbs_1/VDDA*%
X133592500Y-128150000D03*
%TO.P,U2,37,P2.0*%
%TO.N,/rodentdbs_1/{slash}SHDN-BOOST*%
X133592500Y-128550000D03*
%TO.P,U2,38,P2.1*%
%TO.N,unconnected-(U2-P2.1-Pad38)*%
X133592500Y-128950000D03*
%TO.P,U2,39,P2.2*%
%TO.N,unconnected-(U2-P2.2-Pad39)*%
X133592500Y-129350000D03*
%TO.P,U2,40,P2.3*%
%TO.N,unconnected-(U2-P2.3-Pad40)*%
X133592500Y-129750000D03*
%TO.P,U2,41,P2.4*%
%TO.N,/rodentdbs_1/LED1*%
X133592500Y-130150000D03*
%TO.P,U2,42,P2.5*%
%TO.N,/rodentdbs_1/LED2*%
X133592500Y-130550000D03*
D33*
%TO.P,U2,43,P2.6*%
%TO.N,unconnected-(U2-P2.6-Pad43)*%
X134430000Y-131387500D03*
%TO.P,U2,44,P2.7*%
%TO.N,unconnected-(U2-P2.7-Pad44)*%
X134830000Y-131387500D03*
%TO.P,U2,45,VREF*%
%TO.N,/rodentdbs_1/VREF*%
X135230000Y-131387500D03*
%TO.P,U2,46,VDDA*%
%TO.N,/rodentdbs_1/VDDA*%
X135630000Y-131387500D03*
%TO.P,U2,47,P3.0*%
%TO.N,/rodentdbs_1/STIMA*%
X136030000Y-131387500D03*
%TO.P,U2,48,P3.1*%
%TO.N,/rodentdbs_1/STIMB*%
X136430000Y-131387500D03*
%TO.P,U2,49,P3.2*%
%TO.N,unconnected-(U2-P3.2-Pad49)*%
X136830000Y-131387500D03*
%TO.P,U2,50,P3.3*%
%TO.N,unconnected-(U2-P3.3-Pad50)*%
X137230000Y-131387500D03*
%TO.P,U2,51,P3.4*%
%TO.N,unconnected-(U2-P3.4-Pad51)*%
X137630000Y-131387500D03*
%TO.P,U2,52,P3.5*%
%TO.N,unconnected-(U2-P3.5-Pad52)*%
X138030000Y-131387500D03*
%TO.P,U2,53,P3.6*%
%TO.N,unconnected-(U2-P3.6-Pad53)*%
X138430000Y-131387500D03*
%TO.P,U2,54,P3.7*%
%TO.N,unconnected-(U2-P3.7-Pad54)*%
X138830000Y-131387500D03*
%TO.P,U2,55,VSSA*%
%TO.N,GND*%
X139230000Y-131387500D03*
%TO.P,U2,56,VCCD*%
%TO.N,/rodentdbs_1/VCCD*%
X139630000Y-131387500D03*
D34*
%TO.P,U2,57,GND_EP*%
%TO.N,GND*%
X137030000Y-127950000D03*
%TD*%
D35*
%TO.P,AE1,1,FEED*%
%TO.N,Net-(AE1-FEED)*%
X150209669Y-114870170D03*
%TO.P,AE1,2*%
%TO.N,N/C*%
X154860895Y-117195270D03*
D36*
%TO.P,AE1,3*%
X152155217Y-116793017D03*
%TO.P,AE1,4*%
X152915347Y-115272423D03*
%TD*%
D37*
%TO.N,GND*%
X135255000Y-129540000D03*
%TO.N,/rodentdbs_1/VCCD*%
X139065000Y-132715000D03*
%TO.N,GND*%
X147955000Y-118110000D03*
X137795000Y-121920000D03*
X134620000Y-118110000D03*
X135255000Y-128270000D03*
X137795000Y-128270000D03*
X137795000Y-125730000D03*
X134620000Y-125730000D03*
X137795000Y-137795000D03*
X147955000Y-137160000D03*
X154305000Y-135255000D03*
X151130000Y-132715000D03*
%TO.N,Net-(D1-A)*%
X140970000Y-139065000D03*
%TO.N,Net-(D2-A)*%
X144145000Y-140335000D03*
%TO.N,/rodentdbs_1/LED1*%
X132430343Y-129916768D03*
%TO.N,/rodentdbs_1/{slash}SHDN-BOOST*%
X154305000Y-124460000D03*
%TO.N,/rodentdbs_1/LED2*%
X132422836Y-130877972D03*
%TO.N,/rodentdbs_1/{slash}SHDN-BOOST*%
X132080000Y-128905000D03*
%TO.N,GND*%
X151130000Y-120650000D03*
X150495000Y-119380000D03*
X151765000Y-120015000D03*
%TO.N,/rodentdbs_1/SWDIO*%
X133985000Y-123190000D03*
%TO.N,/rodentdbs_1/SWDCLK*%
X133350000Y-123825000D03*
%TO.N,GND*%
X158115000Y-120650000D03*
X154940000Y-122555000D03*
X153670000Y-121920000D03*
X152400000Y-121285000D03*
X149860000Y-120015000D03*
X148590000Y-119380000D03*
X146685000Y-118745000D03*
X146685000Y-112395000D03*
X145415000Y-112395000D03*
X147320000Y-114300000D03*
X147955000Y-113030000D03*
X157480000Y-118745000D03*
%TO.N,/rodentdbs_1/VDDA*%
X151765000Y-127635000D03*
X135395378Y-132730875D03*
X132397500Y-127952500D03*
%TO.N,GND*%
X156845000Y-120015000D03*
X149225000Y-118745000D03*
X142875000Y-113030000D03*
X153035000Y-120650000D03*
X154305000Y-121285000D03*
X155575000Y-121920000D03*
X156210000Y-121285000D03*
X146050000Y-117475000D03*
X144780000Y-118110000D03*
X143510000Y-119380000D03*
X143510000Y-117475000D03*
X142240000Y-118745000D03*
X141605000Y-120015000D03*
X142875000Y-120650000D03*
X142875000Y-121920000D03*
X141605000Y-121920000D03*
X142875000Y-123825000D03*
X141605000Y-123825000D03*
%TO.N,/rodentdbs_1/VREF*%
X134620000Y-132412012D03*
%TO.N,/rodentdbs_1/VDDD*%
X135890000Y-123440000D03*
%TO.N,/rodentdbs_1/VDDR*%
X137795000Y-123440000D03*
X140335000Y-123440000D03*
X141605000Y-127250000D03*
%TO.N,/rodentdbs_1/VDDD*%
X147320000Y-134620000D03*
%TO.N,/rodentdbs_1/VDDR*%
X147320000Y-132715000D03*
%TO.N,/rodentdbs_1/{slash}XRES*%
X141605000Y-129155000D03*
%TO.N,/rodentdbs_1/VDDD*%
X141605000Y-131060000D03*
%TD*%
D38*
%TO.N,/rodentdbs_1/VCCD*%
X139630000Y-132150000D02*
X139065000Y-132715000D01*
X139630000Y-131387500D02*
X139630000Y-132150000D01*
%TO.N,GND*%
X136766724Y-121812381D02*
X137687381Y-121812381D01*
X137687381Y-121812381D02*
X137795000Y-121920000D01*
%TO.N,Net-(D1-A)*%
X140970000Y-139065000D02*
X141120000Y-139065000D01*
X141120000Y-139065000D02*
X141755000Y-139700000D01*
%TO.N,Net-(D2-A)*%
X144295000Y-140335000D02*
X144930000Y-140970000D01*
X144145000Y-140335000D02*
X144295000Y-140335000D01*
%TO.N,/rodentdbs_1/VREF*%
X135230000Y-132105000D02*
X134922988Y-132412012D01*
X134922988Y-132412012D02*
X134620000Y-132412012D01*
%TO.N,/rodentdbs_1/LED1*%
X133592500Y-130150000D02*
X132663575Y-130150000D01*
X132663575Y-130150000D02*
X132430343Y-129916768D01*
%TO.N,/rodentdbs_1/{slash}SHDN-BOOST*%
X154305000Y-124460000D02*
X154305000Y-125600000D01*
X154305000Y-125600000D02*
X154475000Y-125770000D01*
%TO.N,/rodentdbs_1/LED2*%
X132750808Y-130550000D02*
X132422836Y-130877972D01*
X133592500Y-130550000D02*
X132750808Y-130550000D01*
%TO.N,/rodentdbs_1/{slash}SHDN-BOOST*%
X132435000Y-128550000D02*
X132080000Y-128905000D01*
X133592500Y-128550000D02*
X132435000Y-128550000D01*
D39*
%TO.N,VCC*%
X150235890Y-123060193D02*
X154505193Y-123060193D01*
X154505193Y-123060193D02*
X156375000Y-124930000D01*
D38*
%TO.N,/rodentdbs_1/SWDIO*%
X135230000Y-123927478D02*
X134492522Y-123190000D01*
X134492522Y-123190000D02*
X133985000Y-123190000D01*
X135230000Y-124512500D02*
X135230000Y-123927478D01*
%TO.N,/rodentdbs_1/SWDCLK*%
X134830000Y-124512500D02*
X134830000Y-124036594D01*
X133360000Y-123815000D02*
X133350000Y-123825000D01*
X134608406Y-123815000D02*
X133360000Y-123815000D01*
X134830000Y-124036594D02*
X134608406Y-123815000D01*
%TO.N,Net-(AE1-FEED)*%
X146419700Y-115140693D02*
X146344980Y-115140693D01*
X146344980Y-115140693D02*
X145504287Y-114300000D01*
%TO.N,/rodentdbs_1/ANT*%
X145990300Y-115999307D02*
X145209307Y-115999307D01*
X145209307Y-115999307D02*
X144780000Y-115570000D01*
X140467500Y-126150000D02*
X141309116Y-126150000D01*
X141309116Y-126150000D02*
X142240000Y-125219116D01*
X142240000Y-119749607D02*
X145990300Y-115999307D01*
X142240000Y-125219116D02*
X142240000Y-119749607D01*
%TO.N,Net-(AE1-FEED)*%
X150209669Y-114870170D02*
X146690223Y-114870170D01*
X146690223Y-114870170D02*
X146419700Y-115140693D01*
D39*
%TO.N,/rodentdbs_1/VDDA*%
X151765000Y-128625000D02*
X151765000Y-127635000D01*
D38*
%TO.N,/rodentdbs_1/STIMB*%
X136430000Y-131387500D02*
X136430000Y-135234216D01*
X136430000Y-135234216D02*
X136071340Y-135592876D01*
%TO.N,/rodentdbs_1/STIMA*%
X136030000Y-131387500D02*
X136030000Y-133845000D01*
X136030000Y-133845000D02*
X135255000Y-134620000D01*
%TO.N,/rodentdbs_1/XTAL32O*%
X142855000Y-134930000D02*
X142855000Y-132100000D01*
X142855000Y-132100000D02*
X142875000Y-132080000D01*
X142875000Y-132080000D02*
X142875000Y-130425000D01*
X142875000Y-130425000D02*
X142200000Y-129750000D01*
X142200000Y-129750000D02*
X140467500Y-129750000D01*
X144780000Y-135255000D02*
X144455000Y-134930000D01*
X144455000Y-134930000D02*
X142855000Y-134930000D01*
%TO.N,/rodentdbs_1/XTAL32I*%
X140467500Y-130150000D02*
X141965000Y-130150000D01*
X142240000Y-131695000D02*
X140355000Y-133580000D01*
X140355000Y-133580000D02*
X140355000Y-134930000D01*
X141965000Y-130150000D02*
X142240000Y-130425000D01*
X142240000Y-130425000D02*
X142240000Y-131695000D01*
X140355000Y-134930000D02*
X140355000Y-136660000D01*
X140355000Y-136660000D02*
X139855000Y-137160000D01*
%TO.N,/rodentdbs_1/VDDA*%
X135630000Y-132496253D02*
X135395378Y-132730875D01*
X135630000Y-131387500D02*
X135630000Y-132496253D01*
X132595000Y-128150000D02*
X132397500Y-127952500D01*
X133592500Y-128150000D02*
X132595000Y-128150000D01*
D39*
%TO.N,VCC*%
X149225000Y-134790148D02*
X152229852Y-137795000D01*
D38*
%TO.N,GND*%
X141605000Y-120015000D02*
X141605000Y-119858746D01*
X142600000Y-124100000D02*
X142875000Y-123825000D01*
X142600000Y-125368233D02*
X142600000Y-124100000D01*
X141880000Y-124100000D02*
X141605000Y-123825000D01*
X141880000Y-125070000D02*
X141880000Y-124100000D01*
%TO.N,/rodentdbs_1/VREF*%
X135230000Y-131387500D02*
X135230000Y-132105000D01*
%TO.N,GND*%
X141200000Y-125750000D02*
X141880000Y-125070000D01*
%TO.N,/rodentdbs_1/VDDR*%
X140467500Y-125350000D02*
X139630000Y-124512500D01*
%TO.N,/rodentdbs_1/XTAL24O*%
X134466724Y-122016724D02*
X135255000Y-122805000D01*
X134466724Y-121812381D02*
X134466724Y-122016724D01*
X138830000Y-124512500D02*
X138830000Y-123440000D01*
X135255000Y-122805000D02*
X138195000Y-122805000D01*
X138195000Y-122805000D02*
X138830000Y-123440000D01*
%TO.N,/rodentdbs_1/XTAL24I*%
X136766724Y-120012381D02*
X136907381Y-120012381D01*
X139230000Y-122335000D02*
X139230000Y-124512500D01*
X136907381Y-120012381D02*
X139230000Y-122335000D01*
%TO.N,/rodentdbs_1/VDDD*%
X136430000Y-123980000D02*
X135890000Y-123440000D01*
X136430000Y-124512500D02*
X136430000Y-123980000D01*
%TO.N,/rodentdbs_1/VDDR*%
X137833406Y-123440000D02*
X137795000Y-123440000D01*
X138430000Y-124036594D02*
X137833406Y-123440000D01*
X138430000Y-124512500D02*
X138430000Y-124036594D01*
X139630000Y-124145000D02*
X140335000Y-123440000D01*
X139630000Y-124512500D02*
X139630000Y-124145000D01*
%TO.N,GND*%
X141418232Y-126550000D02*
X142600000Y-125368233D01*
X140467500Y-126550000D02*
X141418232Y-126550000D01*
X140467500Y-125750000D02*
X141200000Y-125750000D01*
%TO.N,/rodentdbs_1/VDDR*%
X141305000Y-126950000D02*
X141605000Y-127250000D01*
X140467500Y-126950000D02*
X141305000Y-126950000D01*
D39*
%TO.N,/rodentdbs_1/VDDD*%
X148255000Y-134620000D02*
X147320000Y-134620000D01*
%TO.N,/rodentdbs_1/VDDR*%
X148255000Y-132715000D02*
X147320000Y-132715000D01*
D38*
%TO.N,/rodentdbs_1/{slash}XRES*%
X141410000Y-129350000D02*
X141605000Y-129155000D01*
X140467500Y-129350000D02*
X141410000Y-129350000D01*
%TO.N,/rodentdbs_1/VDDD*%
X141095000Y-130550000D02*
X141605000Y-131060000D01*
X140467500Y-130550000D02*
X141095000Y-130550000D01*
D39*
%TO.N,/rodentdbs_1/VDDA*%
X154475000Y-128270000D02*
X152495000Y-128270000D01*
X152495000Y-128270000D02*
X152270000Y-128495000D01*
X151765000Y-128625000D02*
X152140000Y-128625000D01*
X152140000Y-128625000D02*
X152270000Y-128495000D01*
X152270000Y-126070000D02*
X152270000Y-128495000D01*
%TO.N,VCC*%
X149225000Y-133985000D02*
X149225000Y-134620000D01*
X149225000Y-132715000D02*
X149225000Y-133985000D01*
X149225000Y-133985000D02*
X149225000Y-134790148D01*
X159075000Y-126365000D02*
X159075000Y-133025000D01*
X154305000Y-137795000D02*
X152229852Y-137795000D01*
X159075000Y-133025000D02*
X154305000Y-137795000D01*
X156885000Y-125770000D02*
X157480000Y-126365000D01*
X157480000Y-126365000D02*
X159075000Y-126365000D01*
X156375000Y-125770000D02*
X156885000Y-125770000D01*
X159075000Y-126365000D02*
X159385000Y-126055000D01*
X158115000Y-123190000D02*
X156375000Y-124930000D01*
X156375000Y-124930000D02*
X156375000Y-125770000D01*
%TO.N,Net-(IC1-LX)*%
X156375000Y-128270000D02*
X156375000Y-130975000D01*
X156375000Y-130975000D02*
X156845000Y-131445000D01*
%TO.N,/rodentdbs_1/VDDA*%
X154475000Y-128270000D02*
X154475000Y-131015000D01*
X154475000Y-131015000D02*
X154045000Y-131445000D01*
%TD*%
%TA.AperFunction,Conductor*%
%TO.N,GND*%
G36*
X146819028Y-111804988D02*
G01*
X146822163Y-111805147D01*
X147060054Y-111823263D01*
X147587676Y-111863443D01*
X147590769Y-111863757D01*
X148352353Y-111960752D01*
X148355437Y-111961224D01*
X148897981Y-112058465D01*
X148960494Y-112089667D01*
X148996216Y-112149714D01*
X148993803Y-112219542D01*
X148987012Y-112235973D01*
X147929438Y-114351124D01*
X147881851Y-114402283D01*
X147818529Y-114419670D01*
X146719006Y-114419670D01*
X146712067Y-114419280D01*
X146696545Y-114417531D01*
X146673186Y-114414899D01*
X146615895Y-114425740D01*
X146613610Y-114426128D01*
X146555938Y-114434821D01*
X146547755Y-114437345D01*
X146539754Y-114440145D01*
X146528514Y-114446086D01*
X146460045Y-114460006D01*
X146457364Y-114459748D01*
X146325910Y-114445663D01*
X146261350Y-114418948D01*
X146251440Y-114410050D01*
X146226563Y-114385173D01*
X146193078Y-114323850D01*
X146190950Y-114284286D01*
X146200763Y-114192707D01*
X146175669Y-114053910D01*
X146112488Y-113927806D01*
X146016338Y-113824610D01*
X145991617Y-113808736D01*
X145966896Y-113792861D01*
X145632554Y-113625654D01*
X145620748Y-113621255D01*
X145577488Y-113605138D01*
X145577484Y-113605137D01*
X145577483Y-113605137D01*
X145437247Y-113590111D01*
X145437240Y-113590111D01*
X145402065Y-113596471D01*
X145332593Y-113589027D01*
X145278174Y-113545206D01*
X145269140Y-113529994D01*
X145253457Y-113498693D01*
X145157407Y-113395602D01*
X145108018Y-113363889D01*
X145099638Y-113359697D01*
X144725033Y-114108748D01*
X144506603Y-114545513D01*
X144459011Y-114596668D01*
X144391318Y-114613972D01*
X144383664Y-114612021D01*
X144370881Y-114616281D01*
X143991804Y-115374276D01*
X143771513Y-115814760D01*
X143771513Y-115814761D01*
X143787236Y-115822625D01*
X143787245Y-115822629D01*
X143843089Y-115843435D01*
X143843088Y-115843435D01*
X143985328Y-115858675D01*
X144012240Y-115853809D01*
X144081713Y-115861251D01*
X144136133Y-115905071D01*
X144145167Y-115920283D01*
X144157751Y-115945399D01*
X144255370Y-116050173D01*
X144294806Y-116075496D01*
X144305568Y-116082407D01*
X144654610Y-116256966D01*
X144710516Y-116277795D01*
X144725759Y-116279428D01*
X144781641Y-116285415D01*
X144846201Y-116312128D01*
X144886071Y-116369506D01*
X144888591Y-116439330D01*
X144856112Y-116496390D01*
X141941804Y-119410699D01*
X141936617Y-119415334D01*
X141906033Y-119439724D01*
X141906030Y-119439728D01*
X141873171Y-119487920D01*
X141871832Y-119489807D01*
X141837206Y-119536725D01*
X141833216Y-119544274D01*
X141829528Y-119551932D01*
X141812331Y-119607681D01*
X141811607Y-119609882D01*
X141792353Y-119664911D01*
X141790771Y-119673266D01*
X141789500Y-119681707D01*
X141789500Y-119740027D01*
X141789457Y-119742312D01*
X141788745Y-119761358D01*
X141787275Y-119800617D01*
X141788316Y-119809850D01*
X141787485Y-119809943D01*
X141789500Y-119825242D01*
X141789500Y-124981150D01*
X141769815Y-125048189D01*
X141753181Y-125068831D01*
X141605000Y-125217012D01*
X141605000Y-123190000D01*
X140935898Y-123190000D01*
X140915220Y-123135477D01*
X140825483Y-123005470D01*
X140707240Y-122900717D01*
X140707238Y-122900716D01*
X140707237Y-122900715D01*
X140567365Y-122827303D01*
X140413986Y-122789500D01*
X140413985Y-122789500D01*
X140256015Y-122789500D01*
X140256014Y-122789500D01*
X140102634Y-122827303D01*
X139962762Y-122900715D01*
X139886727Y-122968076D01*
X139823493Y-122997797D01*
X139754230Y-122988613D01*
X139700927Y-122943441D01*
X139680507Y-122876621D01*
X139680500Y-122875260D01*
X139680500Y-122363782D01*
X139680889Y-122356843D01*
X139685270Y-122317965D01*
X139674416Y-122260607D01*
X139674037Y-122258367D01*
X139665348Y-122200715D01*
X139665348Y-122200713D01*
X139665346Y-122200709D01*
X139662836Y-122192571D01*
X139660023Y-122184532D01*
X139660023Y-122184528D01*
X139632760Y-122132948D01*
X139631727Y-122130900D01*
X139615508Y-122097220D01*
X139606425Y-122078358D01*
X139606423Y-122078356D01*
X139606423Y-122078355D01*
X139601642Y-122071342D01*
X139596566Y-122064465D01*
X139596565Y-122064462D01*
X139555345Y-122023242D01*
X139553752Y-122021590D01*
X139529286Y-121995221D01*
X139514059Y-121978809D01*
X139506792Y-121973014D01*
X139507312Y-121972361D01*
X139495067Y-121962964D01*
X137803543Y-120271439D01*
X137770058Y-120210116D01*
X137767224Y-120183758D01*
X137767224Y-119429120D01*
X137762260Y-119395054D01*
X137757297Y-119360988D01*
X137705922Y-119255898D01*
X137705920Y-119255896D01*
X137705920Y-119255895D01*
X137623209Y-119173184D01*
X137518115Y-119121807D01*
X137449985Y-119111881D01*
X137449984Y-119111881D01*
X136083464Y-119111881D01*
X136083463Y-119111881D01*
X136015332Y-119121807D01*
X135910238Y-119173184D01*
X135827527Y-119255895D01*
X135776150Y-119360989D01*
X135766224Y-119429120D01*
X135766224Y-120595641D01*
X135776150Y-120663772D01*
X135827527Y-120768866D01*
X135910238Y-120851577D01*
X135910239Y-120851577D01*
X135910241Y-120851579D01*
X136015331Y-120902954D01*
X136083464Y-120912881D01*
X136083468Y-120912881D01*
X136146967Y-120942024D01*
X136153270Y-120947904D01*
X136930066Y-121724699D01*
X136963551Y-121786022D01*
X136958567Y-121855713D01*
X136930066Y-121900061D01*
X136854405Y-121975722D01*
X136793082Y-122009207D01*
X136723390Y-122004223D01*
X136679043Y-121975722D01*
X135805470Y-121102149D01*
X135805469Y-121102150D01*
X135776637Y-121161130D01*
X135776634Y-121161136D01*
X135766724Y-121229161D01*
X135766725Y-122230500D01*
X135747041Y-122297539D01*
X135694237Y-122343294D01*
X135642725Y-122354500D01*
X135591224Y-122354500D01*
X135524185Y-122334815D01*
X135478430Y-122282011D01*
X135467224Y-122230500D01*
X135467224Y-121229120D01*
X135460629Y-121183859D01*
X135457297Y-121160988D01*
X135405922Y-121055898D01*
X135405920Y-121055896D01*
X135405920Y-121055895D01*
X135323209Y-120973184D01*
X135218115Y-120921807D01*
X135149980Y-120911880D01*
X135086479Y-120882736D01*
X135080177Y-120876857D01*
X134466724Y-120263404D01*
X133853270Y-120876857D01*
X133791947Y-120910342D01*
X133783467Y-120911880D01*
X133715332Y-120921807D01*
X133610238Y-120973184D01*
X133527527Y-121055895D01*
X133476150Y-121160989D01*
X133466224Y-121229120D01*
X133466224Y-122395641D01*
X133476150Y-122463772D01*
X133527525Y-122568863D01*
X133531486Y-122574410D01*
X133554419Y-122640409D01*
X133538031Y-122708330D01*
X133512795Y-122739277D01*
X133494516Y-122755470D01*
X133404781Y-122885475D01*
X133404780Y-122885476D01*
X133348763Y-123033180D01*
X133343790Y-123074138D01*
X133316168Y-123138316D01*
X133258234Y-123177372D01*
X133250369Y-123179588D01*
X133208125Y-123190000D01*
X132715000Y-123190000D01*
X132715000Y-123664916D01*
X132713762Y-123668181D01*
X132694721Y-123824999D01*
X132694721Y-123825000D01*
X132713762Y-123981818D01*
X132715000Y-123985082D01*
X132714999Y-127348237D01*
X132648606Y-127347289D01*
X132636882Y-127342448D01*
X132636877Y-127342463D01*
X132629865Y-127339803D01*
X132476486Y-127302000D01*
X132476485Y-127302000D01*
X132318515Y-127302000D01*
X132318514Y-127302000D01*
X132165134Y-127339803D01*
X132025262Y-127413215D01*
X131907016Y-127517971D01*
X131817281Y-127647975D01*
X131817280Y-127647976D01*
X131761262Y-127795681D01*
X131742222Y-127952499D01*
X131742222Y-127952500D01*
X131761263Y-128109318D01*
X131794523Y-128197018D01*
X131799890Y-128266681D01*
X131766743Y-128328187D01*
X131736211Y-128350783D01*
X131707764Y-128365714D01*
X131707760Y-128365717D01*
X131589516Y-128470471D01*
X131499781Y-128600475D01*
X131499780Y-128600476D01*
X131443762Y-128748181D01*
X131424721Y-128904999D01*
X131424721Y-128905000D01*
X131443762Y-129061818D01*
X131477206Y-129150000D01*
X131499780Y-129209523D01*
X131589517Y-129339530D01*
X131707760Y-129444283D01*
X131782344Y-129483428D01*
X131832556Y-129532012D01*
X131848531Y-129600031D01*
X131840660Y-129637195D01*
X131794106Y-129759949D01*
X131775065Y-129916767D01*
X131775065Y-129916768D01*
X131794105Y-130073586D01*
X131824777Y-130154459D01*
X131850123Y-130221291D01*
X131852769Y-130225124D01*
X131919286Y-130321492D01*
X131941169Y-130387847D01*
X131923703Y-130455499D01*
X131919286Y-130462372D01*
X131842617Y-130573447D01*
X131842616Y-130573448D01*
X131786598Y-130721153D01*
X131767558Y-130877971D01*
X131767558Y-130877972D01*
X131786598Y-131034790D01*
X131814953Y-131109554D01*
X131842616Y-131182495D01*
X131932353Y-131312502D01*
X132050596Y-131417255D01*
X132050598Y-131417256D01*
X132190470Y-131490668D01*
X132343850Y-131528472D01*
X132343851Y-131528472D01*
X132501821Y-131528472D01*
X132655201Y-131490668D01*
X132655200Y-131490667D01*
X132715000Y-131459281D01*
X132715000Y-132715000D01*
X134039198Y-132715000D01*
X134039780Y-132716535D01*
X134129517Y-132846542D01*
X134247760Y-132951295D01*
X134247762Y-132951296D01*
X134387634Y-133024708D01*
X134541014Y-133062512D01*
X134541015Y-133062512D01*
X134698987Y-133062512D01*
X134698989Y-133062511D01*
X134731156Y-133054583D01*
X134800958Y-133057651D01*
X134858020Y-133097970D01*
X134862882Y-133104539D01*
X134879504Y-133128620D01*
X134904895Y-133165405D01*
X135023138Y-133270158D01*
X135163013Y-133343571D01*
X135176562Y-133346910D01*
X135179631Y-133347667D01*
X135240012Y-133382823D01*
X135271800Y-133445043D01*
X135264904Y-133514571D01*
X135221513Y-133569334D01*
X135179846Y-133588407D01*
X135175383Y-133589516D01*
X135175384Y-133589516D01*
X135175379Y-133589518D01*
X135116815Y-133625702D01*
X135116810Y-133625705D01*
X135116810Y-133625706D01*
X134299808Y-134311252D01*
X134299806Y-134311253D01*
X134299805Y-134311255D01*
X134253996Y-134362651D01*
X134206515Y-134469558D01*
X134206515Y-134469559D01*
X134196320Y-134586088D01*
X134224515Y-134699613D01*
X134224518Y-134699620D01*
X134260702Y-134758184D01*
X134260706Y-134758190D01*
X134946252Y-135575192D01*
X134997652Y-135621004D01*
X135104558Y-135668484D01*
X135109149Y-135668885D01*
X135123769Y-135670165D01*
X135188839Y-135695616D01*
X135229818Y-135752206D01*
X135234253Y-135767904D01*
X135234843Y-135770679D01*
X135290087Y-135940705D01*
X135290090Y-135940711D01*
X135379481Y-136095541D01*
X135421152Y-136141822D01*
X135499104Y-136228397D01*
X135499107Y-136228399D01*
X135499110Y-136228402D01*
X135643747Y-136333488D01*
X135807073Y-136406205D01*
X135981949Y-136443376D01*
X135981950Y-136443376D01*
X136160729Y-136443376D01*
X136160731Y-136443376D01*
X136335607Y-136406205D01*
X136498933Y-136333488D01*
X136643570Y-136228402D01*
X136763199Y-136095541D01*
X136852590Y-135940711D01*
X136907837Y-135770679D01*
X136926525Y-135592876D01*
X136907837Y-135415073D01*
X136886569Y-135349617D01*
X136880500Y-135311299D01*
X136880500Y-135243810D01*
X136880542Y-135241524D01*
X136882725Y-135183206D01*
X136881685Y-135173974D01*
X136882513Y-135173880D01*
X136880500Y-135158577D01*
X136880500Y-132715000D01*
X138409722Y-132715000D01*
X138428762Y-132871818D01*
X138484780Y-133019522D01*
X138484780Y-133019523D01*
X138574517Y-133149530D01*
X138692760Y-133254283D01*
X138692762Y-133254284D01*
X138832634Y-133327696D01*
X138986014Y-133365500D01*
X138986015Y-133365500D01*
X139143985Y-133365500D01*
X139297365Y-133327696D01*
X139318224Y-133316747D01*
X139386732Y-133303021D01*
X139451786Y-133328512D01*
X139492731Y-133385127D01*
X139496568Y-133454891D01*
X139487253Y-133481002D01*
X139444426Y-133568606D01*
X139444426Y-133568607D01*
X139434500Y-133636739D01*
X139434500Y-135603260D01*
X139444426Y-135671391D01*
X139495803Y-135776485D01*
X139578514Y-135859196D01*
X139578515Y-135859196D01*
X139578517Y-135859198D01*
X139683607Y-135910573D01*
X139717673Y-135915536D01*
X139751739Y-135920500D01*
X139751740Y-135920500D01*
X139780500Y-135920500D01*
X139847539Y-135940185D01*
X139893294Y-135992989D01*
X139904500Y-136044500D01*
X139904500Y-136375500D01*
X139884815Y-136442539D01*
X139832011Y-136488294D01*
X139780501Y-136499500D01*
X139668088Y-136499500D01*
X139668081Y-136499501D01*
X139609664Y-136505780D01*
X139477514Y-136555069D01*
X139477507Y-136555073D01*
X139364597Y-136639597D01*
X139280073Y-136752507D01*
X139280069Y-136752514D01*
X139230782Y-136884661D01*
X139230781Y-136884665D01*
X139224500Y-136943085D01*
X139224500Y-136943092D01*
X139224500Y-136943093D01*
X139224500Y-137376912D01*
X139224501Y-137376918D01*
X139230780Y-137435335D01*
X139280069Y-137567485D01*
X139280070Y-137567487D01*
X139280071Y-137567489D01*
X139364597Y-137680403D01*
X139477511Y-137764929D01*
X139609665Y-137814219D01*
X139668085Y-137820500D01*
X140041914Y-137820499D01*
X140100335Y-137814219D01*
X140232489Y-137764929D01*
X140261107Y-137743505D01*
X140326567Y-137719088D01*
X140394841Y-137733938D01*
X140409729Y-137743506D01*
X140437750Y-137764483D01*
X140569775Y-137813726D01*
X140628113Y-137819999D01*
X140628130Y-137820000D01*
X140637500Y-137820000D01*
X140637500Y-137337500D01*
X140992500Y-137337500D01*
X140992500Y-137820000D01*
X141001870Y-137820000D01*
X141001886Y-137819999D01*
X141060224Y-137813726D01*
X141192249Y-137764483D01*
X141305044Y-137680044D01*
X141389483Y-137567249D01*
X141438726Y-137435224D01*
X141444999Y-137376886D01*
X141445000Y-137376869D01*
X141445000Y-137337500D01*
X140992500Y-137337500D01*
X140637500Y-137337500D01*
X140637500Y-137106500D01*
X140657185Y-137039461D01*
X140709989Y-136993706D01*
X140761500Y-136982500D01*
X141445000Y-136982500D01*
X141445000Y-136943130D01*
X141444999Y-136943113D01*
X141438726Y-136884775D01*
X141389483Y-136752750D01*
X141305044Y-136639955D01*
X141192249Y-136555516D01*
X141060224Y-136506273D01*
X141001886Y-136500000D01*
X140929500Y-136500000D01*
X140862461Y-136480315D01*
X140816706Y-136427511D01*
X140809090Y-136392500D01*
X144120000Y-136392500D01*
X144120000Y-136401886D01*
X144126273Y-136460224D01*
X144175516Y-136592249D01*
X144259955Y-136705044D01*
X144372750Y-136789483D01*
X144504775Y-136838726D01*
X144563113Y-136844999D01*
X144563130Y-136845000D01*
X144602500Y-136845000D01*
X144602500Y-136392500D01*
X144957500Y-136392500D01*
X144957500Y-136845000D01*
X144996870Y-136845000D01*
X144996886Y-136844999D01*
X145055224Y-136838726D01*
X145187249Y-136789483D01*
X145300044Y-136705044D01*
X145384483Y-136592249D01*
X145433726Y-136460224D01*
X145439999Y-136401886D01*
X145440000Y-136401869D01*
X145440000Y-136392500D01*
X144957500Y-136392500D01*
X144602500Y-136392500D01*
X144120000Y-136392500D01*
X140809090Y-136392500D01*
X140805500Y-136376000D01*
X140805500Y-136044010D01*
X140825185Y-135976971D01*
X140877989Y-135931216D01*
X140913947Y-135922021D01*
X140913820Y-135921147D01*
X140918260Y-135920500D01*
X140986393Y-135910573D01*
X141091483Y-135859198D01*
X141174198Y-135776483D01*
X141225573Y-135671393D01*
X141235500Y-135603260D01*
X141235500Y-133636740D01*
X141225573Y-133568607D01*
X141191537Y-133498986D01*
X141179778Y-133430114D01*
X141207122Y-133365816D01*
X141215247Y-133356855D01*
X142192819Y-132379284D01*
X142254142Y-132345799D01*
X142323834Y-132350783D01*
X142379767Y-132392655D01*
X142404184Y-132458119D01*
X142404500Y-132466965D01*
X142404500Y-133195500D01*
X142384815Y-133262539D01*
X142332011Y-133308294D01*
X142280500Y-133319500D01*
X142251739Y-133319500D01*
X142183608Y-133329426D01*
X142078514Y-133380803D01*
X141995803Y-133463514D01*
X141944426Y-133568608D01*
X141934500Y-133636739D01*
X141934500Y-135603260D01*
X141944426Y-135671391D01*
X141995803Y-135776485D01*
X142078514Y-135859196D01*
X142078515Y-135859196D01*
X142078517Y-135859198D01*
X142183607Y-135910573D01*
X142217673Y-135915536D01*
X142251739Y-135920500D01*
X142251740Y-135920500D01*
X143418261Y-135920500D01*
X143440971Y-135917190D01*
X143486393Y-135910573D01*
X143591483Y-135859198D01*
X143674198Y-135776483D01*
X143725573Y-135671393D01*
X143735500Y-135603260D01*
X143735500Y-135504499D01*
X143755185Y-135437461D01*
X143807989Y-135391706D01*
X143859500Y-135380500D01*
X144001514Y-135380500D01*
X144068553Y-135400185D01*
X144114308Y-135452989D01*
X144124804Y-135491247D01*
X144125780Y-135500335D01*
X144175069Y-135632485D01*
X144175073Y-135632492D01*
X144196494Y-135661107D01*
X144220911Y-135726571D01*
X144206059Y-135794844D01*
X144196494Y-135809727D01*
X144175517Y-135837748D01*
X144126273Y-135969775D01*
X144120000Y-136028113D01*
X144120000Y-136037500D01*
X145440000Y-136037500D01*
X145440000Y-136028130D01*
X145439999Y-136028113D01*
X145433726Y-135969775D01*
X145384483Y-135837750D01*
X145363506Y-135809729D01*
X145339088Y-135744265D01*
X145353939Y-135675992D01*
X145363499Y-135661115D01*
X145384929Y-135632489D01*
X145434219Y-135500335D01*
X145440500Y-135441915D01*
X145440499Y-135068086D01*
X145434219Y-135009665D01*
X145384929Y-134877511D01*
X145300403Y-134764597D01*
X145187489Y-134680071D01*
X145187487Y-134680070D01*
X145187485Y-134680069D01*
X145055338Y-134630782D01*
X145055337Y-134630781D01*
X145055335Y-134630781D01*
X144996915Y-134624500D01*
X144996906Y-134624500D01*
X144844229Y-134624500D01*
X144777190Y-134604815D01*
X144772576Y-134601237D01*
X144772558Y-134601265D01*
X144748833Y-134585090D01*
X144716669Y-134563161D01*
X144714803Y-134561836D01*
X144667886Y-134527210D01*
X144667882Y-134527207D01*
X144667877Y-134527205D01*
X144660297Y-134523198D01*
X144652675Y-134519528D01*
X144596941Y-134502337D01*
X144594752Y-134501617D01*
X144576297Y-134495160D01*
X144539695Y-134482352D01*
X144531326Y-134480768D01*
X144522904Y-134479500D01*
X144522902Y-134479500D01*
X144464578Y-134479500D01*
X144462294Y-134479457D01*
X144438402Y-134478563D01*
X144403989Y-134477275D01*
X144394756Y-134478316D01*
X144394662Y-134477486D01*
X144379364Y-134479500D01*
X143859500Y-134479500D01*
X143792461Y-134459815D01*
X143746706Y-134407011D01*
X143735500Y-134355500D01*
X143735500Y-133636739D01*
X143725573Y-133568608D01*
X143725573Y-133568607D01*
X143674198Y-133463517D01*
X143674196Y-133463515D01*
X143674196Y-133463514D01*
X143591485Y-133380803D01*
X143588048Y-133379123D01*
X143486393Y-133329427D01*
X143486391Y-133329426D01*
X143413820Y-133318853D01*
X143414053Y-133317249D01*
X143355064Y-133295162D01*
X143313263Y-133239176D01*
X143305500Y-133195989D01*
X143305500Y-132234768D01*
X143312459Y-132193812D01*
X143322646Y-132164700D01*
X143324228Y-132156336D01*
X143325500Y-132147899D01*
X143325500Y-132089578D01*
X143325542Y-132087294D01*
X143327724Y-132028990D01*
X143327723Y-132028989D01*
X143326684Y-132019761D01*
X143327513Y-132019667D01*
X143325500Y-132004366D01*
X143325500Y-130453782D01*
X143325889Y-130446843D01*
X143330270Y-130407965D01*
X143319416Y-130350607D01*
X143319037Y-130348367D01*
X143314987Y-130321492D01*
X143310348Y-130290713D01*
X143310346Y-130290709D01*
X143307836Y-130282571D01*
X143305023Y-130274532D01*
X143305023Y-130274528D01*
X143277760Y-130222948D01*
X143276727Y-130220900D01*
X143251425Y-130168358D01*
X143251423Y-130168356D01*
X143251423Y-130168355D01*
X143246642Y-130161342D01*
X143241566Y-130154465D01*
X143241565Y-130154462D01*
X143200345Y-130113242D01*
X143198752Y-130111590D01*
X143184597Y-130096334D01*
X143159059Y-130068809D01*
X143151792Y-130063014D01*
X143152312Y-130062361D01*
X143140067Y-130052964D01*
X142538908Y-129451805D01*
X142534271Y-129446617D01*
X142509877Y-129416028D01*
X142486973Y-129400412D01*
X142461669Y-129383161D01*
X142459803Y-129381836D01*
X142412886Y-129347210D01*
X142412882Y-129347207D01*
X142412877Y-129347205D01*
X142405297Y-129343198D01*
X142397675Y-129339528D01*
X142373278Y-129332003D01*
X142341862Y-129322312D01*
X142339698Y-129321598D01*
X142338394Y-129321142D01*
X142338111Y-129321043D01*
X142281393Y-129280241D01*
X142255737Y-129215252D01*
X142256134Y-129189123D01*
X142260278Y-129155000D01*
X142241638Y-129001483D01*
X142241237Y-128998181D01*
X142205897Y-128904999D01*
X142185220Y-128850477D01*
X142095483Y-128720470D01*
X141977240Y-128615717D01*
X141977238Y-128615716D01*
X141977237Y-128615715D01*
X141837365Y-128542303D01*
X141683986Y-128504500D01*
X141683985Y-128504500D01*
X141605000Y-128504500D01*
X141605000Y-127900500D01*
X141683985Y-127900500D01*
X141837365Y-127862696D01*
X141896767Y-127831519D01*
X141977240Y-127789283D01*
X142095483Y-127684530D01*
X142185220Y-127554523D01*
X142241237Y-127406818D01*
X142260278Y-127250000D01*
X142258863Y-127238342D01*
X142241237Y-127093181D01*
X142217851Y-127031518D01*
X142185220Y-126945477D01*
X142095483Y-126815470D01*
X141977240Y-126710717D01*
X141977238Y-126710716D01*
X141977237Y-126710715D01*
X141837365Y-126637303D01*
X141747218Y-126615085D01*
X141686837Y-126579929D01*
X141655048Y-126517710D01*
X141661944Y-126448181D01*
X141689209Y-126407009D01*
X142538205Y-125558012D01*
X142543373Y-125553393D01*
X142573970Y-125528995D01*
X142579200Y-125521323D01*
X142633223Y-125477022D01*
X142702626Y-125468959D01*
X142765371Y-125499699D01*
X142801536Y-125559481D01*
X142799639Y-125629325D01*
X142797418Y-125635610D01*
X142692452Y-125909055D01*
X142596807Y-126266004D01*
X142596807Y-126266006D01*
X142539002Y-126630977D01*
X142519662Y-126999999D01*
X142519662Y-127000000D01*
X142539002Y-127369022D01*
X142582492Y-127643608D01*
X142596808Y-127733999D01*
X142664523Y-127986715D01*
X142692451Y-128090941D01*
X142824877Y-128435921D01*
X142992640Y-128765173D01*
X143193891Y-129075073D01*
X143193895Y-129075078D01*
X143193897Y-129075081D01*
X143426448Y-129362257D01*
X143687743Y-129623552D01*
X143974919Y-129856103D01*
X143974923Y-129856105D01*
X143974926Y-129856108D01*
X144284826Y-130057359D01*
X144284831Y-130057362D01*
X144614082Y-130225124D01*
X144820723Y-130304446D01*
X144938144Y-130349520D01*
X144959066Y-130357551D01*
X145316001Y-130453192D01*
X145680979Y-130510998D01*
X146029589Y-130529268D01*
X146049999Y-130530338D01*
X146050000Y-130530338D01*
X146050001Y-130530338D01*
X146069340Y-130529324D01*
X146419021Y-130510998D01*
X146783999Y-130453192D01*
X147140934Y-130357551D01*
X147154092Y-130352500D01*
X150940000Y-130352500D01*
X150940000Y-130437697D01*
X150954800Y-130550104D01*
X150954801Y-130550108D01*
X151012736Y-130689978D01*
X151104905Y-130810094D01*
X151225021Y-130902263D01*
X151364891Y-130960198D01*
X151364895Y-130960199D01*
X151477302Y-130974999D01*
X151477317Y-130975000D01*
X151587500Y-130975000D01*
X151587500Y-130352500D01*
X151942500Y-130352500D01*
X151942500Y-130975000D01*
X152052683Y-130975000D01*
X152052697Y-130974999D01*
X152165104Y-130960199D01*
X152165108Y-130960198D01*
X152304978Y-130902263D01*
X152425094Y-130810094D01*
X152517263Y-130689978D01*
X152575198Y-130550108D01*
X152575199Y-130550104D01*
X152589999Y-130437697D01*
X152590000Y-130437683D01*
X152590000Y-130352500D01*
X151942500Y-130352500D01*
X151587500Y-130352500D01*
X150940000Y-130352500D01*
X147154092Y-130352500D01*
X147485918Y-130225124D01*
X147815169Y-130057362D01*
X148125081Y-129856103D01*
X148412257Y-129623552D01*
X148673552Y-129362257D01*
X148906103Y-129075081D01*
X149027772Y-128887727D01*
X150939500Y-128887727D01*
X150944619Y-128926605D01*
X150954042Y-128998181D01*
X150954313Y-129000235D01*
X150954313Y-129000236D01*
X150974720Y-129049504D01*
X151012302Y-129140233D01*
X151104549Y-129260451D01*
X151158618Y-129301940D01*
X151199819Y-129358366D01*
X151203974Y-129428112D01*
X151169761Y-129489033D01*
X151158618Y-129498689D01*
X151104906Y-129539904D01*
X151012736Y-129660021D01*
X150954801Y-129799891D01*
X150954800Y-129799895D01*
X150940000Y-129912302D01*
X150940000Y-129997500D01*
X152590000Y-129997500D01*
X152590000Y-129912316D01*
X152589999Y-129912302D01*
X152575199Y-129799895D01*
X152575198Y-129799891D01*
X152517263Y-129660021D01*
X152425092Y-129539903D01*
X152371382Y-129498689D01*
X152330180Y-129442261D01*
X152326025Y-129372515D01*
X152360238Y-129311595D01*
X152371372Y-129301947D01*
X152425451Y-129260451D01*
X152517698Y-129140233D01*
X152575687Y-129000236D01*
X152585380Y-128926602D01*
X152613646Y-128862708D01*
X152614449Y-128861768D01*
X152635108Y-128837925D01*
X152638108Y-128834705D01*
X152666002Y-128806814D01*
X152727327Y-128773332D01*
X152753678Y-128770500D01*
X153733842Y-128770500D01*
X153800881Y-128790185D01*
X153846636Y-128842989D01*
X153856546Y-128876622D01*
X153859426Y-128896391D01*
X153859427Y-128896393D01*
X153910802Y-129001483D01*
X153938181Y-129028862D01*
X153971666Y-129090183D01*
X153974500Y-129116543D01*
X153974500Y-130280500D01*
X153954815Y-130347539D01*
X153902011Y-130393294D01*
X153850501Y-130404500D01*
X153630636Y-130404500D01*
X153513246Y-130419953D01*
X153513237Y-130419956D01*
X153367160Y-130480463D01*
X153241718Y-130576718D01*
X153145463Y-130702160D01*
X153084956Y-130848237D01*
X153084955Y-130848239D01*
X153069501Y-130965629D01*
X153069501Y-130965636D01*
X153069500Y-130965645D01*
X153069500Y-133194363D01*
X153084953Y-133311753D01*
X153084956Y-133311762D01*
X153123194Y-133404078D01*
X153145464Y-133457841D01*
X153241718Y-133583282D01*
X153367159Y-133679536D01*
X153513238Y-133740044D01*
X153630639Y-133755500D01*
X154459360Y-133755499D01*
X154459363Y-133755499D01*
X154576753Y-133740046D01*
X154576757Y-133740044D01*
X154576762Y-133740044D01*
X154722841Y-133679536D01*
X154848282Y-133583282D01*
X154944536Y-133457841D01*
X155005044Y-133311762D01*
X155020500Y-133194361D01*
X155020499Y-130965640D01*
X155020499Y-130965639D01*
X155020499Y-130965636D01*
X155005046Y-130848246D01*
X155005044Y-130848239D01*
X155005044Y-130848238D01*
X154990037Y-130812008D01*
X154984939Y-130799699D01*
X154975500Y-130752247D01*
X154975500Y-129116543D01*
X154995185Y-129049504D01*
X155011815Y-129028865D01*
X155039198Y-129001483D01*
X155090573Y-128896393D01*
X155100500Y-128828260D01*
X155100500Y-127711740D01*
X155096535Y-127684530D01*
X155091210Y-127647977D01*
X155090573Y-127643607D01*
X155039198Y-127538517D01*
X155039196Y-127538515D01*
X155039196Y-127538514D01*
X154956485Y-127455803D01*
X154851391Y-127404426D01*
X154783261Y-127394500D01*
X154783260Y-127394500D01*
X154166740Y-127394500D01*
X154166739Y-127394500D01*
X154098608Y-127404426D01*
X153993514Y-127455803D01*
X153910803Y-127538514D01*
X153859426Y-127643608D01*
X153856546Y-127663378D01*
X153827402Y-127726879D01*
X153768553Y-127764543D01*
X153733842Y-127769500D01*
X152894500Y-127769500D01*
X152827461Y-127749815D01*
X152781706Y-127697011D01*
X152770500Y-127645500D01*
X152770500Y-126628260D01*
X152790185Y-126561221D01*
X152795215Y-126553974D01*
X152874929Y-126447489D01*
X152924219Y-126315335D01*
X152930500Y-126256915D01*
X152930499Y-125883086D01*
X152924219Y-125824665D01*
X152918624Y-125809665D01*
X152874930Y-125692514D01*
X152874929Y-125692511D01*
X152853504Y-125663890D01*
X152829088Y-125598428D01*
X152843940Y-125530155D01*
X152853507Y-125515269D01*
X152874483Y-125487249D01*
X152874484Y-125487247D01*
X152923726Y-125355224D01*
X152929999Y-125296886D01*
X152930000Y-125296869D01*
X152930000Y-125287500D01*
X151610000Y-125287500D01*
X151610000Y-125296886D01*
X151616273Y-125355224D01*
X151665516Y-125487248D01*
X151686494Y-125515272D01*
X151710910Y-125580737D01*
X151696058Y-125649010D01*
X151686496Y-125663889D01*
X151665072Y-125692509D01*
X151665069Y-125692514D01*
X151615782Y-125824661D01*
X151615781Y-125824665D01*
X151609500Y-125883085D01*
X151609500Y-125883092D01*
X151609500Y-125883093D01*
X151609500Y-126256911D01*
X151609501Y-126256918D01*
X151615780Y-126315335D01*
X151665069Y-126447485D01*
X151665070Y-126447486D01*
X151665071Y-126447489D01*
X151744768Y-126553952D01*
X151769184Y-126619414D01*
X151769500Y-126628260D01*
X151769500Y-126866774D01*
X151749815Y-126933813D01*
X151697011Y-126979568D01*
X151675175Y-126987171D01*
X151532633Y-127022304D01*
X151392762Y-127095715D01*
X151274516Y-127200471D01*
X151184781Y-127330475D01*
X151184780Y-127330476D01*
X151128762Y-127478181D01*
X151109722Y-127634999D01*
X151109722Y-127635000D01*
X151128762Y-127791814D01*
X151128762Y-127791816D01*
X151148694Y-127844372D01*
X151154060Y-127914036D01*
X151120911Y-127975541D01*
X151108241Y-127986715D01*
X151104552Y-127989545D01*
X151012300Y-128109770D01*
X150954313Y-128249763D01*
X150954313Y-128249764D01*
X150939500Y-128362272D01*
X150939500Y-128887727D01*
X149027772Y-128887727D01*
X149107362Y-128765169D01*
X149275124Y-128435918D01*
X149407551Y-128090934D01*
X149503192Y-127733999D01*
X149560998Y-127369021D01*
X149580338Y-127000000D01*
X149560998Y-126630979D01*
X149503192Y-126266001D01*
X149407551Y-125909066D01*
X149275124Y-125564082D01*
X149107362Y-125234831D01*
X149101881Y-125226391D01*
X148911027Y-124932500D01*
X151610000Y-124932500D01*
X152092500Y-124932500D01*
X152092500Y-124480000D01*
X152447500Y-124480000D01*
X152447500Y-124932500D01*
X152930000Y-124932500D01*
X152930000Y-124923130D01*
X152929999Y-124923113D01*
X152923726Y-124864775D01*
X152874483Y-124732750D01*
X152790044Y-124619955D01*
X152677249Y-124535516D01*
X152545224Y-124486273D01*
X152486886Y-124480000D01*
X152447500Y-124480000D01*
X152092500Y-124480000D01*
X152053113Y-124480000D01*
X151994775Y-124486273D01*
X151862750Y-124535516D01*
X151749955Y-124619955D01*
X151665516Y-124732750D01*
X151616273Y-124864775D01*
X151610000Y-124923113D01*
X151610000Y-124932500D01*
X148911027Y-124932500D01*
X148906108Y-124924926D01*
X148906105Y-124924923D01*
X148906103Y-124924919D01*
X148673552Y-124637743D01*
X148412257Y-124376448D01*
X148125081Y-124143897D01*
X148125078Y-124143895D01*
X148125073Y-124143891D01*
X147815173Y-123942640D01*
X147485921Y-123774877D01*
X147140941Y-123642451D01*
X147091667Y-123629248D01*
X146783999Y-123546808D01*
X146783995Y-123546807D01*
X146783994Y-123546807D01*
X146419022Y-123489002D01*
X146050001Y-123469662D01*
X146049999Y-123469662D01*
X145680977Y-123489002D01*
X145316006Y-123546807D01*
X145316004Y-123546807D01*
X144959058Y-123642451D01*
X144614078Y-123774877D01*
X144284826Y-123942640D01*
X143974926Y-124143891D01*
X143687747Y-124376444D01*
X143687739Y-124376451D01*
X143426451Y-124637739D01*
X143426444Y-124637747D01*
X143193891Y-124924926D01*
X142992638Y-125234828D01*
X142992632Y-125234839D01*
X142921686Y-125374078D01*
X142873712Y-125424874D01*
X142805891Y-125441669D01*
X142739756Y-125419131D01*
X142696305Y-125364416D01*
X142691174Y-125313254D01*
X142687298Y-125313110D01*
X142687356Y-125311556D01*
X142689650Y-125298057D01*
X142689470Y-125296263D01*
X142689114Y-125296210D01*
X142690500Y-125287015D01*
X142690500Y-125228710D01*
X142690542Y-125226424D01*
X142692725Y-125168106D01*
X142691685Y-125158874D01*
X142692513Y-125158780D01*
X142690500Y-125143477D01*
X142690500Y-120788749D01*
X144836815Y-120788749D01*
X144855503Y-120966554D01*
X144855504Y-120966556D01*
X144910747Y-121136578D01*
X144910750Y-121136584D01*
X145000141Y-121291414D01*
X145041812Y-121337695D01*
X145119764Y-121424270D01*
X145119767Y-121424272D01*
X145119770Y-121424275D01*
X145264407Y-121529361D01*
X145427733Y-121602078D01*
X145602609Y-121639249D01*
X145781389Y-121639249D01*
X145781391Y-121639249D01*
X145900557Y-121613919D01*
X145970221Y-121619235D01*
X146025955Y-121661371D01*
X146044266Y-121696889D01*
X146046718Y-121704435D01*
X146046722Y-121704445D01*
X146136113Y-121859275D01*
X146172837Y-121900061D01*
X146255736Y-121992131D01*
X146255739Y-121992133D01*
X146255742Y-121992136D01*
X146400379Y-122097222D01*
X146563705Y-122169939D01*
X146738581Y-122207110D01*
X146917361Y-122207110D01*
X146917363Y-122207110D01*
X147036530Y-122181780D01*
X147106195Y-122187096D01*
X147161928Y-122229233D01*
X147180239Y-122264750D01*
X147182691Y-122272296D01*
X147182695Y-122272306D01*
X147272086Y-122427136D01*
X147313757Y-122473417D01*
X147391709Y-122559992D01*
X147391712Y-122559994D01*
X147391715Y-122559997D01*
X147536352Y-122665083D01*
X147699678Y-122737800D01*
X147874554Y-122774971D01*
X148053334Y-122774971D01*
X148053336Y-122774971D01*
X148172993Y-122749537D01*
X148242659Y-122754853D01*
X148298393Y-122796990D01*
X148316704Y-122832509D01*
X148319123Y-122839955D01*
X148319126Y-122839962D01*
X148408462Y-122994697D01*
X148408466Y-122994702D01*
X148528021Y-123127483D01*
X148569061Y-123157299D01*
X148817169Y-122660978D01*
X148887788Y-122745137D01*
X148987046Y-122802444D01*
X149071481Y-122817332D01*
X149128353Y-122817332D01*
X149136622Y-122815873D01*
X148886622Y-123315984D01*
X149010578Y-123342332D01*
X149125751Y-123342332D01*
X149192790Y-123362017D01*
X149238545Y-123414821D01*
X149243384Y-123427109D01*
X149251086Y-123450210D01*
X149251087Y-123450211D01*
X149322113Y-123543152D01*
X149322118Y-123543157D01*
X149364493Y-123572662D01*
X149378619Y-123582498D01*
X150332585Y-124059376D01*
X150397967Y-124080961D01*
X150514938Y-124081997D01*
X150625908Y-124044996D01*
X150718851Y-123973968D01*
X150758195Y-123917464D01*
X150902271Y-123629247D01*
X150949854Y-123578085D01*
X151013185Y-123560693D01*
X154246517Y-123560693D01*
X154313556Y-123580378D01*
X154334198Y-123597012D01*
X154335005Y-123597819D01*
X154368490Y-123659142D01*
X154363506Y-123728834D01*
X154321634Y-123784767D01*
X154256170Y-123809184D01*
X154247324Y-123809500D01*
X154226014Y-123809500D01*
X154072634Y-123847303D01*
X153932762Y-123920715D01*
X153814516Y-124025471D01*
X153724781Y-124155475D01*
X153724780Y-124155476D01*
X153668762Y-124303181D01*
X153649722Y-124459999D01*
X153649722Y-124460000D01*
X153668762Y-124616818D01*
X153724780Y-124764523D01*
X153724781Y-124764524D01*
X153814518Y-124894532D01*
X153819491Y-124900145D01*
X153818044Y-124901426D01*
X153849850Y-124952120D01*
X153854500Y-124985759D01*
X153854500Y-125168439D01*
X153853205Y-125186304D01*
X153849500Y-125211740D01*
X153849500Y-125211745D01*
X153849500Y-125211746D01*
X153849500Y-126328260D01*
X153859426Y-126396391D01*
X153910803Y-126501485D01*
X153993514Y-126584196D01*
X153993515Y-126584196D01*
X153993517Y-126584198D01*
X154098607Y-126635573D01*
X154110481Y-126637303D01*
X154166739Y-126645500D01*
X154166740Y-126645500D01*
X154783255Y-126645500D01*
X154783260Y-126645500D01*
X154851393Y-126635573D01*
X154896110Y-126613712D01*
X154964979Y-126601953D01*
X155005030Y-126613713D01*
X155048750Y-126635087D01*
X155116785Y-126644999D01*
X155247499Y-126644999D01*
X155247500Y-126644998D01*
X155247500Y-124895000D01*
X155116786Y-124895000D01*
X155048749Y-124904912D01*
X155045781Y-124905830D01*
X155042099Y-124905881D01*
X155039221Y-124906301D01*
X155039165Y-124905922D01*
X154975918Y-124906811D01*
X154916615Y-124869866D01*
X154886700Y-124806725D01*
X154893235Y-124743387D01*
X154941237Y-124616818D01*
X154955231Y-124501558D01*
X154982854Y-124437380D01*
X155040788Y-124398323D01*
X155110641Y-124396788D01*
X155166009Y-124428823D01*
X155566182Y-124828996D01*
X155599666Y-124890317D01*
X155602500Y-124916675D01*
X155602500Y-126644999D01*
X155733218Y-126644999D01*
X155801251Y-126635086D01*
X155844968Y-126613714D01*
X155913841Y-126601953D01*
X155953890Y-126613712D01*
X155956698Y-126615085D01*
X155998607Y-126635573D01*
X156066739Y-126645500D01*
X156683260Y-126645500D01*
X156683261Y-126645500D01*
X156705971Y-126642191D01*
X156751393Y-126635573D01*
X156856483Y-126584198D01*
X156856483Y-126584197D01*
X156865714Y-126579685D01*
X156867296Y-126582922D01*
X156915690Y-126566095D01*
X156983614Y-126582469D01*
X157009451Y-126602265D01*
X157078614Y-126671428D01*
X157095246Y-126692066D01*
X157097854Y-126696125D01*
X157097857Y-126696128D01*
X157137067Y-126730103D01*
X157140283Y-126733097D01*
X157151407Y-126744221D01*
X157151412Y-126744224D01*
X157151417Y-126744229D01*
X157163979Y-126753633D01*
X157167427Y-126756411D01*
X157188530Y-126774696D01*
X157206627Y-126790377D01*
X157211010Y-126792379D01*
X157233807Y-126805905D01*
X157237669Y-126808796D01*
X157286295Y-126826932D01*
X157290351Y-126828612D01*
X157312457Y-126838708D01*
X157337540Y-126850164D01*
X157337541Y-126850164D01*
X157337543Y-126850165D01*
X157342312Y-126850850D01*
X157368002Y-126857407D01*
X157372517Y-126859091D01*
X157424258Y-126862791D01*
X157428657Y-126863264D01*
X157444201Y-126865500D01*
X157459906Y-126865500D01*
X157464328Y-126865657D01*
X157516073Y-126869359D01*
X157520784Y-126868334D01*
X157547143Y-126865500D01*
X158450500Y-126865500D01*
X158517539Y-126885185D01*
X158563294Y-126937989D01*
X158574500Y-126989500D01*
X158574500Y-132766324D01*
X158554815Y-132833363D01*
X158538181Y-132854005D01*
X158021592Y-133370593D01*
X157960269Y-133404078D01*
X157890577Y-133399094D01*
X157834644Y-133357222D01*
X157810227Y-133291758D01*
X157810971Y-133266736D01*
X157820500Y-133194361D01*
X157820499Y-130965640D01*
X157820499Y-130965639D01*
X157820499Y-130965636D01*
X157805046Y-130848246D01*
X157805044Y-130848239D01*
X157805044Y-130848238D01*
X157744536Y-130702159D01*
X157648282Y-130576718D01*
X157522841Y-130480464D01*
X157419592Y-130437697D01*
X157376762Y-130419956D01*
X157376760Y-130419955D01*
X157259370Y-130404501D01*
X157259367Y-130404500D01*
X157259361Y-130404500D01*
X157259354Y-130404500D01*
X156999500Y-130404500D01*
X156932461Y-130384815D01*
X156886706Y-130332011D01*
X156875500Y-130280500D01*
X156875500Y-129116543D01*
X156895185Y-129049504D01*
X156911815Y-129028865D01*
X156939198Y-129001483D01*
X156990573Y-128896393D01*
X157000500Y-128828260D01*
X157000500Y-127711740D01*
X156996535Y-127684530D01*
X156991210Y-127647977D01*
X156990573Y-127643607D01*
X156939198Y-127538517D01*
X156939196Y-127538515D01*
X156939196Y-127538514D01*
X156856485Y-127455803D01*
X156751391Y-127404426D01*
X156683261Y-127394500D01*
X156683260Y-127394500D01*
X156066740Y-127394500D01*
X156066739Y-127394500D01*
X155998608Y-127404426D01*
X155893514Y-127455803D01*
X155810803Y-127538514D01*
X155759426Y-127643608D01*
X155749500Y-127711739D01*
X155749500Y-128828260D01*
X155759426Y-128896391D01*
X155759427Y-128896393D01*
X155810802Y-129001483D01*
X155838181Y-129028862D01*
X155871666Y-129090183D01*
X155874500Y-129116543D01*
X155874500Y-130907857D01*
X155871667Y-130934207D01*
X155870641Y-130938927D01*
X155870641Y-130938932D01*
X155870491Y-130941024D01*
X155869836Y-130963082D01*
X155869500Y-130965636D01*
X155869500Y-133194363D01*
X155884953Y-133311753D01*
X155884956Y-133311762D01*
X155923194Y-133404078D01*
X155945464Y-133457841D01*
X156041718Y-133583282D01*
X156167159Y-133679536D01*
X156313238Y-133740044D01*
X156430639Y-133755500D01*
X157259360Y-133755499D01*
X157331728Y-133745972D01*
X157400762Y-133756738D01*
X157453018Y-133803118D01*
X157471903Y-133870387D01*
X157451422Y-133937187D01*
X157435593Y-133956592D01*
X154134005Y-137258181D01*
X154072682Y-137291666D01*
X154046324Y-137294500D01*
X153398697Y-137294500D01*
X153331658Y-137274815D01*
X153291310Y-137232500D01*
X153270795Y-137196967D01*
X152827885Y-136429824D01*
X152785222Y-136375783D01*
X152688185Y-136310460D01*
X152575194Y-136280184D01*
X152575193Y-136280184D01*
X152458497Y-136288236D01*
X152394530Y-136313705D01*
X152394520Y-136313711D01*
X151882161Y-136609520D01*
X151814261Y-136625993D01*
X151748234Y-136603140D01*
X151732480Y-136589814D01*
X149906819Y-134764153D01*
X149873334Y-134702830D01*
X149870500Y-134676472D01*
X149870500Y-134399878D01*
X149870500Y-134399868D01*
X149864123Y-134340554D01*
X149854770Y-134315477D01*
X149814080Y-134206382D01*
X149814078Y-134206379D01*
X149798426Y-134185471D01*
X149750233Y-134121092D01*
X149725816Y-134055627D01*
X149725500Y-134046781D01*
X149725500Y-133288218D01*
X149745185Y-133221179D01*
X149750226Y-133213916D01*
X149814079Y-133128620D01*
X149864123Y-132994446D01*
X149870500Y-132935132D01*
X149870500Y-132494868D01*
X149864123Y-132435554D01*
X149864121Y-132435548D01*
X149814080Y-132301382D01*
X149814079Y-132301380D01*
X149800010Y-132282586D01*
X149728260Y-132186740D01*
X149620557Y-132106114D01*
X149613619Y-132100920D01*
X149613617Y-132100919D01*
X149479450Y-132050878D01*
X149479451Y-132050878D01*
X149479447Y-132050877D01*
X149479446Y-132050877D01*
X149420132Y-132044500D01*
X149420123Y-132044500D01*
X149029876Y-132044500D01*
X149029868Y-132044500D01*
X148970554Y-132050877D01*
X148970552Y-132050877D01*
X148970548Y-132050878D01*
X148836382Y-132100919D01*
X148836376Y-132100922D01*
X148814309Y-132117442D01*
X148748844Y-132141858D01*
X148680572Y-132127005D01*
X148665691Y-132117442D01*
X148643623Y-132100922D01*
X148643617Y-132100919D01*
X148509450Y-132050878D01*
X148509451Y-132050878D01*
X148509447Y-132050877D01*
X148509446Y-132050877D01*
X148450132Y-132044500D01*
X148450123Y-132044500D01*
X148059876Y-132044500D01*
X148059868Y-132044500D01*
X148000554Y-132050877D01*
X148000552Y-132050877D01*
X148000548Y-132050878D01*
X147866382Y-132100919D01*
X147866375Y-132100923D01*
X147798518Y-132151721D01*
X147733054Y-132176138D01*
X147666582Y-132162250D01*
X147552365Y-132102303D01*
X147398986Y-132064500D01*
X147398985Y-132064500D01*
X147241015Y-132064500D01*
X147241014Y-132064500D01*
X147087634Y-132102303D01*
X146947762Y-132175715D01*
X146829516Y-132280471D01*
X146739781Y-132410475D01*
X146739780Y-132410476D01*
X146683762Y-132558181D01*
X146664722Y-132714999D01*
X146664722Y-132715000D01*
X146683762Y-132871818D01*
X146739779Y-133019523D01*
X146739780Y-133019523D01*
X146829517Y-133149530D01*
X146947760Y-133254283D01*
X146947762Y-133254284D01*
X147087634Y-133327696D01*
X147241014Y-133365500D01*
X147398985Y-133365500D01*
X147552365Y-133327696D01*
X147666583Y-133267748D01*
X147735091Y-133254023D01*
X147798518Y-133278277D01*
X147864533Y-133327696D01*
X147866379Y-133329078D01*
X147866382Y-133329080D01*
X147932097Y-133353590D01*
X147970592Y-133367948D01*
X148000549Y-133379121D01*
X148000548Y-133379121D01*
X148000554Y-133379123D01*
X148059868Y-133385500D01*
X148450122Y-133385500D01*
X148450132Y-133385500D01*
X148509446Y-133379123D01*
X148539408Y-133367948D01*
X148557165Y-133361325D01*
X148626857Y-133356340D01*
X148688180Y-133389824D01*
X148721666Y-133451147D01*
X148724500Y-133477506D01*
X148724500Y-133857493D01*
X148704815Y-133924532D01*
X148652011Y-133970287D01*
X148582853Y-133980231D01*
X148557167Y-133973675D01*
X148509451Y-133955878D01*
X148509447Y-133955877D01*
X148509446Y-133955877D01*
X148450132Y-133949500D01*
X148450123Y-133949500D01*
X148059876Y-133949500D01*
X148059868Y-133949500D01*
X148000554Y-133955877D01*
X148000552Y-133955877D01*
X148000548Y-133955878D01*
X147866382Y-134005919D01*
X147866375Y-134005923D01*
X147798518Y-134056721D01*
X147733054Y-134081138D01*
X147666582Y-134067250D01*
X147552365Y-134007303D01*
X147398986Y-133969500D01*
X147398985Y-133969500D01*
X147241015Y-133969500D01*
X147241014Y-133969500D01*
X147087634Y-134007303D01*
X146947762Y-134080715D01*
X146829516Y-134185471D01*
X146739781Y-134315475D01*
X146739780Y-134315476D01*
X146683762Y-134463181D01*
X146664722Y-134619999D01*
X146664722Y-134620000D01*
X146683762Y-134776818D01*
X146721952Y-134877514D01*
X146739780Y-134924523D01*
X146829517Y-135054530D01*
X146947760Y-135159283D01*
X146959860Y-135165633D01*
X147087634Y-135232696D01*
X147241014Y-135270500D01*
X147398985Y-135270500D01*
X147552365Y-135232696D01*
X147666583Y-135172748D01*
X147735091Y-135159023D01*
X147798518Y-135183277D01*
X147844311Y-135217558D01*
X147866379Y-135234078D01*
X147866382Y-135234080D01*
X148000549Y-135284121D01*
X148000548Y-135284121D01*
X148000554Y-135284123D01*
X148059868Y-135290500D01*
X148450122Y-135290500D01*
X148450132Y-135290500D01*
X148509446Y-135284123D01*
X148643620Y-135234079D01*
X148665689Y-135217557D01*
X148731153Y-135193141D01*
X148799426Y-135207992D01*
X148814311Y-135217558D01*
X148836380Y-135234079D01*
X148836382Y-135234080D01*
X148970554Y-135284123D01*
X148972552Y-135284338D01*
X148974001Y-135284938D01*
X148978105Y-135285908D01*
X148977947Y-135286572D01*
X149037104Y-135311072D01*
X149046985Y-135319947D01*
X150801274Y-137074236D01*
X150834759Y-137135559D01*
X150829775Y-137205251D01*
X150814245Y-137230452D01*
X150816013Y-137231642D01*
X150810636Y-137239629D01*
X150810635Y-137239630D01*
X150798147Y-137258181D01*
X150745312Y-137336666D01*
X150715036Y-137449657D01*
X150715036Y-137449658D01*
X150723088Y-137566354D01*
X150748557Y-137630321D01*
X150748562Y-137630331D01*
X150922662Y-137931880D01*
X150939135Y-137999780D01*
X150916282Y-138065807D01*
X150861361Y-138108998D01*
X150791808Y-138115639D01*
X150749997Y-138099307D01*
X150567327Y-137986202D01*
X150567325Y-137986201D01*
X150359952Y-137905865D01*
X150141341Y-137865000D01*
X149918955Y-137865000D01*
X149700340Y-137905865D01*
X149590458Y-137948433D01*
X149590457Y-137948434D01*
X149950108Y-138571366D01*
X149887833Y-138580320D01*
X149757048Y-138640048D01*
X149648387Y-138734202D01*
X149640914Y-138745830D01*
X149281643Y-138123554D01*
X149139537Y-138253102D01*
X149005516Y-138430574D01*
X148906388Y-138629649D01*
X148845526Y-138843560D01*
X148825007Y-139064999D01*
X148825007Y-139065000D01*
X148845526Y-139286439D01*
X148906386Y-139500345D01*
X148909673Y-139506945D01*
X149533116Y-139146999D01*
X149570655Y-139274844D01*
X149648387Y-139395798D01*
X149713886Y-139452552D01*
X149090765Y-139812312D01*
X149139536Y-139876896D01*
X149139538Y-139876899D01*
X149303886Y-140026721D01*
X149492968Y-140143797D01*
X149492970Y-140143798D01*
X149700343Y-140224134D01*
X149918955Y-140265000D01*
X150141341Y-140265000D01*
X150359954Y-140224134D01*
X150469837Y-140181565D01*
X150110187Y-139558633D01*
X150172463Y-139549680D01*
X150303248Y-139489952D01*
X150411909Y-139395798D01*
X150419381Y-139384170D01*
X150778651Y-140006445D01*
X150920756Y-139876899D01*
X151054779Y-139699425D01*
X151153907Y-139500350D01*
X151214769Y-139286439D01*
X151235288Y-139065000D01*
X151235289Y-139065000D01*
X151222227Y-138924042D01*
X151235642Y-138855472D01*
X151283999Y-138805040D01*
X151351945Y-138788757D01*
X151417907Y-138811794D01*
X151453085Y-138850600D01*
X151576869Y-139065000D01*
X151631819Y-139160176D01*
X151674482Y-139214217D01*
X151771519Y-139279540D01*
X151884510Y-139309816D01*
X152001208Y-139301763D01*
X152065176Y-139276293D01*
X153595028Y-138393033D01*
X153649069Y-138350370D01*
X153649144Y-138350257D01*
X153649267Y-138350155D01*
X153655619Y-138343304D01*
X153656518Y-138344137D01*
X153702909Y-138305636D01*
X153752011Y-138295500D01*
X154237857Y-138295500D01*
X154264215Y-138298334D01*
X154268927Y-138299359D01*
X154320671Y-138295657D01*
X154325094Y-138295500D01*
X154340799Y-138295500D01*
X154356342Y-138293264D01*
X154360740Y-138292791D01*
X154412483Y-138289091D01*
X154416992Y-138287408D01*
X154442685Y-138280850D01*
X154447457Y-138280165D01*
X154494646Y-138258613D01*
X154498728Y-138256922D01*
X154527638Y-138246140D01*
X154547329Y-138238797D01*
X154547329Y-138238796D01*
X154547331Y-138238796D01*
X154551189Y-138235907D01*
X154573995Y-138222375D01*
X154578373Y-138220377D01*
X154617564Y-138186416D01*
X154621014Y-138183637D01*
X154623930Y-138181453D01*
X154633593Y-138174221D01*
X154644720Y-138163092D01*
X154647925Y-138160109D01*
X154687143Y-138126128D01*
X154689751Y-138122068D01*
X154706381Y-138101431D01*
X159381431Y-133426381D01*
X159402068Y-133409751D01*
X159406128Y-133407143D01*
X159440109Y-133367925D01*
X159443092Y-133364720D01*
X159454221Y-133353593D01*
X159463637Y-133341014D01*
X159466417Y-133337564D01*
X159473469Y-133329426D01*
X159500377Y-133298373D01*
X159502375Y-133293995D01*
X159515907Y-133271189D01*
X159518796Y-133267331D01*
X159523663Y-133254283D01*
X159536919Y-133218738D01*
X159538614Y-133214645D01*
X159547134Y-133195989D01*
X159560165Y-133167457D01*
X159560850Y-133162685D01*
X159567409Y-133136992D01*
X159567731Y-133136129D01*
X159569091Y-133132483D01*
X159572791Y-133080740D01*
X159573265Y-133076340D01*
X159575500Y-133060799D01*
X159575500Y-133045094D01*
X159575658Y-133040669D01*
X159576035Y-133035398D01*
X159579359Y-132988927D01*
X159578332Y-132984206D01*
X159575500Y-132957858D01*
X159575500Y-126796955D01*
X159595185Y-126729916D01*
X159647989Y-126684161D01*
X159656168Y-126680773D01*
X159660335Y-126679219D01*
X159792489Y-126629929D01*
X159905403Y-126545403D01*
X159989929Y-126432489D01*
X160039219Y-126300335D01*
X160045500Y-126241915D01*
X160045499Y-125868086D01*
X160039219Y-125809665D01*
X160029584Y-125783833D01*
X159989930Y-125677514D01*
X159989929Y-125677511D01*
X159968504Y-125648890D01*
X159944088Y-125583428D01*
X159958940Y-125515155D01*
X159968507Y-125500269D01*
X159989483Y-125472249D01*
X159989484Y-125472247D01*
X160038726Y-125340224D01*
X160044999Y-125281886D01*
X160045000Y-125281869D01*
X160045000Y-125272500D01*
X158725000Y-125272500D01*
X158725000Y-125281886D01*
X158731273Y-125340224D01*
X158780516Y-125472248D01*
X158801494Y-125500272D01*
X158825910Y-125565737D01*
X158811058Y-125634010D01*
X158801496Y-125648889D01*
X158780072Y-125677509D01*
X158780069Y-125677514D01*
X158740415Y-125783833D01*
X158698544Y-125839767D01*
X158633079Y-125864184D01*
X158624233Y-125864500D01*
X157738676Y-125864500D01*
X157671637Y-125844815D01*
X157650995Y-125828181D01*
X157286385Y-125463571D01*
X157269750Y-125442928D01*
X157267145Y-125438874D01*
X157267142Y-125438871D01*
X157250558Y-125424501D01*
X157227932Y-125404896D01*
X157224700Y-125401886D01*
X157213596Y-125390782D01*
X157213588Y-125390775D01*
X157201013Y-125381362D01*
X157197583Y-125378598D01*
X157158373Y-125344623D01*
X157158371Y-125344622D01*
X157158367Y-125344619D01*
X157153983Y-125342617D01*
X157131194Y-125329096D01*
X157127331Y-125326204D01*
X157127329Y-125326203D01*
X157078710Y-125308069D01*
X157074639Y-125306382D01*
X157071414Y-125304909D01*
X157018621Y-125259144D01*
X157000247Y-125210008D01*
X156990573Y-125143607D01*
X156989607Y-125141631D01*
X156989168Y-125139061D01*
X156987730Y-125134407D01*
X156988341Y-125134218D01*
X156977846Y-125072758D01*
X157005188Y-125008460D01*
X157013314Y-124999498D01*
X157095312Y-124917500D01*
X158725000Y-124917500D01*
X159207500Y-124917500D01*
X159207500Y-124465000D01*
X159562500Y-124465000D01*
X159562500Y-124917500D01*
X160045000Y-124917500D01*
X160045000Y-124908130D01*
X160044999Y-124908113D01*
X160038726Y-124849775D01*
X159989483Y-124717750D01*
X159905044Y-124604955D01*
X159792249Y-124520516D01*
X159660224Y-124471273D01*
X159601886Y-124465000D01*
X159562500Y-124465000D01*
X159207500Y-124465000D01*
X159168113Y-124465000D01*
X159109775Y-124471273D01*
X158977750Y-124520516D01*
X158864955Y-124604955D01*
X158780516Y-124717750D01*
X158731273Y-124849775D01*
X158725000Y-124908113D01*
X158725000Y-124917500D01*
X157095312Y-124917500D01*
X157960994Y-124051819D01*
X158022318Y-124018334D01*
X158048676Y-124015500D01*
X158377713Y-124015500D01*
X158377720Y-124015500D01*
X158490236Y-124000687D01*
X158630233Y-123942698D01*
X158750451Y-123850451D01*
X158842698Y-123730233D01*
X158900687Y-123590236D01*
X158915500Y-123477720D01*
X158915500Y-122902280D01*
X158900687Y-122789764D01*
X158842698Y-122649767D01*
X158750451Y-122529549D01*
X158630233Y-122437302D01*
X158630229Y-122437300D01*
X158566801Y-122411027D01*
X158490236Y-122379313D01*
X158472606Y-122376992D01*
X158377727Y-122364500D01*
X158377720Y-122364500D01*
X157852280Y-122364500D01*
X157852272Y-122364500D01*
X157739764Y-122379313D01*
X157739763Y-122379313D01*
X157599770Y-122437300D01*
X157599767Y-122437301D01*
X157599767Y-122437302D01*
X157479549Y-122529549D01*
X157479548Y-122529550D01*
X157438060Y-122583618D01*
X157381631Y-122624820D01*
X157311885Y-122628974D01*
X157250965Y-122594761D01*
X157241309Y-122583617D01*
X157200094Y-122529905D01*
X157079978Y-122437736D01*
X156940108Y-122379801D01*
X156940104Y-122379800D01*
X156827697Y-122365000D01*
X156742500Y-122365000D01*
X156742500Y-123243500D01*
X156722815Y-123310539D01*
X156670011Y-123356294D01*
X156618500Y-123367500D01*
X155765000Y-123367500D01*
X155730338Y-123402162D01*
X155669015Y-123435647D01*
X155599323Y-123430663D01*
X155554976Y-123402162D01*
X155165314Y-123012500D01*
X155765000Y-123012500D01*
X156387500Y-123012500D01*
X156387500Y-122365000D01*
X156302302Y-122365000D01*
X156189895Y-122379800D01*
X156189891Y-122379801D01*
X156050021Y-122437736D01*
X155929905Y-122529905D01*
X155837736Y-122650021D01*
X155779801Y-122789891D01*
X155779800Y-122789895D01*
X155765000Y-122902302D01*
X155765000Y-123012500D01*
X155165314Y-123012500D01*
X154906578Y-122753764D01*
X154889943Y-122733121D01*
X154887338Y-122729067D01*
X154887335Y-122729064D01*
X154880340Y-122723003D01*
X154848125Y-122695089D01*
X154844893Y-122692079D01*
X154833789Y-122680975D01*
X154833781Y-122680968D01*
X154821206Y-122671555D01*
X154817776Y-122668791D01*
X154778566Y-122634816D01*
X154778564Y-122634815D01*
X154778560Y-122634812D01*
X154774176Y-122632810D01*
X154751387Y-122619289D01*
X154747524Y-122616397D01*
X154747522Y-122616396D01*
X154698909Y-122598264D01*
X154694835Y-122596576D01*
X154647650Y-122575028D01*
X154647648Y-122575027D01*
X154642875Y-122574341D01*
X154617193Y-122567786D01*
X154612678Y-122566102D01*
X154560933Y-122562400D01*
X154556536Y-122561927D01*
X154540992Y-122559693D01*
X154525287Y-122559693D01*
X154520864Y-122559535D01*
X154503276Y-122558277D01*
X154469122Y-122555834D01*
X154469118Y-122555834D01*
X154464408Y-122556859D01*
X154438050Y-122559693D01*
X151163395Y-122559693D01*
X151096356Y-122540008D01*
X151093395Y-122538027D01*
X151093167Y-122537892D01*
X151093166Y-122537891D01*
X151093161Y-122537888D01*
X150139195Y-122061010D01*
X150073813Y-122039425D01*
X150073809Y-122039424D01*
X149956846Y-122038389D01*
X149956845Y-122038389D01*
X149956842Y-122038389D01*
X149956840Y-122038389D01*
X149956837Y-122038390D01*
X149937532Y-122044827D01*
X149867708Y-122047357D01*
X149807600Y-122011735D01*
X149795315Y-121995129D01*
X149795189Y-121995221D01*
X149791367Y-121989961D01*
X149671810Y-121857178D01*
X149630771Y-121827362D01*
X149382663Y-122323684D01*
X149312046Y-122239527D01*
X149212788Y-122182220D01*
X149128353Y-122167332D01*
X149071481Y-122167332D01*
X149063209Y-122168790D01*
X149313209Y-121668678D01*
X149189255Y-121642332D01*
X149010578Y-121642332D01*
X148891516Y-121667639D01*
X148821849Y-121662323D01*
X148766115Y-121620186D01*
X148747803Y-121584664D01*
X148746233Y-121579832D01*
X148745195Y-121576636D01*
X148655804Y-121421806D01*
X148536180Y-121288949D01*
X148536177Y-121288947D01*
X148536176Y-121288946D01*
X148536175Y-121288945D01*
X148391538Y-121183859D01*
X148228212Y-121111142D01*
X148228210Y-121111141D01*
X148100539Y-121084004D01*
X148053336Y-121073971D01*
X148053335Y-121073971D01*
X147874553Y-121073971D01*
X147755387Y-121099300D01*
X147685720Y-121093984D01*
X147629987Y-121051847D01*
X147611676Y-121016327D01*
X147609223Y-121008777D01*
X147591470Y-120978028D01*
X147519831Y-120853945D01*
X147461128Y-120788749D01*
X147400207Y-120721088D01*
X147400204Y-120721086D01*
X147400203Y-120721085D01*
X147400202Y-120721084D01*
X147255565Y-120615998D01*
X147092239Y-120543281D01*
X147092237Y-120543280D01*
X146964566Y-120516143D01*
X146917363Y-120506110D01*
X146917362Y-120506110D01*
X146738582Y-120506110D01*
X146738581Y-120506110D01*
X146686581Y-120517162D01*
X146619416Y-120531439D01*
X146549748Y-120526123D01*
X146494015Y-120483986D01*
X146475704Y-120448466D01*
X146473251Y-120440916D01*
X146392509Y-120301067D01*
X146383859Y-120286084D01*
X146315457Y-120210116D01*
X146264235Y-120153227D01*
X146264232Y-120153225D01*
X146264231Y-120153224D01*
X146264230Y-120153223D01*
X146119593Y-120048137D01*
X145956267Y-119975420D01*
X145956265Y-119975419D01*
X145828594Y-119948282D01*
X145781391Y-119938249D01*
X145781390Y-119938249D01*
X145602610Y-119938249D01*
X145602609Y-119938249D01*
X145571954Y-119944764D01*
X145427733Y-119975419D01*
X145427728Y-119975421D01*
X145264408Y-120048136D01*
X145119768Y-120153224D01*
X145000140Y-120286085D01*
X144910750Y-120440913D01*
X144910747Y-120440919D01*
X144855504Y-120610941D01*
X144855503Y-120610943D01*
X144836815Y-120788749D01*
X142690500Y-120788749D01*
X142690500Y-119987571D01*
X142710185Y-119920532D01*
X142726814Y-119899895D01*
X145905126Y-116721582D01*
X145966447Y-116688099D01*
X146006015Y-116685971D01*
X146048210Y-116690491D01*
X146097593Y-116695783D01*
X146236390Y-116670689D01*
X146362494Y-116607508D01*
X146465690Y-116511358D01*
X146497438Y-116461917D01*
X146664648Y-116127568D01*
X146685162Y-116072508D01*
X146700189Y-115932264D01*
X146695272Y-115905071D01*
X146693922Y-115897600D01*
X146701364Y-115828128D01*
X146745184Y-115773708D01*
X146760390Y-115764677D01*
X146791894Y-115748894D01*
X146895090Y-115652744D01*
X146926838Y-115603303D01*
X146960966Y-115535061D01*
X147033910Y-115389206D01*
X147081502Y-115338051D01*
X147144814Y-115320670D01*
X147244029Y-115320670D01*
X147311068Y-115340355D01*
X147356823Y-115393159D01*
X147366767Y-115462317D01*
X147354938Y-115500124D01*
X146685000Y-116840000D01*
X155575000Y-121285000D01*
X157557016Y-117320965D01*
X157604602Y-117269808D01*
X157672294Y-117252498D01*
X157738598Y-117274533D01*
X157764024Y-117298058D01*
X157886544Y-117448317D01*
X158080269Y-117685903D01*
X158082192Y-117688387D01*
X158536578Y-118307178D01*
X158538372Y-118309756D01*
X158960838Y-118950772D01*
X158962485Y-118953415D01*
X159351948Y-119615017D01*
X159353472Y-119617764D01*
X159708927Y-120298247D01*
X159710302Y-120301050D01*
X160004812Y-120942024D01*
X160030823Y-120998634D01*
X160032062Y-121001521D01*
X160316848Y-121714467D01*
X160317939Y-121717413D01*
X160566241Y-122443846D01*
X160567182Y-122446844D01*
X160778380Y-123184949D01*
X160779167Y-123187991D01*
X160952701Y-123935806D01*
X160953334Y-123938884D01*
X161088774Y-124694561D01*
X161089250Y-124697667D01*
X161186239Y-125459207D01*
X161186557Y-125462333D01*
X161244852Y-126227836D01*
X161245011Y-126230973D01*
X161264460Y-126998430D01*
X161264460Y-127001570D01*
X161245011Y-127769026D01*
X161244852Y-127772163D01*
X161186557Y-128537666D01*
X161186239Y-128540792D01*
X161089250Y-129302332D01*
X161088774Y-129305438D01*
X160953334Y-130061115D01*
X160952701Y-130064193D01*
X160779167Y-130812008D01*
X160778380Y-130815050D01*
X160567182Y-131553155D01*
X160566241Y-131556153D01*
X160317939Y-132282586D01*
X160316848Y-132285532D01*
X160032062Y-132998478D01*
X160030823Y-133001365D01*
X159854324Y-133385500D01*
X159760585Y-133589516D01*
X159710311Y-133698932D01*
X159708927Y-133701752D01*
X159353472Y-134382235D01*
X159351948Y-134384982D01*
X158962485Y-135046584D01*
X158960826Y-135049244D01*
X158888305Y-135159284D01*
X158538373Y-135690242D01*
X158536578Y-135692821D01*
X158082192Y-136311612D01*
X158080269Y-136314096D01*
X157595120Y-136909084D01*
X157593074Y-136911468D01*
X157078403Y-137481131D01*
X157076238Y-137483408D01*
X156533408Y-138026238D01*
X156531131Y-138028403D01*
X155961468Y-138543074D01*
X155959084Y-138545120D01*
X155364096Y-139030269D01*
X155361612Y-139032192D01*
X154742821Y-139486578D01*
X154740242Y-139488373D01*
X154365750Y-139735185D01*
X154114960Y-139900470D01*
X154099251Y-139910823D01*
X154096584Y-139912485D01*
X153434982Y-140301948D01*
X153432235Y-140303472D01*
X152751752Y-140658927D01*
X152748932Y-140660311D01*
X152051365Y-140980823D01*
X152048478Y-140982062D01*
X151335532Y-141266848D01*
X151332586Y-141267939D01*
X150606153Y-141516241D01*
X150603155Y-141517182D01*
X149865050Y-141728380D01*
X149862008Y-141729167D01*
X149114193Y-141902701D01*
X149111115Y-141903334D01*
X148355438Y-142038774D01*
X148352332Y-142039250D01*
X147590792Y-142136239D01*
X147587666Y-142136557D01*
X146822163Y-142194852D01*
X146819026Y-142195011D01*
X146051571Y-142214460D01*
X146048429Y-142214460D01*
X145280973Y-142195011D01*
X145277836Y-142194852D01*
X144512333Y-142136557D01*
X144509207Y-142136239D01*
X143747667Y-142039250D01*
X143744561Y-142038774D01*
X142988884Y-141903334D01*
X142985806Y-141902701D01*
X142237991Y-141729167D01*
X142234949Y-141728380D01*
X141496844Y-141517182D01*
X141493846Y-141516241D01*
X140767413Y-141267939D01*
X140764467Y-141266848D01*
X140051521Y-140982062D01*
X140048634Y-140980823D01*
X139976536Y-140947696D01*
X139351050Y-140660302D01*
X139348247Y-140658927D01*
X138667764Y-140303472D01*
X138665017Y-140301948D01*
X138003415Y-139912485D01*
X138000772Y-139910838D01*
X137359756Y-139488372D01*
X137357178Y-139486578D01*
X136811556Y-139085921D01*
X136783066Y-139065000D01*
X140314722Y-139065000D01*
X140333762Y-139221818D01*
X140367136Y-139309816D01*
X140389780Y-139369523D01*
X140479517Y-139499530D01*
X140597760Y-139604283D01*
X140597762Y-139604284D01*
X140737634Y-139677696D01*
X140891014Y-139715500D01*
X140985500Y-139715500D01*
X141052539Y-139735185D01*
X141098294Y-139787989D01*
X141109500Y-139839500D01*
X141109500Y-139920132D01*
X141113694Y-139959138D01*
X141115878Y-139979451D01*
X141165919Y-140113617D01*
X141165920Y-140113619D01*
X141165921Y-140113620D01*
X141251740Y-140228260D01*
X141365786Y-140313634D01*
X141366380Y-140314079D01*
X141366382Y-140314080D01*
X141453968Y-140346747D01*
X141499232Y-140363630D01*
X141500549Y-140364121D01*
X141500548Y-140364121D01*
X141500554Y-140364123D01*
X141559868Y-140370500D01*
X141950122Y-140370500D01*
X141950132Y-140370500D01*
X142009446Y-140364123D01*
X142143620Y-140314079D01*
X142166108Y-140297244D01*
X142231567Y-140272828D01*
X142299841Y-140287679D01*
X142314728Y-140297246D01*
X142336622Y-140313636D01*
X142336621Y-140313636D01*
X142470654Y-140363628D01*
X142470659Y-140363629D01*
X142529905Y-140369999D01*
X142902500Y-140369999D01*
X142920083Y-140369999D01*
X142920092Y-140369998D01*
X142979337Y-140363630D01*
X143113380Y-140313634D01*
X143227902Y-140227902D01*
X143277583Y-140161538D01*
X143333517Y-140119667D01*
X143403209Y-140114683D01*
X143464532Y-140148168D01*
X143498016Y-140209491D01*
X143499946Y-140250795D01*
X143489722Y-140334999D01*
X143489722Y-140335000D01*
X143508762Y-140491818D01*
X143564780Y-140639522D01*
X143564780Y-140639523D01*
X143654517Y-140769530D01*
X143772760Y-140874283D01*
X143772762Y-140874284D01*
X143912634Y-140947696D01*
X144066014Y-140985500D01*
X144160500Y-140985500D01*
X144227539Y-141005185D01*
X144273294Y-141057989D01*
X144284500Y-141109499D01*
X144284500Y-141190132D01*
X144290877Y-141249446D01*
X144290878Y-141249451D01*
X144340919Y-141383617D01*
X144340920Y-141383619D01*
X144340921Y-141383620D01*
X144426740Y-141498260D01*
X144506114Y-141557679D01*
X144541380Y-141584079D01*
X144541382Y-141584080D01*
X144628968Y-141616747D01*
X144674232Y-141633630D01*
X144675549Y-141634121D01*
X144675548Y-141634121D01*
X144675554Y-141634123D01*
X144734868Y-141640500D01*
X145125122Y-141640500D01*
X145125132Y-141640500D01*
X145184446Y-141634123D01*
X145318620Y-141584079D01*
X145341108Y-141567244D01*
X145406567Y-141542828D01*
X145474841Y-141557679D01*
X145489728Y-141567246D01*
X145511622Y-141583636D01*
X145511621Y-141583636D01*
X145645654Y-141633628D01*
X145645659Y-141633629D01*
X145704905Y-141639999D01*
X145722499Y-141639998D01*
X145722500Y-141639997D01*
X145722500Y-141147500D01*
X146077500Y-141147500D01*
X146077500Y-141639999D01*
X146095083Y-141639999D01*
X146095092Y-141639998D01*
X146154337Y-141633630D01*
X146288380Y-141583634D01*
X146402902Y-141497902D01*
X146488636Y-141383377D01*
X146538628Y-141249345D01*
X146538629Y-141249340D01*
X146544999Y-141190103D01*
X146545000Y-141190086D01*
X146545000Y-141147500D01*
X146077500Y-141147500D01*
X145722500Y-141147500D01*
X145722500Y-140300000D01*
X146077500Y-140300000D01*
X146077500Y-140792500D01*
X146544999Y-140792500D01*
X146544999Y-140749916D01*
X146544998Y-140749907D01*
X146538630Y-140690662D01*
X146488634Y-140556619D01*
X146402902Y-140442097D01*
X146288376Y-140356363D01*
X146288378Y-140356363D01*
X146154345Y-140306371D01*
X146154340Y-140306370D01*
X146095103Y-140300000D01*
X146077500Y-140300000D01*
X145722500Y-140300000D01*
X145722500Y-140299999D01*
X145704929Y-140300000D01*
X145704910Y-140300001D01*
X145645661Y-140306369D01*
X145645659Y-140306370D01*
X145511624Y-140356362D01*
X145489722Y-140372757D01*
X145424256Y-140397170D01*
X145355984Y-140382315D01*
X145341106Y-140372753D01*
X145318624Y-140355923D01*
X145318617Y-140355919D01*
X145184450Y-140305878D01*
X145184451Y-140305878D01*
X145184447Y-140305877D01*
X145184446Y-140305877D01*
X145125132Y-140299500D01*
X145125123Y-140299500D01*
X144947965Y-140299500D01*
X144880926Y-140279815D01*
X144860284Y-140263181D01*
X144803696Y-140206593D01*
X144775435Y-140162883D01*
X144756752Y-140113620D01*
X144725220Y-140030477D01*
X144635483Y-139900470D01*
X144517240Y-139795717D01*
X144517238Y-139795716D01*
X144517237Y-139795715D01*
X144377365Y-139722303D01*
X144223986Y-139684500D01*
X144223985Y-139684500D01*
X144066015Y-139684500D01*
X144066014Y-139684500D01*
X143912634Y-139722303D01*
X143772762Y-139795715D01*
X143654516Y-139900471D01*
X143596050Y-139985174D01*
X143541767Y-140029164D01*
X143472318Y-140036824D01*
X143409754Y-140005721D01*
X143373936Y-139945730D01*
X143370000Y-139914734D01*
X143370000Y-139877500D01*
X142902500Y-139877500D01*
X142902500Y-140369999D01*
X142529905Y-140369999D01*
X142547499Y-140369998D01*
X142547500Y-140369997D01*
X142547500Y-139030000D01*
X142902500Y-139030000D01*
X142902500Y-139522500D01*
X143369999Y-139522500D01*
X143369999Y-139479916D01*
X143369998Y-139479907D01*
X143363630Y-139420662D01*
X143313634Y-139286619D01*
X143227902Y-139172097D01*
X143113376Y-139086363D01*
X143113378Y-139086363D01*
X142979345Y-139036371D01*
X142979340Y-139036370D01*
X142920103Y-139030000D01*
X142902500Y-139030000D01*
X142547500Y-139030000D01*
X142547500Y-139029999D01*
X142529929Y-139030000D01*
X142529910Y-139030001D01*
X142470661Y-139036369D01*
X142470659Y-139036370D01*
X142336624Y-139086362D01*
X142314722Y-139102757D01*
X142249256Y-139127170D01*
X142180984Y-139112315D01*
X142166106Y-139102753D01*
X142143624Y-139085923D01*
X142143617Y-139085919D01*
X142009450Y-139035878D01*
X142009451Y-139035878D01*
X142009447Y-139035877D01*
X142009446Y-139035877D01*
X141950132Y-139029500D01*
X141950123Y-139029500D01*
X141772965Y-139029500D01*
X141705926Y-139009815D01*
X141685284Y-138993181D01*
X141628696Y-138936593D01*
X141600435Y-138892883D01*
X141581729Y-138843560D01*
X141550220Y-138760477D01*
X141460483Y-138630470D01*
X141342240Y-138525717D01*
X141342238Y-138525716D01*
X141342237Y-138525715D01*
X141202365Y-138452303D01*
X141048986Y-138414500D01*
X141048985Y-138414500D01*
X140891015Y-138414500D01*
X140891014Y-138414500D01*
X140737634Y-138452303D01*
X140597762Y-138525715D01*
X140479516Y-138630471D01*
X140389781Y-138760475D01*
X140389780Y-138760476D01*
X140333762Y-138908181D01*
X140314722Y-139064999D01*
X140314722Y-139065000D01*
X136783066Y-139065000D01*
X136738381Y-139032187D01*
X136735903Y-139030269D01*
X136140915Y-138545120D01*
X136138531Y-138543074D01*
X135568868Y-138028403D01*
X135566591Y-138026238D01*
X135023761Y-137483408D01*
X135021596Y-137481131D01*
X134506925Y-136911468D01*
X134504879Y-136909084D01*
X134019730Y-136314096D01*
X134017807Y-136311612D01*
X134016961Y-136310460D01*
X133563421Y-135692821D01*
X133561626Y-135690242D01*
X133139154Y-135049216D01*
X133137514Y-135046584D01*
X132748051Y-134384982D01*
X132746527Y-134382235D01*
X132391072Y-133701752D01*
X132389704Y-133698965D01*
X132069165Y-133001341D01*
X132067937Y-132998478D01*
X131783143Y-132285511D01*
X131782069Y-132282610D01*
X131533754Y-131556141D01*
X131532817Y-131553155D01*
X131525754Y-131528472D01*
X131321615Y-130815037D01*
X131320832Y-130812008D01*
X131312688Y-130776912D01*
X131147292Y-130064167D01*
X131146671Y-130061145D01*
X131011224Y-129305437D01*
X131010752Y-129302353D01*
X130913757Y-128540769D01*
X130913442Y-128537666D01*
X130913240Y-128535019D01*
X130859667Y-127831518D01*
X130855147Y-127772163D01*
X130854988Y-127769026D01*
X130852311Y-127663378D01*
X130835539Y-127001538D01*
X130835539Y-126998461D01*
X130854988Y-126230969D01*
X130855147Y-126227836D01*
X130881400Y-125883093D01*
X130913443Y-125462319D01*
X130913757Y-125459234D01*
X131010753Y-124697640D01*
X131011225Y-124694561D01*
X131021408Y-124637747D01*
X131146672Y-123938846D01*
X131147290Y-123935840D01*
X131320838Y-123187964D01*
X131321613Y-123184972D01*
X131532824Y-122446820D01*
X131533750Y-122443869D01*
X131782073Y-121717376D01*
X131783138Y-121714501D01*
X132067945Y-121001500D01*
X132069159Y-120998672D01*
X132254360Y-120595598D01*
X133466724Y-120595598D01*
X133476637Y-120663632D01*
X133505469Y-120722610D01*
X133505470Y-120722611D01*
X134215701Y-120012381D01*
X134717747Y-120012381D01*
X135427976Y-120722610D01*
X135456811Y-120663631D01*
X135466723Y-120595594D01*
X135466723Y-119429163D01*
X135456810Y-119361129D01*
X135427977Y-119302150D01*
X135427976Y-119302150D01*
X134717747Y-120012380D01*
X134717747Y-120012381D01*
X134215701Y-120012381D01*
X134215701Y-120012380D01*
X133505470Y-119302149D01*
X133505469Y-119302150D01*
X133476637Y-119361130D01*
X133476634Y-119361136D01*
X133466724Y-119429161D01*
X133466724Y-120595598D01*
X132254360Y-120595598D01*
X132389711Y-120301018D01*
X132391072Y-120298247D01*
X132746527Y-119617764D01*
X132748051Y-119615017D01*
X132751720Y-119608784D01*
X133043936Y-119112381D01*
X133817746Y-119112381D01*
X134466724Y-119761358D01*
X134466725Y-119761358D01*
X135115700Y-119112381D01*
X133817746Y-119112381D01*
X133043936Y-119112381D01*
X133137520Y-118953404D01*
X133139143Y-118950800D01*
X133561645Y-118309729D01*
X133563408Y-118307196D01*
X134017830Y-117688356D01*
X134019730Y-117685903D01*
X134087308Y-117603026D01*
X134457197Y-117149392D01*
X134504879Y-117090915D01*
X134506925Y-117088531D01*
X134738997Y-116831662D01*
X134805788Y-116757734D01*
X137457810Y-116757734D01*
X137465851Y-116874262D01*
X137465851Y-116874264D01*
X137491283Y-116938138D01*
X137844140Y-117549304D01*
X137844141Y-117549304D01*
X138475090Y-117185025D01*
X138512629Y-117312870D01*
X138590361Y-117433824D01*
X138655860Y-117490578D01*
X138021641Y-117856744D01*
X138021641Y-117856745D01*
X138374497Y-118467909D01*
X138374496Y-118467909D01*
X138417098Y-118521874D01*
X138514000Y-118587106D01*
X138626828Y-118617337D01*
X138743358Y-118609296D01*
X138743360Y-118609296D01*
X138807234Y-118583864D01*
X139418400Y-118231006D01*
X139418400Y-118231005D01*
X139052161Y-117596659D01*
X139114437Y-117587706D01*
X139245222Y-117527978D01*
X139353883Y-117433824D01*
X139361355Y-117422197D01*
X139725840Y-118053505D01*
X139725841Y-118053505D01*
X140337005Y-117700650D01*
X140390970Y-117658049D01*
X140456202Y-117561147D01*
X140486433Y-117448321D01*
X140486433Y-117448317D01*
X140478392Y-117331789D01*
X140478392Y-117331787D01*
X140452960Y-117267913D01*
X140278413Y-116965589D01*
X140261940Y-116897689D01*
X140284792Y-116831662D01*
X140339714Y-116788471D01*
X140409267Y-116781830D01*
X140451078Y-116798162D01*
X140634646Y-116911823D01*
X140634648Y-116911824D01*
X140842021Y-116992160D01*
X141060633Y-117033026D01*
X141283019Y-117033026D01*
X141501632Y-116992160D01*
X141611515Y-116949591D01*
X141251865Y-116326659D01*
X141314141Y-116317706D01*
X141444926Y-116257978D01*
X141553587Y-116163824D01*
X141561059Y-116152196D01*
X141920329Y-116774471D01*
X142062434Y-116644925D01*
X142196457Y-116467451D01*
X142295585Y-116268376D01*
X142356447Y-116054465D01*
X142376967Y-115833026D01*
X142376967Y-115833025D01*
X142356447Y-115611586D01*
X142295585Y-115397675D01*
X142292300Y-115391079D01*
X142292299Y-115391079D01*
X141668856Y-115751023D01*
X141631319Y-115623182D01*
X141553587Y-115502228D01*
X141488085Y-115445471D01*
X141839541Y-115242559D01*
X143201074Y-115242559D01*
X143226526Y-115383332D01*
X143290609Y-115511239D01*
X143388130Y-115615908D01*
X143438271Y-115648105D01*
X143454005Y-115655973D01*
X143674295Y-115215488D01*
X143256169Y-115006379D01*
X143256168Y-115006380D01*
X143237127Y-115044455D01*
X143237118Y-115044478D01*
X143216315Y-115100312D01*
X143216313Y-115100317D01*
X143201074Y-115242553D01*
X143201074Y-115242559D01*
X141839541Y-115242559D01*
X142111207Y-115085713D01*
X142062434Y-115021125D01*
X141898087Y-114871304D01*
X141709005Y-114754228D01*
X141709003Y-114754227D01*
X141540298Y-114688871D01*
X143414957Y-114688871D01*
X143833083Y-114897979D01*
X144058820Y-114446603D01*
X144106411Y-114395448D01*
X144171009Y-114378935D01*
X144171009Y-114378371D01*
X144173216Y-114378371D01*
X144174104Y-114378144D01*
X144175790Y-114378371D01*
X144193273Y-114378371D01*
X144407524Y-113949959D01*
X144002813Y-113747559D01*
X143985205Y-113782770D01*
X143985198Y-113782785D01*
X143964712Y-113837774D01*
X143949702Y-113977871D01*
X143949702Y-113977877D01*
X143974770Y-114116528D01*
X144037989Y-114242708D01*
X144050419Y-114311463D01*
X144023705Y-114376024D01*
X143966327Y-114415893D01*
X143913916Y-114421547D01*
X143839561Y-114413581D01*
X143839553Y-114413581D01*
X143698780Y-114439033D01*
X143570873Y-114503117D01*
X143466205Y-114600637D01*
X143434007Y-114650780D01*
X143414957Y-114688871D01*
X141540298Y-114688871D01*
X141501630Y-114673891D01*
X141283019Y-114633026D01*
X141060633Y-114633026D01*
X140842018Y-114673891D01*
X140732136Y-114716459D01*
X140732135Y-114716460D01*
X141091785Y-115339392D01*
X141029511Y-115348346D01*
X140898726Y-115408074D01*
X140790065Y-115502228D01*
X140782592Y-115513855D01*
X140423321Y-114891580D01*
X140281215Y-115021128D01*
X140147194Y-115198600D01*
X140048066Y-115397675D01*
X139987204Y-115611586D01*
X139966685Y-115833025D01*
X139966685Y-115833026D01*
X139979857Y-115975175D01*
X139966442Y-116043744D01*
X139918085Y-116094176D01*
X139850139Y-116110459D01*
X139784176Y-116087422D01*
X139748999Y-116048616D01*
X139569746Y-115738142D01*
X139569747Y-115738142D01*
X139527145Y-115684177D01*
X139430243Y-115618945D01*
X139317415Y-115588714D01*
X139200885Y-115596755D01*
X139200883Y-115596755D01*
X139137009Y-115622187D01*
X138525842Y-115975044D01*
X138525842Y-115975045D01*
X138892082Y-116609392D01*
X138829807Y-116618346D01*
X138699022Y-116678074D01*
X138590361Y-116772228D01*
X138582888Y-116783855D01*
X138218402Y-116152545D01*
X138218401Y-116152545D01*
X137607238Y-116505401D01*
X137553273Y-116548002D01*
X137488041Y-116644904D01*
X137457810Y-116757730D01*
X137457810Y-116757734D01*
X134805788Y-116757734D01*
X135021605Y-116518857D01*
X135023741Y-116516611D01*
X135566611Y-115973741D01*
X135568857Y-115971605D01*
X136138531Y-115456925D01*
X136140915Y-115454879D01*
X136469846Y-115186671D01*
X136735913Y-114969721D01*
X136738356Y-114967830D01*
X137357196Y-114513408D01*
X137359729Y-114511645D01*
X138000800Y-114089143D01*
X138003404Y-114087520D01*
X138665023Y-113698047D01*
X138667764Y-113696527D01*
X139177904Y-113430052D01*
X144161601Y-113430052D01*
X144566312Y-113632451D01*
X144782130Y-113200908D01*
X144773761Y-113196723D01*
X144773743Y-113196715D01*
X144718748Y-113176226D01*
X144578652Y-113161216D01*
X144578645Y-113161216D01*
X144439995Y-113186284D01*
X144314016Y-113249402D01*
X144210926Y-113345453D01*
X144179209Y-113394844D01*
X144179202Y-113394858D01*
X144161601Y-113430051D01*
X144161601Y-113430052D01*
X139177904Y-113430052D01*
X139348247Y-113341072D01*
X139351018Y-113339711D01*
X140048672Y-113019159D01*
X140051500Y-113017945D01*
X140764501Y-112733138D01*
X140767376Y-112732073D01*
X141493869Y-112483750D01*
X141496820Y-112482824D01*
X142234972Y-112271613D01*
X142237964Y-112270838D01*
X142985840Y-112097290D01*
X142988846Y-112096672D01*
X143744568Y-111961223D01*
X143747640Y-111960753D01*
X144509234Y-111863757D01*
X144512319Y-111863443D01*
X145184804Y-111812231D01*
X145277836Y-111805147D01*
X145280969Y-111804988D01*
X146048461Y-111785539D01*
X146051539Y-111785539D01*
X146819028Y-111804988D01*
G37*
%TD.AperFunction*%
%TA.AperFunction,Conductor*%
G36*
X140056804Y-133241092D02*
G01*
X140051617Y-133245727D01*
X140021033Y-133270117D01*
X140014712Y-133276931D01*
X140012575Y-133274948D01*
X139970262Y-133309650D01*
X139921829Y-133319500D01*
X139751740Y-133319500D01*
X139684658Y-133329273D01*
X139615482Y-133319460D01*
X139562593Y-133273804D01*
X139542782Y-133206802D01*
X139562341Y-133139725D01*
X139564705Y-133136168D01*
X139645220Y-133019523D01*
X139701237Y-132871818D01*
X139717632Y-132736789D01*
X139727010Y-132715000D01*
X140582896Y-132715000D01*
X140056804Y-133241092D01*
G37*
%TD.AperFunction*%
%TA.AperFunction,Conductor*%
G36*
X137971926Y-121714475D02*
G01*
X137978404Y-121720507D01*
X138411708Y-122153811D01*
X138445193Y-122215134D01*
X138440209Y-122284826D01*
X138398337Y-122340759D01*
X138332873Y-122365176D01*
X138283078Y-122358536D01*
X138279696Y-122357353D01*
X138271326Y-122355768D01*
X138262904Y-122354500D01*
X138262902Y-122354500D01*
X138204578Y-122354500D01*
X138202294Y-122354457D01*
X138178402Y-122353563D01*
X138143989Y-122352275D01*
X138134756Y-122353316D01*
X138134662Y-122352486D01*
X138119364Y-122354500D01*
X137890724Y-122354500D01*
X137823685Y-122334815D01*
X137777930Y-122282011D01*
X137766724Y-122230500D01*
X137766723Y-121808188D01*
X137786407Y-121741149D01*
X137839211Y-121695394D01*
X137908370Y-121685450D01*
X137971926Y-121714475D01*
G37*
%TD.AperFunction*%
%TD*%
%TA.AperFunction,Conductor*%
%TO.N,GND*%
G36*
X133546249Y-123303942D02*
G01*
X133535882Y-123353488D01*
X133496092Y-123384778D01*
X133452154Y-123385476D01*
X133414772Y-123374500D01*
X133285228Y-123374500D01*
X133160931Y-123410995D01*
X133051954Y-123481031D01*
X133051950Y-123481034D01*
X132967119Y-123578935D01*
X132913302Y-123696776D01*
X132894867Y-123825000D01*
X132913302Y-123953223D01*
X132913302Y-123953224D01*
X132913303Y-123953226D01*
X132967118Y-124071063D01*
X133051951Y-124168967D01*
X133142385Y-124227085D01*
X133160931Y-124239004D01*
X133285228Y-124275500D01*
X133414772Y-124275500D01*
X133539069Y-124239004D01*
X133648049Y-124168967D01*
X133715571Y-124091040D01*
X133759804Y-124066430D01*
X133771497Y-124065500D01*
X134105500Y-124065500D01*
X134153066Y-124082813D01*
X134178376Y-124126650D01*
X134179500Y-124139500D01*
X134179500Y-124919746D01*
X134191133Y-124978232D01*
X134220608Y-125022343D01*
X134235448Y-125044552D01*
X134271113Y-125068383D01*
X134301767Y-125088866D01*
X134301768Y-125088866D01*
X134301769Y-125088867D01*
X134360252Y-125100500D01*
X134499746Y-125100500D01*
X134499748Y-125100500D01*
X134558231Y-125088867D01*
X134588887Y-125068382D01*
X134638055Y-125056351D01*
X134671111Y-125068382D01*
X134701769Y-125088867D01*
X134760252Y-125100500D01*
X134899746Y-125100500D01*
X134899748Y-125100500D01*
X134958231Y-125088867D01*
X134988887Y-125068382D01*
X135038055Y-125056351D01*
X135071111Y-125068382D01*
X135101769Y-125088867D01*
X135160252Y-125100500D01*
X135299746Y-125100500D01*
X135299748Y-125100500D01*
X135358231Y-125088867D01*
X135388887Y-125068382D01*
X135438055Y-125056351D01*
X135471111Y-125068382D01*
X135501769Y-125088867D01*
X135560252Y-125100500D01*
X135699746Y-125100500D01*
X135699748Y-125100500D01*
X135758231Y-125088867D01*
X135788887Y-125068382D01*
X135838055Y-125056351D01*
X135871111Y-125068382D01*
X135901769Y-125088867D01*
X135960252Y-125100500D01*
X136099746Y-125100500D01*
X136099748Y-125100500D01*
X136158231Y-125088867D01*
X136188887Y-125068382D01*
X136238055Y-125056351D01*
X136271111Y-125068382D01*
X136301769Y-125088867D01*
X136360252Y-125100500D01*
X136499746Y-125100500D01*
X136499748Y-125100500D01*
X136558231Y-125088867D01*
X136588887Y-125068382D01*
X136638055Y-125056351D01*
X136671111Y-125068382D01*
X136701769Y-125088867D01*
X136760252Y-125100500D01*
X136899746Y-125100500D01*
X136899748Y-125100500D01*
X136958231Y-125088867D01*
X136988887Y-125068382D01*
X137038055Y-125056351D01*
X137071111Y-125068382D01*
X137101769Y-125088867D01*
X137160252Y-125100500D01*
X137299746Y-125100500D01*
X137299748Y-125100500D01*
X137358231Y-125088867D01*
X137388887Y-125068382D01*
X137438055Y-125056351D01*
X137471111Y-125068382D01*
X137501769Y-125088867D01*
X137560252Y-125100500D01*
X137699746Y-125100500D01*
X137699748Y-125100500D01*
X137758231Y-125088867D01*
X137788887Y-125068382D01*
X137838055Y-125056351D01*
X137871111Y-125068382D01*
X137901769Y-125088867D01*
X137960252Y-125100500D01*
X138099746Y-125100500D01*
X138099748Y-125100500D01*
X138158231Y-125088867D01*
X138188887Y-125068382D01*
X138238055Y-125056351D01*
X138271111Y-125068382D01*
X138301769Y-125088867D01*
X138360252Y-125100500D01*
X138499746Y-125100500D01*
X138499748Y-125100500D01*
X138558231Y-125088867D01*
X138588887Y-125068382D01*
X138638055Y-125056351D01*
X138671111Y-125068382D01*
X138701769Y-125088867D01*
X138760252Y-125100500D01*
X138899746Y-125100500D01*
X138899748Y-125100500D01*
X138958231Y-125088867D01*
X138988887Y-125068382D01*
X139038055Y-125056351D01*
X139071111Y-125068382D01*
X139101769Y-125088867D01*
X139160252Y-125100500D01*
X139299746Y-125100500D01*
X139299748Y-125100500D01*
X139358231Y-125088867D01*
X139388887Y-125068382D01*
X139438055Y-125056351D01*
X139471111Y-125068382D01*
X139501769Y-125088867D01*
X139560252Y-125100500D01*
X139699746Y-125100500D01*
X139699748Y-125100500D01*
X139758231Y-125088867D01*
X139764008Y-125085006D01*
X139813174Y-125072973D01*
X139857447Y-125094208D01*
X139885791Y-125122552D01*
X139907183Y-125168428D01*
X139894995Y-125215988D01*
X139891133Y-125221767D01*
X139879500Y-125280253D01*
X139879500Y-125419746D01*
X139891133Y-125478232D01*
X139920608Y-125522343D01*
X139935448Y-125544552D01*
X139951755Y-125555448D01*
X140001767Y-125588866D01*
X140001768Y-125588866D01*
X140001769Y-125588867D01*
X140060252Y-125600500D01*
X140435538Y-125600500D01*
X140449974Y-125601921D01*
X140467500Y-125605408D01*
X140485025Y-125601921D01*
X140499462Y-125600500D01*
X140874746Y-125600500D01*
X140874748Y-125600500D01*
X140933231Y-125588867D01*
X140999552Y-125544552D01*
X141043867Y-125478231D01*
X141055500Y-125419748D01*
X141055500Y-125280252D01*
X141043867Y-125221769D01*
X141042094Y-125219116D01*
X141006265Y-125165495D01*
X140999552Y-125155448D01*
X140977343Y-125140608D01*
X140933232Y-125111133D01*
X140933233Y-125111133D01*
X140903989Y-125105316D01*
X140874748Y-125099500D01*
X140874746Y-125099500D01*
X140601913Y-125099500D01*
X140554347Y-125082187D01*
X140549587Y-125077826D01*
X139902174Y-124430413D01*
X139880782Y-124384537D01*
X139880500Y-124378087D01*
X139880500Y-124279411D01*
X139897813Y-124231845D01*
X139902163Y-124227096D01*
X140217085Y-123912173D01*
X140262961Y-123890782D01*
X140269411Y-123890500D01*
X140399772Y-123890500D01*
X140524069Y-123854004D01*
X140633049Y-123783967D01*
X140717882Y-123686063D01*
X140771697Y-123568226D01*
X140790133Y-123440000D01*
X140771697Y-123311774D01*
X140717882Y-123193937D01*
X140717880Y-123193935D01*
X140717880Y-123193934D01*
X140717878Y-123193932D01*
X140714471Y-123190000D01*
X141605000Y-123190000D01*
X141605000Y-125499855D01*
X141227030Y-125877826D01*
X141181154Y-125899218D01*
X141174704Y-125899500D01*
X140874748Y-125899500D01*
X140060252Y-125899500D01*
X140031010Y-125905316D01*
X140001767Y-125911133D01*
X139935449Y-125955447D01*
X139935447Y-125955449D01*
X139891133Y-126021767D01*
X139891132Y-126021769D01*
X139891133Y-126021769D01*
X139879500Y-126080252D01*
X139879500Y-126219748D01*
X139881420Y-126229398D01*
X139891133Y-126278232D01*
X139912147Y-126309680D01*
X139935448Y-126344552D01*
X139951755Y-126355448D01*
X140001767Y-126388866D01*
X140001768Y-126388866D01*
X140001769Y-126388867D01*
X140060252Y-126400500D01*
X140442826Y-126400500D01*
X141277154Y-126400500D01*
X141291590Y-126401921D01*
X141309116Y-126405408D01*
X141406857Y-126385966D01*
X141452530Y-126355448D01*
X141489717Y-126330601D01*
X141499649Y-126315734D01*
X141508843Y-126304531D01*
X141605000Y-126208375D01*
X141605000Y-126799500D01*
X141545268Y-126799500D01*
X141497702Y-126782187D01*
X141490811Y-126774501D01*
X141490758Y-126774555D01*
X141485603Y-126769401D01*
X141485601Y-126769400D01*
X141485601Y-126769399D01*
X141432536Y-126733942D01*
X141402741Y-126714034D01*
X141305000Y-126694592D01*
X141287475Y-126698078D01*
X141273038Y-126699500D01*
X140874748Y-126699500D01*
X140060252Y-126699500D01*
X140031010Y-126705316D01*
X140001767Y-126711133D01*
X139935449Y-126755447D01*
X139935447Y-126755449D01*
X139891133Y-126821767D01*
X139879500Y-126880253D01*
X139879500Y-127019746D01*
X139891133Y-127078232D01*
X139920228Y-127121774D01*
X139935448Y-127144552D01*
X139951755Y-127155448D01*
X140001767Y-127188866D01*
X140001768Y-127188866D01*
X140001769Y-127188867D01*
X140060252Y-127200500D01*
X140442826Y-127200500D01*
X141078629Y-127200500D01*
X141126195Y-127217813D01*
X141151505Y-127261650D01*
X141151870Y-127263933D01*
X141154217Y-127280252D01*
X141168302Y-127378223D01*
X141168302Y-127378224D01*
X141168303Y-127378226D01*
X141222118Y-127496063D01*
X141306951Y-127593967D01*
X141415931Y-127664004D01*
X141540228Y-127700500D01*
X141605000Y-127700500D01*
X141605000Y-128704500D01*
X141540228Y-128704500D01*
X141415931Y-128740995D01*
X141306954Y-128811031D01*
X141306950Y-128811034D01*
X141222118Y-128908935D01*
X141196813Y-128964347D01*
X141161304Y-129000423D01*
X141110914Y-129005234D01*
X141069221Y-128976530D01*
X141055500Y-128933606D01*
X141055500Y-128880253D01*
X141043866Y-128821766D01*
X141023383Y-128791112D01*
X141011351Y-128741944D01*
X141023384Y-128708885D01*
X141043866Y-128678233D01*
X141043866Y-128678232D01*
X141043867Y-128678231D01*
X141055500Y-128619748D01*
X141055500Y-128480252D01*
X141043867Y-128421769D01*
X141043866Y-128421767D01*
X141043866Y-128421766D01*
X141023383Y-128391112D01*
X141011351Y-128341944D01*
X141023384Y-128308885D01*
X141043866Y-128278233D01*
X141043866Y-128278232D01*
X141043867Y-128278231D01*
X141055500Y-128219748D01*
X141055500Y-128080252D01*
X141043867Y-128021769D01*
X141043866Y-128021767D01*
X141043866Y-128021766D01*
X141023383Y-127991112D01*
X141011351Y-127941944D01*
X141023384Y-127908885D01*
X141043866Y-127878233D01*
X141043866Y-127878232D01*
X141043867Y-127878231D01*
X141055500Y-127819748D01*
X141055500Y-127680252D01*
X141043867Y-127621769D01*
X140999552Y-127555448D01*
X140974182Y-127538496D01*
X140933232Y-127511133D01*
X140933233Y-127511133D01*
X140903989Y-127505316D01*
X140874748Y-127499500D01*
X140874746Y-127499500D01*
X140060254Y-127499500D01*
X140060252Y-127499500D01*
X140031010Y-127505316D01*
X140001767Y-127511133D01*
X139935449Y-127555447D01*
X139935447Y-127555449D01*
X139891133Y-127621767D01*
X139883377Y-127660757D01*
X139879500Y-127680252D01*
X139879500Y-127819748D01*
X139883200Y-127838350D01*
X139891133Y-127878232D01*
X139911617Y-127908888D01*
X139923648Y-127958056D01*
X139911617Y-127991112D01*
X139891133Y-128021767D01*
X139879500Y-128080253D01*
X139879500Y-128219746D01*
X139891133Y-128278232D01*
X139911617Y-128308888D01*
X139923648Y-128358056D01*
X139911617Y-128391112D01*
X139891133Y-128421767D01*
X139879500Y-128480253D01*
X139879500Y-128619746D01*
X139891133Y-128678232D01*
X139911617Y-128708888D01*
X139923648Y-128758056D01*
X139911617Y-128791112D01*
X139891133Y-128821767D01*
X139879500Y-128880253D01*
X139879500Y-129019746D01*
X139891133Y-129078232D01*
X139911617Y-129108888D01*
X139923648Y-129158056D01*
X139911617Y-129191112D01*
X139891133Y-129221767D01*
X139879500Y-129280253D01*
X139879500Y-129419746D01*
X139891133Y-129478232D01*
X139911617Y-129508888D01*
X139923648Y-129558056D01*
X139911617Y-129591112D01*
X139891133Y-129621767D01*
X139891132Y-129621769D01*
X139891133Y-129621769D01*
X139881400Y-129670703D01*
X139879500Y-129680253D01*
X139879500Y-129819746D01*
X139891133Y-129878232D01*
X139911617Y-129908888D01*
X139923648Y-129958056D01*
X139911617Y-129991112D01*
X139891133Y-130021767D01*
X139879500Y-130080253D01*
X139879500Y-130219746D01*
X139891133Y-130278232D01*
X139911617Y-130308888D01*
X139923648Y-130358056D01*
X139911617Y-130391112D01*
X139891133Y-130421767D01*
X139879500Y-130480253D01*
X139879500Y-130619746D01*
X139891133Y-130678232D01*
X139892588Y-130680409D01*
X139935448Y-130744552D01*
X139979560Y-130774027D01*
X140001767Y-130788866D01*
X140001768Y-130788866D01*
X140001769Y-130788867D01*
X140060252Y-130800500D01*
X140442826Y-130800500D01*
X140960588Y-130800500D01*
X141008154Y-130817813D01*
X141012914Y-130822174D01*
X141136354Y-130945614D01*
X141157746Y-130991490D01*
X141157275Y-131008470D01*
X141149867Y-131059999D01*
X141168302Y-131188223D01*
X141168302Y-131188224D01*
X141168303Y-131188226D01*
X141222118Y-131306063D01*
X141306951Y-131403967D01*
X141392637Y-131459034D01*
X141415931Y-131474004D01*
X141540228Y-131510500D01*
X141605000Y-131510500D01*
X141605000Y-131975739D01*
X141168728Y-132412012D01*
X140865740Y-132715000D01*
X139520133Y-132715000D01*
X139512723Y-132663469D01*
X139523090Y-132613927D01*
X139533639Y-132600619D01*
X139784534Y-132349725D01*
X139795737Y-132340531D01*
X139810601Y-132330601D01*
X139820332Y-132316037D01*
X139829930Y-132301674D01*
X139865965Y-132247741D01*
X139865964Y-132247741D01*
X139865966Y-132247740D01*
X139885409Y-132150000D01*
X139881922Y-132132470D01*
X139880500Y-132118033D01*
X139880500Y-130980253D01*
X139870857Y-130931774D01*
X139868867Y-130921769D01*
X139824552Y-130855448D01*
X139782823Y-130827565D01*
X139758232Y-130811133D01*
X139758233Y-130811133D01*
X139728989Y-130805316D01*
X139699748Y-130799500D01*
X139699746Y-130799500D01*
X139560254Y-130799500D01*
X139560252Y-130799500D01*
X139531010Y-130805316D01*
X139501767Y-130811133D01*
X139435449Y-130855447D01*
X139435447Y-130855449D01*
X139391133Y-130921767D01*
X139379500Y-130980253D01*
X139379500Y-132015587D01*
X139362187Y-132063153D01*
X139357826Y-132067913D01*
X139182913Y-132242826D01*
X139137037Y-132264218D01*
X139130587Y-132264500D01*
X139000228Y-132264500D01*
X138875931Y-132300995D01*
X138766954Y-132371031D01*
X138766950Y-132371034D01*
X138682119Y-132468935D01*
X138628302Y-132586776D01*
X138609867Y-132714999D01*
X138609867Y-132715000D01*
X136680500Y-132715000D01*
X136680500Y-132049291D01*
X136697813Y-132001725D01*
X136741650Y-131976415D01*
X136756617Y-131975845D01*
X136756617Y-131975500D01*
X136899746Y-131975500D01*
X136899748Y-131975500D01*
X136958231Y-131963867D01*
X136988887Y-131943382D01*
X137038055Y-131931351D01*
X137071111Y-131943382D01*
X137101769Y-131963867D01*
X137160252Y-131975500D01*
X137299746Y-131975500D01*
X137299748Y-131975500D01*
X137358231Y-131963867D01*
X137388887Y-131943382D01*
X137438055Y-131931351D01*
X137471111Y-131943382D01*
X137501769Y-131963867D01*
X137560252Y-131975500D01*
X137699746Y-131975500D01*
X137699748Y-131975500D01*
X137758231Y-131963867D01*
X137788887Y-131943382D01*
X137838055Y-131931351D01*
X137871111Y-131943382D01*
X137901769Y-131963867D01*
X137960252Y-131975500D01*
X138099746Y-131975500D01*
X138099748Y-131975500D01*
X138158231Y-131963867D01*
X138188887Y-131943382D01*
X138238055Y-131931351D01*
X138271111Y-131943382D01*
X138301769Y-131963867D01*
X138360252Y-131975500D01*
X138499746Y-131975500D01*
X138499748Y-131975500D01*
X138558231Y-131963867D01*
X138588887Y-131943382D01*
X138638055Y-131931351D01*
X138671111Y-131943382D01*
X138701769Y-131963867D01*
X138760252Y-131975500D01*
X138899746Y-131975500D01*
X138899748Y-131975500D01*
X138958231Y-131963867D01*
X139024552Y-131919552D01*
X139068867Y-131853231D01*
X139080500Y-131794748D01*
X139080500Y-130980252D01*
X139068867Y-130921769D01*
X139024552Y-130855448D01*
X138982823Y-130827565D01*
X138958232Y-130811133D01*
X138958233Y-130811133D01*
X138928989Y-130805316D01*
X138899748Y-130799500D01*
X138899746Y-130799500D01*
X138760254Y-130799500D01*
X138760252Y-130799500D01*
X138731010Y-130805316D01*
X138701767Y-130811133D01*
X138671112Y-130831617D01*
X138621944Y-130843648D01*
X138588888Y-130831617D01*
X138558231Y-130811133D01*
X138558233Y-130811133D01*
X138528989Y-130805316D01*
X138499748Y-130799500D01*
X138499746Y-130799500D01*
X138360254Y-130799500D01*
X138360252Y-130799500D01*
X138331010Y-130805316D01*
X138301767Y-130811133D01*
X138271112Y-130831617D01*
X138221944Y-130843648D01*
X138188888Y-130831617D01*
X138158231Y-130811133D01*
X138158233Y-130811133D01*
X138128989Y-130805316D01*
X138099748Y-130799500D01*
X138099746Y-130799500D01*
X137960254Y-130799500D01*
X137960252Y-130799500D01*
X137931010Y-130805316D01*
X137901767Y-130811133D01*
X137871112Y-130831617D01*
X137821944Y-130843648D01*
X137788888Y-130831617D01*
X137758231Y-130811133D01*
X137758233Y-130811133D01*
X137728989Y-130805316D01*
X137699748Y-130799500D01*
X137699746Y-130799500D01*
X137560254Y-130799500D01*
X137560252Y-130799500D01*
X137531010Y-130805316D01*
X137501767Y-130811133D01*
X137471112Y-130831617D01*
X137421944Y-130843648D01*
X137388888Y-130831617D01*
X137358231Y-130811133D01*
X137358233Y-130811133D01*
X137328989Y-130805316D01*
X137299748Y-130799500D01*
X137299746Y-130799500D01*
X137160254Y-130799500D01*
X137160252Y-130799500D01*
X137131010Y-130805316D01*
X137101767Y-130811133D01*
X137071112Y-130831617D01*
X137021944Y-130843648D01*
X136988888Y-130831617D01*
X136958231Y-130811133D01*
X136958233Y-130811133D01*
X136928989Y-130805316D01*
X136899748Y-130799500D01*
X136899746Y-130799500D01*
X136760254Y-130799500D01*
X136760252Y-130799500D01*
X136731010Y-130805316D01*
X136701767Y-130811133D01*
X136671112Y-130831617D01*
X136621944Y-130843648D01*
X136588888Y-130831617D01*
X136558231Y-130811133D01*
X136558233Y-130811133D01*
X136528989Y-130805316D01*
X136499748Y-130799500D01*
X136499746Y-130799500D01*
X136360254Y-130799500D01*
X136360252Y-130799500D01*
X136331010Y-130805316D01*
X136301767Y-130811133D01*
X136271112Y-130831617D01*
X136221944Y-130843648D01*
X136188888Y-130831617D01*
X136158231Y-130811133D01*
X136158233Y-130811133D01*
X136128989Y-130805316D01*
X136099748Y-130799500D01*
X136099746Y-130799500D01*
X135960254Y-130799500D01*
X135960252Y-130799500D01*
X135931010Y-130805316D01*
X135901767Y-130811133D01*
X135871112Y-130831617D01*
X135821944Y-130843648D01*
X135788888Y-130831617D01*
X135758231Y-130811133D01*
X135758233Y-130811133D01*
X135728989Y-130805316D01*
X135699748Y-130799500D01*
X135699746Y-130799500D01*
X135560254Y-130799500D01*
X135560252Y-130799500D01*
X135531010Y-130805316D01*
X135501767Y-130811133D01*
X135471112Y-130831617D01*
X135421944Y-130843648D01*
X135388888Y-130831617D01*
X135358231Y-130811133D01*
X135358233Y-130811133D01*
X135328989Y-130805316D01*
X135299748Y-130799500D01*
X135299746Y-130799500D01*
X135160254Y-130799500D01*
X135160252Y-130799500D01*
X135131010Y-130805316D01*
X135101767Y-130811133D01*
X135071112Y-130831617D01*
X135021944Y-130843648D01*
X134988888Y-130831617D01*
X134958231Y-130811133D01*
X134958233Y-130811133D01*
X134928989Y-130805316D01*
X134899748Y-130799500D01*
X134899746Y-130799500D01*
X134760254Y-130799500D01*
X134760252Y-130799500D01*
X134731010Y-130805316D01*
X134701767Y-130811133D01*
X134671112Y-130831617D01*
X134621944Y-130843648D01*
X134588888Y-130831617D01*
X134558231Y-130811133D01*
X134558233Y-130811133D01*
X134528989Y-130805316D01*
X134499748Y-130799500D01*
X134499746Y-130799500D01*
X134360254Y-130799500D01*
X134360252Y-130799500D01*
X134331010Y-130805316D01*
X134301767Y-130811133D01*
X134235449Y-130855447D01*
X134235447Y-130855449D01*
X134191133Y-130921767D01*
X134179500Y-130980253D01*
X134179500Y-131794746D01*
X134191133Y-131853232D01*
X134192103Y-131854683D01*
X134235448Y-131919552D01*
X134271113Y-131943383D01*
X134301981Y-131964009D01*
X134331912Y-132004831D01*
X134328601Y-132055341D01*
X134316794Y-132073996D01*
X134237120Y-132165944D01*
X134237119Y-132165946D01*
X134183302Y-132283788D01*
X134164867Y-132412012D01*
X134183302Y-132540235D01*
X134183302Y-132540236D01*
X134183303Y-132540238D01*
X134237118Y-132658075D01*
X134286443Y-132715000D01*
X132715000Y-132715000D01*
X132715000Y-131225721D01*
X132720885Y-131221939D01*
X132805718Y-131124035D01*
X132859533Y-131006198D01*
X132877969Y-130877972D01*
X132877969Y-130877970D01*
X132877969Y-130874500D01*
X132895282Y-130826934D01*
X132939119Y-130801624D01*
X132951969Y-130800500D01*
X133999746Y-130800500D01*
X133999748Y-130800500D01*
X134058231Y-130788867D01*
X134124552Y-130744552D01*
X134168867Y-130678231D01*
X134180500Y-130619748D01*
X134180500Y-130480252D01*
X134168867Y-130421769D01*
X134168866Y-130421767D01*
X134168866Y-130421766D01*
X134148383Y-130391112D01*
X134136351Y-130341944D01*
X134148384Y-130308885D01*
X134168866Y-130278233D01*
X134168866Y-130278232D01*
X134168867Y-130278231D01*
X134180500Y-130219748D01*
X134180500Y-130080252D01*
X134168867Y-130021769D01*
X134168866Y-130021767D01*
X134168866Y-130021766D01*
X134148383Y-129991112D01*
X134136351Y-129941944D01*
X134148384Y-129908885D01*
X134168866Y-129878233D01*
X134168866Y-129878232D01*
X134168867Y-129878231D01*
X134180500Y-129819748D01*
X134180500Y-129680252D01*
X134168867Y-129621769D01*
X134168866Y-129621767D01*
X134168866Y-129621766D01*
X134148383Y-129591112D01*
X134136351Y-129541944D01*
X134148384Y-129508885D01*
X134168866Y-129478233D01*
X134168866Y-129478232D01*
X134168867Y-129478231D01*
X134180500Y-129419748D01*
X134180500Y-129280252D01*
X134168867Y-129221769D01*
X134168866Y-129221767D01*
X134168866Y-129221766D01*
X134148383Y-129191112D01*
X134136351Y-129141944D01*
X134148384Y-129108885D01*
X134168866Y-129078233D01*
X134168866Y-129078232D01*
X134168867Y-129078231D01*
X134180500Y-129019748D01*
X134180500Y-128880252D01*
X134168867Y-128821769D01*
X134168866Y-128821767D01*
X134168866Y-128821766D01*
X134148383Y-128791112D01*
X134136351Y-128741944D01*
X134148384Y-128708885D01*
X134168866Y-128678233D01*
X134168866Y-128678232D01*
X134168867Y-128678231D01*
X134180500Y-128619748D01*
X134180500Y-128480252D01*
X134168867Y-128421769D01*
X134168866Y-128421767D01*
X134168866Y-128421766D01*
X134148383Y-128391112D01*
X134136351Y-128341944D01*
X134148384Y-128308885D01*
X134168866Y-128278233D01*
X134168866Y-128278232D01*
X134168867Y-128278231D01*
X134180500Y-128219748D01*
X134180500Y-128080252D01*
X134168867Y-128021769D01*
X134168866Y-128021767D01*
X134168866Y-128021766D01*
X134148383Y-127991112D01*
X134136351Y-127941944D01*
X134148384Y-127908885D01*
X134168866Y-127878233D01*
X134168866Y-127878232D01*
X134168867Y-127878231D01*
X134180500Y-127819748D01*
X134180500Y-127680252D01*
X134168867Y-127621769D01*
X134168866Y-127621767D01*
X134168866Y-127621766D01*
X134148383Y-127591112D01*
X134136351Y-127541944D01*
X134148384Y-127508885D01*
X134168866Y-127478233D01*
X134168866Y-127478232D01*
X134168867Y-127478231D01*
X134180500Y-127419748D01*
X134180500Y-127280252D01*
X134168867Y-127221769D01*
X134168866Y-127221767D01*
X134168866Y-127221766D01*
X134148383Y-127191112D01*
X134136351Y-127141944D01*
X134148384Y-127108885D01*
X134168866Y-127078233D01*
X134168866Y-127078232D01*
X134168867Y-127078231D01*
X134180500Y-127019748D01*
X134180500Y-126880252D01*
X134168867Y-126821769D01*
X134168866Y-126821767D01*
X134168866Y-126821766D01*
X134148383Y-126791112D01*
X134136351Y-126741944D01*
X134148384Y-126708885D01*
X134168866Y-126678233D01*
X134168866Y-126678232D01*
X134168867Y-126678231D01*
X134180500Y-126619748D01*
X134180500Y-126480252D01*
X134168867Y-126421769D01*
X134168866Y-126421767D01*
X134168866Y-126421766D01*
X134148383Y-126391112D01*
X134136351Y-126341944D01*
X134148384Y-126308885D01*
X134168866Y-126278233D01*
X134168866Y-126278232D01*
X134168867Y-126278231D01*
X134180500Y-126219748D01*
X134180500Y-126080252D01*
X134168867Y-126021769D01*
X134168866Y-126021767D01*
X134168866Y-126021766D01*
X134148383Y-125991112D01*
X134136351Y-125941944D01*
X134148384Y-125908885D01*
X134168866Y-125878233D01*
X134168866Y-125878232D01*
X134168867Y-125878231D01*
X134180500Y-125819748D01*
X134180500Y-125680252D01*
X134168867Y-125621769D01*
X134168866Y-125621767D01*
X134168866Y-125621766D01*
X134148383Y-125591112D01*
X134136351Y-125541944D01*
X134148384Y-125508885D01*
X134168866Y-125478233D01*
X134168866Y-125478232D01*
X134168867Y-125478231D01*
X134180500Y-125419748D01*
X134180500Y-125280252D01*
X134168867Y-125221769D01*
X134167094Y-125219116D01*
X134131265Y-125165495D01*
X134124552Y-125155448D01*
X134102343Y-125140608D01*
X134058232Y-125111133D01*
X134058233Y-125111133D01*
X134028989Y-125105316D01*
X133999748Y-125099500D01*
X133999746Y-125099500D01*
X133185254Y-125099500D01*
X133185252Y-125099500D01*
X133156010Y-125105316D01*
X133126767Y-125111133D01*
X133060449Y-125155447D01*
X133060447Y-125155449D01*
X133016133Y-125221767D01*
X133004500Y-125280253D01*
X133004500Y-125419746D01*
X133016133Y-125478232D01*
X133036617Y-125508888D01*
X133048648Y-125558056D01*
X133036617Y-125591112D01*
X133016133Y-125621767D01*
X133004500Y-125680253D01*
X133004500Y-125819746D01*
X133016133Y-125878232D01*
X133036617Y-125908888D01*
X133048648Y-125958056D01*
X133036617Y-125991112D01*
X133016133Y-126021767D01*
X133016132Y-126021769D01*
X133016133Y-126021769D01*
X133004500Y-126080252D01*
X133004500Y-126219748D01*
X133006420Y-126229398D01*
X133016133Y-126278232D01*
X133036617Y-126308888D01*
X133048648Y-126358056D01*
X133036617Y-126391112D01*
X133016133Y-126421767D01*
X133004500Y-126480253D01*
X133004500Y-126619746D01*
X133016133Y-126678232D01*
X133036617Y-126708888D01*
X133048648Y-126758056D01*
X133036617Y-126791112D01*
X133016133Y-126821767D01*
X133004500Y-126880253D01*
X133004500Y-127019746D01*
X133016133Y-127078232D01*
X133036617Y-127108888D01*
X133048648Y-127158056D01*
X133036617Y-127191112D01*
X133016133Y-127221767D01*
X133004500Y-127280253D01*
X133004500Y-127419746D01*
X133016133Y-127478232D01*
X133036617Y-127508888D01*
X133048648Y-127558056D01*
X133036617Y-127591112D01*
X133016133Y-127621767D01*
X133004500Y-127680253D01*
X133004500Y-127823383D01*
X133003032Y-127823383D01*
X132991795Y-127867267D01*
X132950657Y-127896761D01*
X132930709Y-127899500D01*
X132909135Y-127899500D01*
X132861569Y-127882187D01*
X132836259Y-127838350D01*
X132835888Y-127836033D01*
X132834197Y-127824275D01*
X132810978Y-127773433D01*
X132780382Y-127706437D01*
X132715000Y-127630980D01*
X132715000Y-123190000D01*
X133529867Y-123190000D01*
X133546249Y-123303942D01*
G37*
%TD.AperFunction*%
%TD*%
%TA.AperFunction,NonConductor*%
G36*
X135507120Y-123193932D02*
G01*
X135507119Y-123193934D01*
X135453302Y-123311776D01*
X135434867Y-123440000D01*
X135453302Y-123568223D01*
X135474813Y-123615325D01*
X135478824Y-123665785D01*
X135449463Y-123707018D01*
X135400466Y-123719731D01*
X135355174Y-123698392D01*
X134846782Y-123190000D01*
X135510527Y-123190000D01*
X135507120Y-123193932D01*
G37*
%TD.AperFunction*%
%TA.AperFunction,NonConductor*%
G36*
X138344640Y-123317350D02*
G01*
X138369463Y-123333723D01*
X138557826Y-123522086D01*
X138579218Y-123567961D01*
X138579500Y-123574411D01*
X138579500Y-123653182D01*
X138562187Y-123700748D01*
X138518350Y-123726058D01*
X138468500Y-123717268D01*
X138453174Y-123705508D01*
X138268472Y-123520806D01*
X138247080Y-123474930D01*
X138247551Y-123457950D01*
X138250133Y-123440000D01*
X138243890Y-123396579D01*
X138254257Y-123347034D01*
X138294047Y-123315744D01*
X138344640Y-123317350D01*
G37*
%TD.AperFunction*%
%TA.AperFunction,NonConductor*%
G36*
X139952121Y-123193932D02*
G01*
X139952119Y-123193934D01*
X139898302Y-123311776D01*
X139879867Y-123440000D01*
X139887275Y-123491528D01*
X139876907Y-123541073D01*
X139866354Y-123554384D01*
X139606826Y-123813913D01*
X139560950Y-123835305D01*
X139512055Y-123822204D01*
X139483022Y-123780740D01*
X139480500Y-123761587D01*
X139480500Y-123190000D01*
X139955528Y-123190000D01*
X139952121Y-123193932D01*
G37*
%TD.AperFunction*%
%TA.AperFunction,NonConductor*%
G36*
X137412120Y-123193932D02*
G01*
X137412119Y-123193934D01*
X137358302Y-123311776D01*
X137339867Y-123439999D01*
X137358302Y-123568223D01*
X137358302Y-123568224D01*
X137358303Y-123568226D01*
X137412118Y-123686063D01*
X137496951Y-123783967D01*
X137524733Y-123801821D01*
X137555388Y-123842100D01*
X137552980Y-123892662D01*
X137518635Y-123929846D01*
X137507823Y-123933625D01*
X137501768Y-123936133D01*
X137471112Y-123956617D01*
X137421944Y-123968648D01*
X137388888Y-123956617D01*
X137358231Y-123936133D01*
X137358233Y-123936133D01*
X137326624Y-123929846D01*
X137299748Y-123924500D01*
X137299746Y-123924500D01*
X137160254Y-123924500D01*
X137160252Y-123924500D01*
X137133376Y-123929846D01*
X137101767Y-123936133D01*
X137071112Y-123956617D01*
X137021944Y-123968648D01*
X136988888Y-123956617D01*
X136958231Y-123936133D01*
X136958233Y-123936133D01*
X136926624Y-123929846D01*
X136899748Y-123924500D01*
X136899746Y-123924500D01*
X136760251Y-123924500D01*
X136748865Y-123926764D01*
X136698836Y-123919060D01*
X136670807Y-123887789D01*
X136670015Y-123888319D01*
X136666305Y-123882766D01*
X136666066Y-123882500D01*
X136665966Y-123882260D01*
X136665966Y-123882259D01*
X136641399Y-123845492D01*
X136610601Y-123799399D01*
X136595735Y-123789466D01*
X136584527Y-123780267D01*
X136358644Y-123554384D01*
X136337252Y-123508508D01*
X136337722Y-123491536D01*
X136345133Y-123440000D01*
X136326697Y-123311774D01*
X136272882Y-123193937D01*
X136272880Y-123193935D01*
X136272880Y-123193934D01*
X136272879Y-123193932D01*
X136269472Y-123190000D01*
X137415527Y-123190000D01*
X137412120Y-123193932D01*
G37*
%TD.AperFunction*%
%TA.AperFunction,NonConductor*%
G36*
X132978275Y-128817813D02*
G01*
X133003585Y-128861650D01*
X133004155Y-128876617D01*
X133004500Y-128876617D01*
X133004500Y-129019746D01*
X133016133Y-129078232D01*
X133036617Y-129108888D01*
X133048648Y-129158056D01*
X133036617Y-129191112D01*
X133016133Y-129221767D01*
X133004500Y-129280253D01*
X133004500Y-129419746D01*
X133016133Y-129478232D01*
X133036617Y-129508888D01*
X133048648Y-129558056D01*
X133036617Y-129591112D01*
X133016133Y-129621767D01*
X133016132Y-129621769D01*
X133016133Y-129621769D01*
X133006400Y-129670703D01*
X133004500Y-129680253D01*
X133004500Y-129749365D01*
X132987187Y-129796931D01*
X132943350Y-129822241D01*
X132893500Y-129813451D01*
X132863187Y-129780106D01*
X132849148Y-129749365D01*
X132813225Y-129670705D01*
X132728392Y-129572801D01*
X132721304Y-129568246D01*
X132715000Y-129564194D01*
X132715000Y-128800500D01*
X132930709Y-128800500D01*
X132978275Y-128817813D01*
G37*
%TD.AperFunction*%
%TA.AperFunction,NonConductor*%
G36*
X141605000Y-130609500D02*
G01*
X141539412Y-130609500D01*
X141491846Y-130592187D01*
X141487086Y-130587826D01*
X141426086Y-130526826D01*
X141404694Y-130480950D01*
X141417795Y-130432055D01*
X141459259Y-130403021D01*
X141478412Y-130400500D01*
X141605000Y-130400500D01*
X141605000Y-130609500D01*
G37*
%TD.AperFunction*%
%TA.AperFunction,NonConductor*%
G36*
X141605000Y-132715000D02*
G01*
X141574261Y-132715000D01*
X141605000Y-132684260D01*
X141605000Y-132715000D01*
G37*
%TD.AperFunction*%
M02*
